<svg id="ezr8dj9haew1" xmlns="http://www.w3.org/2000/svg" xmlns:xlink="http://www.w3.org/1999/xlink" viewBox="0 0 800 450" shape-rendering="geometricPrecision" text-rendering="geometricPrecision"><style><![CDATA[#ezr8dj9haew23 {animation: ezr8dj9haew23_c_o 11000ms linear infinite normal forwards}@keyframes ezr8dj9haew23_c_o { 0% {opacity: 0} 2.727273% {opacity: 1} 87.272727% {opacity: 1} 90% {opacity: 0} 100% {opacity: 0} }#ezr8dj9haew35 {animation: ezr8dj9haew35_c_o 11000ms linear infinite normal forwards}@keyframes ezr8dj9haew35_c_o { 0% {opacity: 1} 61.818182% {opacity: 1} 63.636364% {opacity: 0} 100% {opacity: 0} }#ezr8dj9haew36 {animation: ezr8dj9haew36_c_o 11000ms linear infinite normal forwards}@keyframes ezr8dj9haew36_c_o { 0% {opacity: 0} 63.636364% {opacity: 0} 65.454545% {opacity: 1} 100% {opacity: 1} }#ezr8dj9haew42 {animation: ezr8dj9haew42_c_o 11000ms linear infinite normal forwards}@keyframes ezr8dj9haew42_c_o { 0% {opacity: 0} 43.636364% {opacity: 0} 45.454545% {opacity: 1} 100% {opacity: 1} }#ezr8dj9haew43 {animation: ezr8dj9haew43_c_o 11000ms linear infinite normal forwards}@keyframes ezr8dj9haew43_c_o { 0% {opacity: 0} 50% {opacity: 0} 51.818182% {opacity: 1} 100% {opacity: 1} }#ezr8dj9haew44 {animation: ezr8dj9haew44_c_o 11000ms linear infinite normal forwards}@keyframes ezr8dj9haew44_c_o { 0% {opacity: 0} 56.363636% {opacity: 0} 58.181818% {opacity: 1} 100% {opacity: 1} }#ezr8dj9haew46 {animation: ezr8dj9haew46_c_o 11000ms linear infinite normal forwards}@keyframes ezr8dj9haew46_c_o { 0% {opacity: 1} 61.818182% {opacity: 1} 63.636364% {opacity: 0} 100% {opacity: 0} }#ezr8dj9haew47 {animation: ezr8dj9haew47_c_o 11000ms linear infinite normal forwards}@keyframes ezr8dj9haew47_c_o { 0% {opacity: 1} 34.545455% {opacity: 1;animation-timing-function: step-end} 35.909091% {opacity: 1;animation-timing-function: step-end} 36.363636% {opacity: 0.700000} 37.272727% {opacity: 1} 100% {opacity: 1} }#ezr8dj9haew54_to {animation: ezr8dj9haew54_to__to 11000ms linear infinite normal forwards}@keyframes ezr8dj9haew54_to__to { 0% {transform: translate(558.370696px,175.085157px)} 25.454545% {transform: translate(558.370696px,175.085157px)} 33.636364% {transform: translate(178.598966px,340.466435px)} 100% {transform: translate(178.598966px,340.466435px)} }#ezr8dj9haew54 {animation: ezr8dj9haew54_c_o 11000ms linear infinite normal forwards}@keyframes ezr8dj9haew54_c_o { 0% {opacity: 0} 16.363636% {opacity: 0} 18.181818% {opacity: 1} 74.545455% {opacity: 1} 77.272727% {opacity: 0} 100% {opacity: 0} }]]></style><g id="ezr8dj9haew2" transform="matrix(1 0 0 1 -22.54000854499975 -184.56382369999994)"><g id="ezr8dj9haew3" transform="matrix(1 0 0 1 -457.45999999999998 -1.63419000000000)"><path id="ezr8dj9haew4" d="M500,200L1260,200L1260,632.396000L500,632.396000Z" transform="matrix(1 0 0 1 -0.00002000000003 -1.01530450000007)" fill="rgb(255,255,255)" stroke="rgb(36,41,46)" stroke-width="4"/><path id="ezr8dj9haew5" d="M499.999980,200L1260,200L1260,260L499.999980,260Z" fill="rgb(36,41,46)" stroke="rgb(36,41,46)" stroke-width="2" stroke-opacity="0"/><g id="ezr8dj9haew6" transform="matrix(1 0 0 1 816.84400000000005 -2.70642000000000)"><path id="ezr8dj9haew7" d="M298.501970,227.302740L298.501970,230.182950Q297.380880,229.681650,296.314470,229.426440Q295.248060,229.171230,294.300140,229.171230Q293.042330,229.171230,292.440760,229.517590Q291.839200,229.863940,291.839200,230.593110Q291.839200,231.139990,292.240240,231.449880Q292.650400,231.750670,293.716810,231.969420L295.211600,232.270200Q297.481140,232.725930,298.438170,233.655620Q299.395200,234.585310,299.395200,236.298850Q299.395200,238.550160,298.055360,239.653020Q296.724630,240.746780,293.981130,240.746780Q292.686860,240.746780,291.383470,240.500680Q290.080080,240.254590,288.776700,239.771510L288.776700,236.809270Q290.080080,237.501980,291.292320,237.857450Q292.513680,238.203800,293.643890,238.203800Q294.792330,238.203800,295.403010,237.820990Q296.013690,237.438180,296.013690,236.727240Q296.013690,236.089210,295.594420,235.742860Q295.184260,235.396510,293.944670,235.123070L292.586600,234.822290Q290.544930,234.384780,289.597010,233.427750Q288.658210,232.470720,288.658210,230.848320Q288.658210,228.815760,289.970710,227.722010Q291.283210,226.628260,293.744150,226.628260Q294.865250,226.628260,296.050150,226.801440Q297.235040,226.965500,298.501970,227.302740Z" fill="rgb(255,255,255)" stroke="none" stroke-width="1"/><path id="ezr8dj9haew8" d="M306.905630,235.888690Q305.884800,235.888690,305.365270,236.235050Q304.854850,236.581400,304.854850,237.255880Q304.854850,237.875680,305.265010,238.231150Q305.684280,238.577500,306.422560,238.577500Q307.343130,238.577500,307.972040,237.921250Q308.600950,237.255880,308.600950,236.262390L308.600950,235.888690ZM311.891320,234.658220L311.891320,240.482450L308.600950,240.482450L308.600950,238.969430Q307.944700,239.899120,307.124380,240.327500Q306.304070,240.746780,305.128290,240.746780Q303.542350,240.746780,302.548860,239.826200Q301.564480,238.896510,301.564480,237.419950Q301.564480,235.624370,302.794950,234.785830Q304.034540,233.947280,306.677770,233.947280L308.600950,233.947280L308.600950,233.692070Q308.600950,232.917330,307.990270,232.561860Q307.379590,232.197280,306.085320,232.197280Q305.037140,232.197280,304.134800,232.406920Q303.232450,232.616550,302.457710,233.035820L302.457710,230.547540Q303.505890,230.292330,304.563180,230.164720Q305.620480,230.028010,306.677770,230.028010Q309.439490,230.028010,310.660850,231.121760Q311.891320,232.206400,311.891320,234.658220Z" fill="rgb(255,255,255)" stroke="none" stroke-width="1"/><path id="ezr8dj9haew9" d="M322.901760,230.593110L322.901760,233.072280Q321.853580,232.634780,320.878320,232.416030Q319.903050,232.197280,319.037170,232.197280Q318.107480,232.197280,317.651750,232.434260Q317.205130,232.662130,317.205130,233.145200Q317.205130,233.537130,317.542370,233.746760Q317.888730,233.956400,318.772840,234.056660L319.347060,234.138660Q321.853580,234.457670,322.719470,235.186840Q323.585350,235.916010,323.585350,237.474600Q323.585350,239.106120,322.382230,239.926430Q321.179100,240.746750,318.791070,240.746750Q317.779350,240.746750,316.694720,240.582680Q315.619190,240.427730,314.479870,240.108720L314.479870,237.629550Q315.455130,238.103510,316.475970,238.340490Q317.505920,238.577470,318.563210,238.577470Q319.520240,238.577470,320.003320,238.313150Q320.486390,238.048820,320.486390,237.529290Q320.486390,237.091790,320.149150,236.882150Q319.821020,236.663400,318.827530,236.544910L318.253310,236.472010Q316.074920,236.198570,315.199920,235.460290Q314.324920,234.722000,314.324920,233.218100Q314.324920,231.595700,315.436900,230.811840Q316.548880,230.027990,318.845760,230.027990Q319.748110,230.027990,320.741600,230.164700Q321.735090,230.301420,322.901760,230.593090Z" fill="rgb(255,255,255)" stroke="none" stroke-width="1"/><path id="ezr8dj9haew10" d="M336.190840,229.526700L336.190840,237.830100L337.448660,237.830100Q339.599700,237.830100,340.729910,236.763690Q341.869240,235.697290,341.869240,233.664730Q341.869240,231.641290,340.739030,230.584000Q339.608820,229.526700,337.448660,229.526700ZM332.681720,226.874350L336.382250,226.874350Q339.481210,226.874350,340.994240,227.320970Q342.516380,227.758470,343.601010,228.815760Q344.558050,229.736340,345.022890,230.939470Q345.487740,232.142590,345.487740,233.664730Q345.487740,235.205100,345.022890,236.417340Q344.558050,237.620470,343.601010,238.541040Q342.507260,239.598340,340.976010,240.044950Q339.444760,240.482450,336.382250,240.482450L332.681720,240.482450Z" fill="rgb(255,255,255)" stroke="none" stroke-width="1"/><path id="ezr8dj9haew11" d="M348.367950,236.955100L351.649200,236.955100L351.649200,240.482450L348.367950,240.482450Z" fill="rgb(255,255,255)" stroke="none" stroke-width="1"/><path id="ezr8dj9haew12" d="M361.766410,226.874350L371.236480,226.874350L371.236480,229.526700L365.275530,229.526700L365.275530,232.060560L370.881010,232.060560L370.881010,234.712910L365.275530,234.712910L365.275530,237.830100L371.437000,237.830100L371.437000,240.482450L361.766410,240.482450Z" fill="rgb(255,255,255)" stroke="none" stroke-width="1"/><path id="ezr8dj9haew13" d="M383.832860,231.969420Q384.452650,231.021500,385.300310,230.529310Q386.157080,230.028010,387.177920,230.028010Q388.937030,230.028010,389.857610,231.112640Q390.778180,232.197280,390.778180,234.266290L390.778180,240.482450L387.496930,240.482450L387.496930,235.159530Q387.505930,235.041040,387.505930,234.913430Q387.514930,234.785830,387.514930,234.548850Q387.514930,233.464210,387.195910,232.981140Q386.876900,232.488950,386.165960,232.488950Q385.236280,232.488950,384.725860,233.254570Q384.224560,234.020200,384.206330,235.469420L384.206330,240.482450L380.925070,240.482450L380.925070,235.159530Q380.925070,233.464210,380.633400,232.981140Q380.341740,232.488950,379.594340,232.488950Q378.655530,232.488950,378.145120,233.263690Q377.634700,234.029320,377.634700,235.460310L377.634700,240.482450L374.353440,240.482450L374.353440,230.274100L377.634700,230.274100L377.634700,231.768890Q378.236260,230.903010,379.011000,230.465510Q379.794860,230.028010,380.733660,230.028010Q381.790960,230.028010,382.602160,230.538420Q383.413360,231.048840,383.832630,231.969420Z" fill="rgb(255,255,255)" stroke="none" stroke-width="1"/><path id="ezr8dj9haew14" d="M398.680540,232.361340Q397.595900,232.361340,397.021680,233.145200Q396.456580,233.919940,396.456580,235.387390Q396.456580,236.854840,397.021680,237.638700Q397.595900,238.413440,398.680540,238.413440Q399.746950,238.413440,400.312050,237.638700Q400.877160,236.854840,400.877160,235.387390Q400.877160,233.919940,400.312050,233.145200Q399.746950,232.361340,398.680540,232.361340ZM398.680540,230.028010Q401.314660,230.028010,402.791220,231.449880Q404.276900,232.871760,404.276900,235.387390Q404.276900,237.903020,402.791220,239.324900Q401.314660,240.746780,398.680540,240.746780Q396.037300,240.746780,394.542510,239.324900Q393.056830,237.903020,393.056830,235.387390Q393.056830,232.871760,394.542510,231.449880Q396.037300,230.028010,398.680540,230.028010Z" fill="rgb(255,255,255)" stroke="none" stroke-width="1"/></g></g><g id="ezr8dj9haew15" transform="matrix(1 0 0 1 -457.45999999999998 -1.63419000000000)"><path id="ezr8dj9haew16" d="M1040,200L1260,200L1260,260L1040,260Z" fill="rgb(255,255,255)" fill-opacity="0" stroke="rgb(0,0,0)" stroke-width="2" stroke-opacity="0"/></g><g id="ezr8dj9haew17" transform="matrix(1 0 0 1 -457.45999999999998 -1.63419000000000)"><path id="ezr8dj9haew18" d="M1060,269.300000L1260,269.300000L1260,320L1060,320Z" fill="rgb(255,255,255)" fill-opacity="0" stroke="rgb(0,0,0)" stroke-width="2" stroke-opacity="0"/></g></g><g id="ezr8dj9haew19" transform="matrix(1 0 0 1 -462.54000854499969 -104.56382369999994)"><path id="ezr8dj9haew20" d="M1072.539600,148.365810C1072.539600,170.465810,1054.639600,188.365810,1032.539600,188.365810C1010.439600,188.365810,992.539560,170.465810,992.539560,148.365810C992.539560,126.265810,1010.439600,108.365810,1032.539600,108.365810C1054.639600,108.365810,1072.539600,126.265810,1072.539600,148.365810Z" fill="rgb(255,255,255)" stroke="rgb(36,41,46)" stroke-width="4"/><path id="ezr8dj9haew21" d="M1012.539600,162.165810L1031.539600,155.265810L1053.079600,162.165810L1042.539600,187.665810L1022.539600,187.665810Z" fill="rgb(255,255,255)" stroke="rgb(36,41,46)" stroke-width="2"/><path id="ezr8dj9haew22" d="M1053.079600,138.365810C1053.079600,149.415810,1044.009600,158.365810,1032.809600,158.365810C1021.609600,158.365810,1012.539600,149.415810,1012.539600,138.365810C1012.539600,127.315810,1021.619600,118.365810,1032.809600,118.365810C1044.009600,118.365810,1053.079600,127.315810,1053.079600,138.365810Z" fill="rgb(255,255,255)" stroke="rgb(36,41,46)" stroke-width="2"/></g><g id="ezr8dj9haew23" transform="matrix(1 0 0 1 -462.54000854499981 -107.69081670999992)" opacity="0"><g id="ezr8dj9haew24" transform="matrix(1 0 0 1 -286.59199999999998 -296.38299999999998)"><g id="ezr8dj9haew25" transform="matrix(1 0 0 1 711.06799999999998 399.65699999999998)"><text id="ezr8dj9haew26" dx="0" dy="0" font-family="sans-serif" font-size="16" font-weight="bold" transform="matrix(1 0 0 1 148.52960999999999 226.89950550000003)" fill="rgb(36,41,46)" stroke="none" stroke-width="1"><![CDATA[/Public/Apps/My App]]></text><g id="ezr8dj9haew27"><text id="ezr8dj9haew28" dx="0" dy="0" font-family="sans-serif" font-size="16" font-weight="bold" transform="matrix(1 0 0 1 148.16131440999996 252.25634817000000)" fill="rgb(36,41,46)" stroke="none" stroke-width="1"><![CDATA[/Public/Apps/My App/Common]]></text></g><g id="ezr8dj9haew29"><text id="ezr8dj9haew30" dx="0" dy="0" font-family="sans-serif" font-size="16" font-weight="bold" transform="matrix(1 0 0 1 148.16131440999999 280.20161085000001)" fill="rgb(36,41,46)" stroke="none" stroke-width="1"><![CDATA[/Public/Apps/My App/Common/StartupService]]></text></g></g></g><g id="ezr8dj9haew31" transform="matrix(1 0 0 1 -169.38900000000001 -367.87599999999998)"/><g id="ezr8dj9haew32" transform="matrix(1 0 0 1 376.35000000000002 33.70520000000000)"><text id="ezr8dj9haew33" dx="0" dy="0" font-family="sans-serif" font-size="16" transform="matrix(1 0 0 1 163.48599999999982 251.70646600000001)" fill="rgb(36,41,46)" stroke="none" stroke-width="1"><![CDATA[Some server-side components have not been deployed. ]]></text></g><g id="ezr8dj9haew34" transform="matrix(1 0 0 1 -167.99779558500001 -371.47562066000000)"><text id="ezr8dj9haew35" dx="0" dy="0" font-family="sans-serif" font-size="20" font-weight="bold" transform="matrix(1 0 0 1 708.77129558999991 817.89405466500011)" fill="rgb(36,41,46)" stroke="none" stroke-width="1"><![CDATA[Deploy them now? ]]></text><text id="ezr8dj9haew36" dx="0" dy="0" font-family="sans-serif" font-size="20" font-weight="bold" transform="matrix(1 0 0 1 708.77129558999991 817.89405466500011)" opacity="0" fill="rgb(36,41,46)" stroke="none" stroke-width="1"><![CDATA[Deployment completed.]]></text><text id="ezr8dj9haew37" dx="0" dy="0" font-family="sans-serif" font-size="18.666700" font-weight="bold" transform="matrix(1 0 0 1 765.46529750000002 616.30237499999998)" fill="rgb(36,41,46)" stroke="none" stroke-width="1"><![CDATA[/Public/Apps/My App]]></text><text id="ezr8dj9haew38" dx="0" dy="0" font-family="sans-serif" font-size="18.666700" transform="matrix(1 0 0 1 709.22500000000002 616.30237499999998)" fill="rgb(36,41,46)" stroke="none" stroke-width="1"><![CDATA[Root:]]></text></g><path id="ezr8dj9haew39" d="M563.729100,418.381180L563.729100,417.309750L561.586230,417.309750L561.586230,415.166890L560.514820,415.166890L560.514820,417.309750L558.907670,417.309750L558.907670,415.166890L557.836240,415.166890L557.836240,417.309750L555.693390,417.309750L555.693390,418.381180L557.836240,418.381180L557.836240,419.988320L555.693390,419.988320L555.693390,421.059750L557.836240,421.059750L557.836240,423.202600L558.907670,423.202600L558.907670,421.059750L560.514820,421.059750L560.514820,423.202600L561.586230,423.202600L561.586230,421.059750L563.729100,421.059750L563.729100,419.988320L561.586230,419.988320L561.586230,418.381180ZM560.514820,419.988320L558.907670,419.988320L558.907670,418.381180L560.514820,418.381180ZM570.693380,425.345470L570.693380,424.274040L568.550520,424.274040L568.550520,422.131190L567.479090,422.131190L567.479090,424.274040L565.871960,424.274040L565.871960,422.131190L564.800520,422.131190L564.800520,424.274040L562.657670,424.274040L562.657670,425.345470L564.800520,425.345470L564.800520,426.952610L562.657670,426.952610L562.657670,428.024040L564.800520,428.024040L564.800520,430.166890L565.871960,430.166890L565.871960,428.024040L567.479090,428.024040L567.479090,430.166890L568.550520,430.166890L568.550520,428.024040L570.693380,428.024040L570.693380,426.952610L568.550520,426.952610L568.550520,425.345470ZM567.479090,426.952610L565.871960,426.952610L565.871960,425.345470L567.479090,425.345470Z" transform="matrix(1 0 0 1 -14.46618558999999 -46.75418914999995)" fill="rgb(0,0,0)" stroke="none" stroke-width="0.999999"/><path id="ezr8dj9haew40" d="M560.833840,378.007470L562.665980,379.834250L562.976700,380.150320L569.849910,380.150320L569.849910,388.721750L556.992770,388.721750L556.992770,378.007470L560.833840,378.007470M560.833840,376.936040L556.992770,376.936040C556.708609,376.936040,556.436086,377.048922,556.235154,377.249854C556.034222,377.450786,555.921340,377.723309,555.921340,378.007470L555.921340,388.721750C555.921340,389.005911,556.034222,389.278434,556.235154,389.479366C556.436086,389.680298,556.708609,389.793180,556.992770,389.793180L569.849910,389.793180C570.134071,389.793180,570.406594,389.680298,570.607526,389.479366C570.808458,389.278434,570.921340,389.005911,570.921340,388.721750L570.921340,380.150320C570.921335,379.558589,570.441641,379.078899,569.849910,379.078900L563.421340,379.078900L561.594550,377.252110C561.393231,377.049590,561.119398,376.935814,560.833840,376.936040Z" transform="matrix(1 0 0 1 -14.69413559000002 -33.44363665999992)" fill="rgb(0,0,0)" stroke="none" stroke-width="1"/><path id="ezr8dj9haew41" d="M561.059570,343.335460L562.891710,345.162240L563.202430,345.478310L570.075640,345.478310L570.075640,354.049740L557.218500,354.049740L557.218500,343.335460L561.059570,343.335460M561.059570,342.264030L557.218500,342.264030C556.934339,342.264030,556.661816,342.376912,556.460884,342.577844C556.259952,342.778776,556.147070,343.051299,556.147070,343.335460L556.147070,354.049740C556.147070,354.333901,556.259952,354.606424,556.460884,354.807356C556.661816,355.008288,556.934339,355.121170,557.218500,355.121170L570.075640,355.121170C570.359801,355.121170,570.632324,355.008288,570.833256,354.807356C571.034188,354.606424,571.147070,354.333901,571.147070,354.049740L571.147070,345.478310C571.147065,344.886579,570.667371,344.406889,570.075640,344.406890L563.647070,344.406890L561.820280,342.580100C561.618961,342.377580,561.345128,342.263804,561.059570,342.264030Z" transform="matrix(1 0 0 1 -14.91989000000001 -26.22409449999992)" fill="rgb(0,0,0)" stroke="none" stroke-width="1"/><path id="ezr8dj9haew42" d="M775.422070,339.918980C771.297070,339.918980,767.922070,343.293980,767.922070,347.418980C767.922070,351.543980,771.297070,354.918980,775.422070,354.918980C779.547070,354.918980,782.922070,351.543980,782.922070,347.418980C782.922070,343.293980,779.547070,339.918980,775.422070,339.918980ZM774.350640,350.365410L771.672070,347.686840L772.529220,346.883270L774.350640,348.704690L778.314930,344.740410L779.172070,345.597550Z" transform="matrix(1 0 0 1 -20.19100558999997 -22.22816328999991)" opacity="0" fill="rgb(0,0,0)" stroke="none" stroke-width="1"/><path id="ezr8dj9haew43" d="M852.676300,374.871320C848.551300,374.871320,845.176300,378.246320,845.176300,382.371320C845.176300,386.496320,848.551300,389.871320,852.676300,389.871320C856.801300,389.871320,860.176300,386.496320,860.176300,382.371320C860.176300,378.246320,856.801300,374.871320,852.676300,374.871320ZM851.604870,385.317750L848.926300,382.639180L849.783450,381.835610L851.604870,383.657030L855.569160,379.692750L856.426300,380.549890Z" transform="matrix(1 0 0 1 -26.87727659000005 -33.52177666499998)" opacity="0" fill="rgb(0,0,0)" stroke="none" stroke-width="1"/><path id="ezr8dj9haew44" d="M987.493000,414.588810C983.368000,414.588810,979.993000,417.963810,979.993000,422.088810C979.993000,426.213810,983.368000,429.588810,987.493000,429.588810C991.618000,429.588810,994.993000,426.213810,994.993000,422.088810C994.993000,417.963810,991.618000,414.588810,987.493000,414.588810ZM986.421600,425.035240L983.743000,422.356670L984.600100,421.553100L986.421600,423.374520L990.385800,419.410240L991.243000,420.267380Z" transform="matrix(1 0 0 1 -40.98551758999990 -45.70694914999996)" opacity="0" fill="rgb(0,0,0)" stroke="none" stroke-width="1"/><g id="ezr8dj9haew45" transform="matrix(1 0 0 1 -30.83680000000000 -9.41858000000000)"><g id="ezr8dj9haew46" transform="matrix(1 0 0 1 -304.04654556999924 149.28092759999947)"><rect id="ezr8dj9haew47" width="70.776500" height="29.000842" rx="0" ry="0" transform="matrix(1 0 0 1.00131413258570 957.13671307000050 333.15828699000053)" fill="rgb(36,41,46)" stroke="none" stroke-width="4" stroke-linecap="round" stroke-linejoin="round"/><rect id="ezr8dj9haew48" width="70.776500" height="29.000842" rx="0" ry="0" transform="matrix(1 0 0 1.00131413258570 876.11052557000085 333.15828699000053)" fill="rgb(255,255,255)" stroke="rgb(36,41,46)" stroke-width="2" stroke-linecap="round" stroke-linejoin="round"/><text id="ezr8dj9haew49" dx="0" dy="0" font-family="sans-serif" font-size="18" font-weight="bold" transform="matrix(1 0 0 1 895.67065056999968 353.85745080000004)" fill="rgb(36,41,46)" stroke="none" stroke-width="1"><![CDATA[nah]]></text><text id="ezr8dj9haew50" dx="0" dy="0" font-family="sans-serif" font-size="18.666700" font-weight="bold" transform="matrix(1 0 0 1 972.80621306999967 354.04495080000004)" fill="rgb(255,255,255)" stroke="none" stroke-width="1"><![CDATA[sure]]></text></g></g></g><path id="ezr8dj9haew51" d="M802.350640,340.365410L799.672070,337.686840L800.529220,336.883270L802.350640,338.704690L806.314930,334.740410L807.172070,335.597550Z" transform="matrix(1 0 0 1 -462.54000854499969 -104.56382369999994)" opacity="0" fill="rgb(0,0,0)" stroke="none" stroke-width="1"/><path id="ezr8dj9haew52" d="M879.604870,375.317750L876.926300,372.639180L877.783450,371.835610L879.604870,373.657030L883.569160,369.692750L884.426300,370.549890Z" transform="matrix(1 0 0 1 -462.31425413499971 -111.78336585999995)" opacity="0" fill="rgb(0,0,0)" stroke="none" stroke-width="1"/><path id="ezr8dj9haew53" d="M1001.841100,414.866250L999.162520,412.187680L1000.019600,411.384110L1001.841100,413.205530L1005.805300,409.241250L1006.662500,410.098390Z" transform="matrix(1 0 0 1 -462.54000854499969 -104.56382369999994)" opacity="0" fill="rgb(0,0,0)" stroke="none" stroke-width="1"/><g id="ezr8dj9haew54_to" transform="translate(558.370696,175.085157)"><path id="ezr8dj9haew54" d="M56.978447,66.380975L62.759363,79.520591L56.550742,82.050000L50.769826,68.910384L41.594863,81.151394L41.456894,39.382859L72.500000,68.497691Z" transform="translate(0,0)" opacity="0" fill="rgb(36,41,46)" stroke="rgb(255,255,255)" stroke-width="3"/></g></svg>