<svg id="e0e2ul9958b21" xmlns="http://www.w3.org/2000/svg" xmlns:xlink="http://www.w3.org/1999/xlink" viewBox="0 0 800 450" shape-rendering="geometricPrecision" text-rendering="geometricPrecision"><style><![CDATA[#e0e2ul9958b236 {animation: e0e2ul9958b236_c_o 10000ms linear infinite normal forwards}@keyframes e0e2ul9958b236_c_o { 0% {opacity: 0} 2% {opacity: 1} 89% {opacity: 1} 94% {opacity: 0} 100% {opacity: 0} }#e0e2ul9958b237 {animation: e0e2ul9958b237_c_o 10000ms linear infinite normal forwards}@keyframes e0e2ul9958b237_c_o { 0% {opacity: 1} 51% {opacity: 1} 52% {opacity: 0} 100% {opacity: 0} }#e0e2ul9958b245 {animation: e0e2ul9958b245_c_o 10000ms linear infinite normal forwards}@keyframes e0e2ul9958b245_c_o { 0% {opacity: 0} 13% {opacity: 0;animation-timing-function: step-end} 14% {opacity: 1;animation-timing-function: step-end} 34% {opacity: 1} 35% {opacity: 0} 100% {opacity: 0} }#e0e2ul9958b247 {animation: e0e2ul9958b247_c_o 10000ms linear infinite normal forwards}@keyframes e0e2ul9958b247_c_o { 0% {opacity: 0} 8% {opacity: 0;animation-timing-function: step-end} 10% {opacity: 1;animation-timing-function: step-end} 12% {opacity: 0;animation-timing-function: step-end} 14% {opacity: 1} 100% {opacity: 1} }#e0e2ul9958b248 {animation: e0e2ul9958b248_c_o 10000ms linear infinite normal forwards}@keyframes e0e2ul9958b248_c_o { 0% {opacity: 1} 44% {opacity: 1} 47% {opacity: 0} 100% {opacity: 0} }#e0e2ul9958b249_to {animation: e0e2ul9958b249_to__to 10000ms linear infinite normal forwards}@keyframes e0e2ul9958b249_to__to { 0% {transform: translate(0px,0px)} 36% {transform: translate(0px,0px);animation-timing-function: cubic-bezier(0.445000,0.050000,0.550000,0.950000)} 39% {transform: translate(-0px,6.516353px);animation-timing-function: cubic-bezier(0.445000,0.050000,0.550000,0.950000)} 42% {transform: translate(0px,0px);animation-timing-function: cubic-bezier(0.445000,0.050000,0.550000,0.950000)} 45% {transform: translate(-0px,6.516353px);animation-timing-function: cubic-bezier(0.445000,0.050000,0.550000,0.950000)} 48% {transform: translate(0px,0px)} 100% {transform: translate(0px,0px)} }#e0e2ul9958b249 {animation: e0e2ul9958b249_c_o 10000ms linear infinite normal forwards}@keyframes e0e2ul9958b249_c_o { 0% {opacity: 1} 47% {opacity: 1} 48% {opacity: 0} 100% {opacity: 0} }#e0e2ul9958b250 {animation: e0e2ul9958b250_c_o 10000ms linear infinite normal forwards}@keyframes e0e2ul9958b250_c_o { 0% {opacity: 0} 49% {opacity: 0} 50% {opacity: 1} 71% {opacity: 1} 72% {opacity: 0} 100% {opacity: 0} }#e0e2ul9958b251 {animation: e0e2ul9958b251_c_o 10000ms linear infinite normal forwards}@keyframes e0e2ul9958b251_c_o { 0% {opacity: 0} 50% {opacity: 0} 51% {opacity: 1} 100% {opacity: 1} }#e0e2ul9958b256 {animation: e0e2ul9958b256_c_o 10000ms linear infinite normal forwards}@keyframes e0e2ul9958b256_c_o { 0% {opacity: 0} 53% {opacity: 0} 54% {opacity: 1} 89% {opacity: 1} 93% {opacity: 0} 100% {opacity: 0} }#e0e2ul9958b261 {animation: e0e2ul9958b261_c_o 10000ms linear infinite normal forwards}@keyframes e0e2ul9958b261_c_o { 0% {opacity: 1} 70% {opacity: 1} 71% {opacity: 0} 100% {opacity: 0} }#e0e2ul9958b262 {animation: e0e2ul9958b262_c_o 10000ms linear infinite normal forwards}@keyframes e0e2ul9958b262_c_o { 0% {opacity: 0} 55% {opacity: 0} 56% {opacity: 1} 89% {opacity: 1} 93% {opacity: 0} 100% {opacity: 0} }#e0e2ul9958b269_to {animation: e0e2ul9958b269_to__to 10000ms linear infinite normal forwards}@keyframes e0e2ul9958b269_to__to { 0% {transform: translate(303.175168px,228.558567px)} 24% {transform: translate(303.175168px,228.558567px)} 31% {transform: translate(272.132061px,4.419127px)} 89% {transform: translate(272.132061px,4.419127px)} 98% {transform: translate(303.175168px,228.558567px)} 100% {transform: translate(303.175168px,228.558567px)} }#e0e2ul9958b269 {animation: e0e2ul9958b269_c_o 10000ms linear infinite normal forwards}@keyframes e0e2ul9958b269_c_o { 0% {opacity: 0} 1% {opacity: 0} 3% {opacity: 1} 47.100000% {opacity: 1} 49.100000% {opacity: 0} 100% {opacity: 0} }]]></style><g id="e0e2ul9958b22" transform="matrix(1 0 0 1 -22.54000854499975 -184.56382369999994)"><g id="e0e2ul9958b23" transform="matrix(1 0 0 1 -457.45999999999998 -1.63419000000000)"><path id="e0e2ul9958b24" d="M500,200L1260,200L1260,632.396000L500,632.396000Z" fill="rgb(255,255,255)" stroke="rgb(36,41,46)" stroke-width="4"/><path id="e0e2ul9958b25" d="M499.999980,200L1260,200L1260,260L499.999980,260Z" fill="rgb(36,41,46)" stroke="rgb(36,41,46)" stroke-width="2" stroke-opacity="0"/><g id="e0e2ul9958b26" transform="matrix(1 0 0 1 816.84400000000005 -2.70642000000000)"><path id="e0e2ul9958b27" d="M298.501970,227.302740L298.501970,230.182950Q297.380880,229.681650,296.314470,229.426440Q295.248060,229.171230,294.300140,229.171230Q293.042330,229.171230,292.440760,229.517590Q291.839200,229.863940,291.839200,230.593110Q291.839200,231.139990,292.240240,231.449880Q292.650400,231.750670,293.716810,231.969420L295.211600,232.270200Q297.481140,232.725930,298.438170,233.655620Q299.395200,234.585310,299.395200,236.298850Q299.395200,238.550160,298.055360,239.653020Q296.724630,240.746780,293.981130,240.746780Q292.686860,240.746780,291.383470,240.500680Q290.080080,240.254590,288.776700,239.771510L288.776700,236.809270Q290.080080,237.501980,291.292320,237.857450Q292.513680,238.203800,293.643890,238.203800Q294.792330,238.203800,295.403010,237.820990Q296.013690,237.438180,296.013690,236.727240Q296.013690,236.089210,295.594420,235.742860Q295.184260,235.396510,293.944670,235.123070L292.586600,234.822290Q290.544930,234.384780,289.597010,233.427750Q288.658210,232.470720,288.658210,230.848320Q288.658210,228.815760,289.970710,227.722010Q291.283210,226.628260,293.744150,226.628260Q294.865250,226.628260,296.050150,226.801440Q297.235040,226.965500,298.501970,227.302740Z" fill="rgb(255,255,255)" stroke="none" stroke-width="1"/><path id="e0e2ul9958b28" d="M306.905630,235.888690Q305.884800,235.888690,305.365270,236.235050Q304.854850,236.581400,304.854850,237.255880Q304.854850,237.875680,305.265010,238.231150Q305.684280,238.577500,306.422560,238.577500Q307.343130,238.577500,307.972040,237.921250Q308.600950,237.255880,308.600950,236.262390L308.600950,235.888690ZM311.891320,234.658220L311.891320,240.482450L308.600950,240.482450L308.600950,238.969430Q307.944700,239.899120,307.124380,240.327500Q306.304070,240.746780,305.128290,240.746780Q303.542350,240.746780,302.548860,239.826200Q301.564480,238.896510,301.564480,237.419950Q301.564480,235.624370,302.794950,234.785830Q304.034540,233.947280,306.677770,233.947280L308.600950,233.947280L308.600950,233.692070Q308.600950,232.917330,307.990270,232.561860Q307.379590,232.197280,306.085320,232.197280Q305.037140,232.197280,304.134800,232.406920Q303.232450,232.616550,302.457710,233.035820L302.457710,230.547540Q303.505890,230.292330,304.563180,230.164720Q305.620480,230.028010,306.677770,230.028010Q309.439490,230.028010,310.660850,231.121760Q311.891320,232.206400,311.891320,234.658220Z" fill="rgb(255,255,255)" stroke="none" stroke-width="1"/><path id="e0e2ul9958b29" d="M322.901760,230.593110L322.901760,233.072280Q321.853580,232.634780,320.878320,232.416030Q319.903050,232.197280,319.037170,232.197280Q318.107480,232.197280,317.651750,232.434260Q317.205130,232.662130,317.205130,233.145200Q317.205130,233.537130,317.542370,233.746760Q317.888730,233.956400,318.772840,234.056660L319.347060,234.138660Q321.853580,234.457670,322.719470,235.186840Q323.585350,235.916010,323.585350,237.474600Q323.585350,239.106120,322.382230,239.926430Q321.179100,240.746750,318.791070,240.746750Q317.779350,240.746750,316.694720,240.582680Q315.619190,240.427730,314.479870,240.108720L314.479870,237.629550Q315.455130,238.103510,316.475970,238.340490Q317.505920,238.577470,318.563210,238.577470Q319.520240,238.577470,320.003320,238.313150Q320.486390,238.048820,320.486390,237.529290Q320.486390,237.091790,320.149150,236.882150Q319.821020,236.663400,318.827530,236.544910L318.253310,236.472010Q316.074920,236.198570,315.199920,235.460290Q314.324920,234.722000,314.324920,233.218100Q314.324920,231.595700,315.436900,230.811840Q316.548880,230.027990,318.845760,230.027990Q319.748110,230.027990,320.741600,230.164700Q321.735090,230.301420,322.901760,230.593090Z" fill="rgb(255,255,255)" stroke="none" stroke-width="1"/><path id="e0e2ul9958b210" d="M336.190840,229.526700L336.190840,237.830100L337.448660,237.830100Q339.599700,237.830100,340.729910,236.763690Q341.869240,235.697290,341.869240,233.664730Q341.869240,231.641290,340.739030,230.584000Q339.608820,229.526700,337.448660,229.526700ZM332.681720,226.874350L336.382250,226.874350Q339.481210,226.874350,340.994240,227.320970Q342.516380,227.758470,343.601010,228.815760Q344.558050,229.736340,345.022890,230.939470Q345.487740,232.142590,345.487740,233.664730Q345.487740,235.205100,345.022890,236.417340Q344.558050,237.620470,343.601010,238.541040Q342.507260,239.598340,340.976010,240.044950Q339.444760,240.482450,336.382250,240.482450L332.681720,240.482450Z" fill="rgb(255,255,255)" stroke="none" stroke-width="1"/><path id="e0e2ul9958b211" d="M348.367950,236.955100L351.649200,236.955100L351.649200,240.482450L348.367950,240.482450Z" fill="rgb(255,255,255)" stroke="none" stroke-width="1"/><path id="e0e2ul9958b212" d="M361.766410,226.874350L371.236480,226.874350L371.236480,229.526700L365.275530,229.526700L365.275530,232.060560L370.881010,232.060560L370.881010,234.712910L365.275530,234.712910L365.275530,237.830100L371.437000,237.830100L371.437000,240.482450L361.766410,240.482450Z" fill="rgb(255,255,255)" stroke="none" stroke-width="1"/><path id="e0e2ul9958b213" d="M383.832860,231.969420Q384.452650,231.021500,385.300310,230.529310Q386.157080,230.028010,387.177920,230.028010Q388.937030,230.028010,389.857610,231.112640Q390.778180,232.197280,390.778180,234.266290L390.778180,240.482450L387.496930,240.482450L387.496930,235.159530Q387.505930,235.041040,387.505930,234.913430Q387.514930,234.785830,387.514930,234.548850Q387.514930,233.464210,387.195910,232.981140Q386.876900,232.488950,386.165960,232.488950Q385.236280,232.488950,384.725860,233.254570Q384.224560,234.020200,384.206330,235.469420L384.206330,240.482450L380.925070,240.482450L380.925070,235.159530Q380.925070,233.464210,380.633400,232.981140Q380.341740,232.488950,379.594340,232.488950Q378.655530,232.488950,378.145120,233.263690Q377.634700,234.029320,377.634700,235.460310L377.634700,240.482450L374.353440,240.482450L374.353440,230.274100L377.634700,230.274100L377.634700,231.768890Q378.236260,230.903010,379.011000,230.465510Q379.794860,230.028010,380.733660,230.028010Q381.790960,230.028010,382.602160,230.538420Q383.413360,231.048840,383.832630,231.969420Z" fill="rgb(255,255,255)" stroke="none" stroke-width="1"/><path id="e0e2ul9958b214" d="M398.680540,232.361340Q397.595900,232.361340,397.021680,233.145200Q396.456580,233.919940,396.456580,235.387390Q396.456580,236.854840,397.021680,237.638700Q397.595900,238.413440,398.680540,238.413440Q399.746950,238.413440,400.312050,237.638700Q400.877160,236.854840,400.877160,235.387390Q400.877160,233.919940,400.312050,233.145200Q399.746950,232.361340,398.680540,232.361340ZM398.680540,230.028010Q401.314660,230.028010,402.791220,231.449880Q404.276900,232.871760,404.276900,235.387390Q404.276900,237.903020,402.791220,239.324900Q401.314660,240.746780,398.680540,240.746780Q396.037300,240.746780,394.542510,239.324900Q393.056830,237.903020,393.056830,235.387390Q393.056830,232.871760,394.542510,231.449880Q396.037300,230.028010,398.680540,230.028010Z" fill="rgb(255,255,255)" stroke="none" stroke-width="1"/></g></g><g id="e0e2ul9958b215" transform="matrix(1 0 0 1 -457.45999999999998 -1.63419000000000)"><path id="e0e2ul9958b216" d="M1040,200L1260,200L1260,260L1040,260Z" fill="rgb(255,255,255)" fill-opacity="0" stroke="rgb(0,0,0)" stroke-width="2" stroke-opacity="0"/></g><g id="e0e2ul9958b217" transform="matrix(1 0 0 1 -457.45999999999998 -1.63419000000000)"><path id="e0e2ul9958b218" d="M1060,269.300000L1260,269.300000L1260,320L1060,320Z" fill="rgb(255,255,255)" fill-opacity="0" stroke="rgb(0,0,0)" stroke-width="2" stroke-opacity="0"/></g></g><g id="e0e2ul9958b219" display="none" transform="matrix(1 0 0 1 -462.54000854499969 -104.56382369999994)"><rect id="e0e2ul9958b220" width="296.113000" height="56.591700" rx="28.295862" ry="28.295862" transform="matrix(1 0 0 1 681.22199999999998 119.17800000000000)" fill="rgb(255,255,255)" stroke="rgb(36,41,46)" stroke-width="4.000010" stroke-linecap="round" stroke-linejoin="round"/><path id="e0e2ul9958b221" d="M710.574490,150.547980C707.501765,145.891923,705.696520,140.514968,705.336990,134.947990L705.336990,134.847990C705.336990,134.516469,705.468686,134.198527,705.703106,133.964106C705.937527,133.729686,706.255469,133.597990,706.586990,133.597990L713.186990,133.597990L715.061990,138.310490L711.511990,141.897990L711.586990,142.497990C711.893451,144.326891,712.510696,146.089843,713.411990,147.710480L715.236990,145.885480C714.738705,144.890870,714.385130,143.830149,714.186990,142.735490L716.849490,140.047990C717.557020,139.339364,717.773444,138.276918,717.399490,137.347990L715.499490,132.672990C715.120422,131.721187,714.199000,131.096998,713.174490,131.097990L706.286990,131.097990C705.293550,131.174537,704.371416,131.643299,703.724137,132.400804C703.076858,133.158308,702.757656,134.142269,702.836990,135.135490C703.277870,141.301046,705.343736,147.239868,708.824490,152.347980ZM733.799490,150.922980L729.086990,149.035480C728.161915,148.646391,727.093833,148.848194,726.374490,149.547980L723.661990,152.235480C721.732711,151.902140,719.920970,151.080187,718.399490,149.847980L736.586990,131.610490L734.824490,129.847990L701.586990,163.085490L703.349490,164.847990L712.099490,156.097990C716.324490,160.072990,722.449490,163.122990,731.336990,163.597990L731.586990,163.597990C732.581552,163.597990,733.535379,163.202902,734.238641,162.499641C734.941902,161.796379,735.336990,160.842552,735.336990,159.847990L735.336990,153.247980C735.344172,152.232670,734.736570,151.313859,733.799490,150.922980ZM732.836990,159.847990L732.836990,159.922990C732.817685,160.254729,732.667083,160.565128,732.418460,160.785605C732.169837,161.006082,731.843657,161.118489,731.511990,161.097990C723.374490,160.635490,717.761990,157.922990,713.874490,154.322990L716.586990,151.647980C718.655199,153.436266,721.218884,154.552432,723.936990,154.847990L724.536990,154.922990L728.124490,151.360480L732.836990,153.247980Z" fill="rgb(36,41,46)" stroke="none" stroke-width="1"/><g id="e0e2ul9958b222" transform="matrix(1 0 0 1 -182.74199999999999 -385.50599999999997)"><text id="e0e2ul9958b223" dx="0" dy="0" font-family="sans-serif" font-size="16" font-weight="bold" transform="matrix(1 0 0 1 937.97134699999992 527.81837999999993)" fill="rgb(36,41,46)" stroke="none" stroke-width="1"><![CDATA[App is offline.]]></text><text id="e0e2ul9958b224" dx="0" dy="0" font-family="sans-serif" font-size="16" font-weight="bold" transform="matrix(1 0 0 1 937.97134699999992 547.52932750000002)" fill="rgb(36,41,46)" stroke="none" stroke-width="1"><![CDATA[Changes saved locally.]]></text></g></g><g id="e0e2ul9958b225" display="none" transform="matrix(1 0 0 1 -462.54000854499969 -104.56382369999994)"><rect id="e0e2ul9958b226" width="296.113000" height="56.591700" rx="28.295862" ry="28.295862" transform="matrix(1 0 0 1 681.22199999999998 119.17800000000000)" fill="rgb(255,255,255)" stroke="rgb(36,41,46)" stroke-width="4.000010" stroke-linecap="round" stroke-linejoin="round"/><g id="e0e2ul9958b227" transform="matrix(1 0 0 1 -182.74199999999999 -385.50599999999997)"><text id="e0e2ul9958b228" dx="0" dy="0" font-family="sans-serif" font-size="16" font-weight="bold" transform="matrix(1 0 0 1 937.97134699999992 527.81837999999993)" fill="rgb(36,41,46)" stroke="none" stroke-width="1"><![CDATA[App is back online!]]></text><text id="e0e2ul9958b229" dx="0" dy="0" font-family="sans-serif" font-size="16" font-weight="bold" transform="matrix(1 0 0 1 937.97134699999992 547.52932750000002)" fill="rgb(36,41,46)" stroke="none" stroke-width="1"><![CDATA[Server your heart out!]]></text></g><path id="e0e2ul9958b230" d="M733.595810,165.790480L733.367050,165.790480C706.924860,164.269890,703.170480,141.958870,702.645670,135.149840C702.560266,134.080611,702.903897,133.021352,703.600711,132.205880C704.297525,131.390408,705.290226,130.885775,706.359690,130.803370L713.774260,130.803370C714.877174,130.802300,715.869112,131.474257,716.277190,132.498900L718.322590,137.531660C718.725160,138.531676,718.492174,139.675425,717.730500,140.438280L714.864250,143.331450C715.781354,148.543114,719.855110,152.627618,725.064340,153.558450L727.984420,150.665280C728.758811,149.911946,729.908624,149.694699,730.904490,150.113560L735.977630,152.145510C736.986421,152.566301,737.640519,153.555423,737.632790,154.648430L737.632790,161.753510C737.632789,162.824182,737.207465,163.851002,736.450384,164.608081C735.693303,165.365160,734.666482,165.790481,733.595810,165.790480ZM706.682640,133.494680C705.939456,133.494685,705.336989,134.097156,705.336990,134.840340L705.336990,134.947990C705.955990,142.914290,709.925680,161.753510,733.515070,163.099170C733.872119,163.121239,734.223261,163.000230,734.490911,162.762880C734.758561,162.525530,734.920688,162.191377,734.941470,161.834250L734.941470,154.648430L729.868340,152.616490L726.006300,156.451610L725.360380,156.370910C713.653150,154.904150,712.065280,143.196920,712.065280,143.075810L711.984580,142.429900L715.806250,138.567860L713.787760,133.494720Z" fill="rgb(36,41,46)" stroke="rgb(36,41,46)" stroke-width="1"/></g><g id="e0e2ul9958b231" transform="matrix(1 0 0 1 -462.54000854499969 -104.56382369999994)"><path id="e0e2ul9958b232" d="M1072.539600,148.365810C1072.539600,170.465810,1054.639600,188.365810,1032.539600,188.365810C1010.439600,188.365810,992.539560,170.465810,992.539560,148.365810C992.539560,126.265810,1010.439600,108.365810,1032.539600,108.365810C1054.639600,108.365810,1072.539600,126.265810,1072.539600,148.365810Z" fill="rgb(255,255,255)" stroke="rgb(36,41,46)" stroke-width="4"/><path id="e0e2ul9958b233" d="M1012.539600,162.165810L1031.539600,155.265810L1053.079600,162.165810L1042.539600,187.665810L1022.539600,187.665810Z" fill="rgb(255,255,255)" stroke="rgb(36,41,46)" stroke-width="2"/><path id="e0e2ul9958b234" d="M1053.079600,138.365810C1053.079600,149.415810,1044.009600,158.365810,1032.809600,158.365810C1021.609600,158.365810,1012.539600,149.415810,1012.539600,138.365810C1012.539600,127.315810,1021.619600,118.365810,1032.809600,118.365810C1044.009600,118.365810,1053.079600,127.315810,1053.079600,138.365810Z" fill="rgb(255,255,255)" stroke="rgb(36,41,46)" stroke-width="2"/></g><g id="e0e2ul9958b235" transform="matrix(1 0 0 1 -462.54000854499969 -104.56382369999994)"><g id="e0e2ul9958b236" opacity="0"><g id="e0e2ul9958b237" transform="matrix(0.46962700000000 0 0 0.46899900000000 169.72000000000000 246.64900000000000)"><g id="e0e2ul9958b238" transform="matrix(1 0 0 1 6.50841900061106 20.97756071974569)"><path id="e0e2ul9958b239" d="M798.748830,252.907130L1058.986100,252.907130L1058.986100,489.689770L798.748830,489.689770Z" transform="matrix(1 0 0 1 -5.40917549459465 9.44684091010848)" fill="rgb(255,255,255)" stroke="rgb(36,41,46)" stroke-width="8.523080"/><path id="e0e2ul9958b240" d="M797.645960,301.982900L1058.758500,301.982900L1059.790900,302.578920" transform="matrix(1 0 0 1 -5.40917549459465 9.44684091010848)" fill="none" stroke="rgb(36,41,46)" stroke-width="8.523100"/><path id="e0e2ul9958b241" d="M869.810380,254.258170L869.810380,486.541670L871.561320,487.003240" transform="matrix(1 0 0 1 -5.40917549459465 9.44684091010848)" fill="none" stroke="rgb(36,41,46)" stroke-width="8.523100"/></g></g><g id="e0e2ul9958b242" transform="matrix(1 0 0 1 18.45200000000000 -20.32860000000000)"><path id="e0e2ul9958b243" d="M526.380300,258.341160L526.380300,346.849260L737.121700,346.849260L736.148450,345.876020" fill="none" stroke="rgb(36,41,46)" stroke-width="4"/><path id="e0e2ul9958b244" d="M526.380300,346.849260C526.380300,346.849260,544.294160,308.822400,560.128710,309.757010C575.963250,310.691610,575.090390,322.288390,588.873660,329.276690C602.656940,336.264990,614.118480,312.321750,636.482750,310.759920C658.847020,309.198080,654.674080,335.206580,673.950010,330.667330C693.225950,326.128080,696.551030,287.896680,713.272220,280.094300C729.993410,272.291930,739.056350,272.834760,739.056350,272.834760" fill="none" stroke="rgb(36,41,46)" stroke-width="4"/></g></g><g id="e0e2ul9958b245" transform="matrix(1 0 0 1 -318.95400000000001 -389.21499999999997)" opacity="0"><text id="e0e2ul9958b246" dx="0" dy="0" font-family="sans-serif" font-size="20" font-weight="bold" transform="matrix(1 0 0 1 935.89920099999995 540.36333750000006)" fill="rgb(254,254,254)" stroke="none" stroke-width="1"><![CDATA[App Update available]]></text></g><g id="e0e2ul9958b247" transform="matrix(1.25120000000000 0 0 1.25120000000000 -378.69400000000002 -657.33900000000006)" opacity="0"><path id="e0e2ul9958b248" d="M778.407300,647.466400L777.907300,647.466400L777.907300,645.466400L778.407300,645.466400C780.892170,645.565177,782.986789,643.631200,783.086183,641.146355C783.185577,638.661510,781.252120,636.566411,778.767300,636.466400L777.907300,636.466400L777.807300,635.646400C777.348394,632.164021,774.379786,629.560949,770.867300,629.560949C767.354814,629.560949,764.386206,632.164021,763.927300,635.646400L763.907300,636.466400L763.047300,636.466400C760.562480,636.566411,758.629023,638.661510,758.728417,641.146355C758.827811,643.631200,760.922430,645.565177,763.407300,645.466400L763.907300,645.466400L763.907300,647.466400L763.407300,647.466400C760.086412,647.445365,757.315439,644.924390,756.981431,641.620275C756.647422,638.316160,758.857807,635.291626,762.107300,634.606400C762.996913,630.457255,766.663857,627.493196,770.907300,627.493196C775.150743,627.493196,778.817687,630.457255,779.707300,634.606400C782.956793,635.291626,785.167178,638.316160,784.833169,641.620275C784.499161,644.924390,781.728188,647.445365,778.407300,647.466400Z" fill="rgb(254,254,254)" stroke="none" stroke-width="0.799234"/><g id="e0e2ul9958b249_to" transform="translate(0,0)"><path id="e0e2ul9958b249" d="M771.907300,651.636400L771.907300,639.466400L769.907300,639.466400L769.907300,651.636400L767.317300,649.056400L765.907300,650.466400L770.907300,655.466400L775.907300,650.466400L774.497300,649.056400Z" transform="translate(0,0)" fill="rgb(254,254,254)" stroke="none" stroke-width="0.799234"/></g><path id="e0e2ul9958b250" d="M770.907300,651.937988L770.907300,651.937988L770.867300,651.937988L770.907300,651.937988L767.317300,648.750931L765.907300,650.466400L770.907300,655.466400L782.587100,644.937396L780.934468,642.679148Z" transform="matrix(1 0 0 1 0 -7.26780278132994)" opacity="0" fill="rgb(254,254,254)" stroke="none" stroke-width="0.799234"/></g></g><g id="e0e2ul9958b251" transform="matrix(1 0 0 1 -462.54000854499969 -104.56382369999994)" opacity="0"><g id="e0e2ul9958b252" transform="matrix(1.25120000000000 0 0 1.25120000000000 -378.69400000000002 -655.12500000000000)"/><g id="e0e2ul9958b253" display="none" transform="matrix(1 0 0 1 18.45200000000000 -20.32850000000000)"><path id="e0e2ul9958b254" d="M526.380300,258.341160L526.380300,346.849260L737.121700,346.849260L736.148450,345.876020" fill="none" stroke="rgb(36,41,46)" stroke-width="4"/><path id="e0e2ul9958b255" d="M526.380300,346.849260C526.380300,346.849260,544.294160,308.822400,560.128710,309.757010C575.963250,310.691610,575.090390,322.288390,588.873660,329.276690C602.656940,336.264990,614.118480,312.321750,636.482750,310.759920C658.847020,309.198080,654.674080,335.206580,673.950010,330.667330C693.225950,326.128080,696.551030,287.896680,713.272220,280.094300C729.993410,272.291930,739.056350,272.834760,739.056350,272.834760" fill="none" stroke="rgb(36,41,46)" stroke-width="4"/></g><g id="e0e2ul9958b256" transform="matrix(0.46962700000000 0 0 0.46899900000000 452.73899999999998 104.43100000000000)" opacity="0"><path id="e0e2ul9958b257" d="M798.748830,252.907130L1058.986100,252.907130L1058.986100,489.689770L798.748830,489.689770Z" fill="rgb(255,255,255)" stroke="rgb(36,41,46)" stroke-width="8.523080"/><path id="e0e2ul9958b258" d="M797.645960,301.982900L1058.758500,301.982900L1059.790900,302.578920" fill="none" stroke="rgb(36,41,46)" stroke-width="8.523100"/><path id="e0e2ul9958b259" d="M869.810380,254.258170L869.810380,486.541670L871.561320,487.003240" fill="none" stroke="rgb(36,41,46)" stroke-width="8.523100"/></g><g id="e0e2ul9958b260" transform="matrix(1 0 0 1 -316.24900000000002 -383.38000000000000)"><text id="e0e2ul9958b261" dx="0" dy="0" font-family="sans-serif" font-size="20" font-weight="bold" transform="matrix(1 0 0 1 933.17550000000006 535.20674749999989)" fill="rgb(254,254,254)" stroke="none" stroke-width="1"><![CDATA[App Update successful]]></text></g><g id="e0e2ul9958b262" transform="matrix(0.46962700000000 0 0 0.46899900000000 648.69200000000001 104.25700000000001)" opacity="0"><path id="e0e2ul9958b263" d="M798.748830,252.907130L1058.986100,252.907130L1058.986100,489.689770L798.748830,489.689770Z" fill="rgb(255,255,255)" stroke="rgb(36,41,46)" stroke-width="8.523080"/><path id="e0e2ul9958b264" d="M797.645960,301.982900L1058.758500,301.982900L1059.790900,302.578920" fill="none" stroke="rgb(36,41,46)" stroke-width="8.523100"/><path id="e0e2ul9958b265" d="M869.810380,254.258170L869.810380,486.541670L871.561320,487.003240" fill="none" stroke="rgb(36,41,46)" stroke-width="8.523100"/></g></g><path id="e0e2ul9958b266" d="M802.350640,340.365410L799.672070,337.686840L800.529220,336.883270L802.350640,338.704690L806.314930,334.740410L807.172070,335.597550Z" transform="matrix(1 0 0 1 -462.54000854499969 -104.56382369999994)" opacity="0" fill="rgb(0,0,0)" stroke="none" stroke-width="1"/><path id="e0e2ul9958b267" d="M879.604870,375.317750L876.926300,372.639180L877.783450,371.835610L879.604870,373.657030L883.569160,369.692750L884.426300,370.549890Z" transform="matrix(1 0 0 1 -462.54000854499969 -104.56382369999994)" opacity="0" fill="rgb(0,0,0)" stroke="none" stroke-width="1"/><path id="e0e2ul9958b268" d="M1001.841100,414.866250L999.162520,412.187680L1000.019600,411.384110L1001.841100,413.205530L1005.805300,409.241250L1006.662500,410.098390Z" transform="matrix(1 0 0 1 -462.54000854499969 -104.56382369999994)" opacity="0" fill="rgb(0,0,0)" stroke="none" stroke-width="1"/><g id="e0e2ul9958b269_to" transform="translate(303.175168,228.558567)"><path id="e0e2ul9958b269" d="M56.978447,66.380975L62.759363,79.520591L56.550742,82.050000L50.769826,68.910384L41.594863,81.151394L41.456894,39.382859L72.500000,68.497691Z" transform="translate(0,0)" opacity="0" fill="rgb(36,41,46)" stroke="rgb(255,255,255)" stroke-width="3"/></g></svg>