<svg id="ehm6w64j85bp1" xmlns="http://www.w3.org/2000/svg" xmlns:xlink="http://www.w3.org/1999/xlink" viewBox="0 0 800 450" shape-rendering="geometricPrecision" text-rendering="geometricPrecision"><style><![CDATA[#ehm6w64j85bp19 {animation: ehm6w64j85bp19_c_o 11000ms linear infinite normal forwards}@keyframes ehm6w64j85bp19_c_o { 0% {opacity: 0} 3.636364% {opacity: 0} 4.545455% {opacity: 1} 30% {opacity: 1} 30.909091% {opacity: 0} 100% {opacity: 0} }#ehm6w64j85bp20 {animation: ehm6w64j85bp20_c_o 11000ms linear infinite normal forwards}@keyframes ehm6w64j85bp20_c_o { 0% {opacity: 0} 37.272727% {opacity: 0} 38.181818% {opacity: 1} 86.181818% {opacity: 1} 87.272727% {opacity: 0} 100% {opacity: 0} }#ehm6w64j85bp29 {animation: ehm6w64j85bp29_c_o 11000ms linear infinite normal forwards}@keyframes ehm6w64j85bp29_c_o { 0% {opacity: 0;animation-timing-function: step-end} 4.545455% {opacity: 1;animation-timing-function: step-end} 29.090909% {opacity: 1} 30% {opacity: 0} 100% {opacity: 0} }#ehm6w64j85bp60 {animation: ehm6w64j85bp60_c_o 11000ms linear infinite normal forwards}@keyframes ehm6w64j85bp60_c_o { 0% {opacity: 0} 17.272727% {opacity: 0} 18.181818% {opacity: 1} 100% {opacity: 1} }#ehm6w64j85bp61 {animation: ehm6w64j85bp61_c_o 11000ms linear infinite normal forwards}@keyframes ehm6w64j85bp61_c_o { 0% {opacity: 0} 22.727273% {opacity: 0} 23.636364% {opacity: 1} 100% {opacity: 1} }#ehm6w64j85bp62_ts {animation: ehm6w64j85bp62_ts__ts 11000ms linear infinite normal forwards}@keyframes ehm6w64j85bp62_ts__ts { 0% {transform: translate(679.934892px,74.783086px) scale(0,0)} 61.818182% {transform: translate(679.934892px,74.783086px) scale(0,0)} 62.727273% {transform: translate(679.934892px,74.783086px) scale(1,1)} 86.181818% {transform: translate(679.934892px,74.783086px) scale(1,1)} 87.272727% {transform: translate(679.934892px,74.783086px) scale(0,0)} 100% {transform: translate(679.934892px,74.783086px) scale(0,0)} }#ehm6w64j85bp62 {animation: ehm6w64j85bp62_c_o 11000ms linear infinite normal forwards}@keyframes ehm6w64j85bp62_c_o { 0% {opacity: 0} 61.818182% {opacity: 0} 62.727273% {opacity: 1} 100% {opacity: 1} }#ehm6w64j85bp122 {animation: ehm6w64j85bp122_c_o 11000ms linear infinite normal forwards}@keyframes ehm6w64j85bp122_c_o { 0% {opacity: 1} 81.818182% {opacity: 1;animation-timing-function: cubic-bezier(0.645000,0.045000,0.355000,1)} 82.727273% {opacity: 0;animation-timing-function: cubic-bezier(0.645000,0.045000,0.355000,1)} 83.636364% {opacity: 1} 100% {opacity: 1} }#ehm6w64j85bp129 {animation: ehm6w64j85bp129_c_o 11000ms linear infinite normal forwards}@keyframes ehm6w64j85bp129_c_o { 0% {opacity: 0} 34.545455% {opacity: 0} 35.454545% {opacity: 1} 89.818182% {opacity: 1} 90.909091% {opacity: 0} 100% {opacity: 0} }#ehm6w64j85bp133_to {animation: ehm6w64j85bp133_to__to 11000ms linear infinite normal forwards}@keyframes ehm6w64j85bp133_to__to { 0% {transform: translate(508.966956px,205.967195px)} 49.090909% {transform: translate(508.966956px,205.967195px);animation-timing-function: cubic-bezier(0.455000,0.030000,0.515000,0.955000)} 55.454545% {transform: translate(632.563860px,5.553320px);animation-timing-function: cubic-bezier(0.455000,0.030000,0.515000,0.955000)} 74.545455% {transform: translate(632.563860px,5.553320px);animation-timing-function: cubic-bezier(0.455000,0.030000,0.515000,0.955000)} 80% {transform: translate(615.666851px,197.139052px);animation-timing-function: cubic-bezier(0.455000,0.030000,0.515000,0.955000)} 93.636364% {transform: translate(615.666851px,197.139052px);animation-timing-function: cubic-bezier(0.645000,0.045000,0.355000,1)} 96.363636% {transform: translate(508.966956px,205.967195px)} 100% {transform: translate(508.966956px,205.967195px)} }#ehm6w64j85bp133 {animation: ehm6w64j85bp133_c_o 11000ms linear infinite normal forwards}@keyframes ehm6w64j85bp133_c_o { 0% {opacity: 0} 40.909091% {opacity: 0} 46.363636% {opacity: 1} 90% {opacity: 1} 91.818182% {opacity: 0} 100% {opacity: 0} }]]></style><defs><filter id="ehm6w64j85bp19-filter" x="-400%" width="600%" y="-400%" height="600%"><feGaussianBlur id="ehm6w64j85bp19-filter-drop-shadow-0-blur" in="SourceAlpha" stdDeviation="0,0"/><feOffset id="ehm6w64j85bp19-filter-drop-shadow-0-offset" dx="0" dy="0" result="tmp"/><feFlood id="ehm6w64j85bp19-filter-drop-shadow-0-flood" flood-color="rgb(0,0,0)"/><feComposite id="ehm6w64j85bp19-filter-drop-shadow-0-composite" operator="in" in2="tmp"/><feMerge id="ehm6w64j85bp19-filter-drop-shadow-0-merge"><feMergeNode id="ehm6w64j85bp19-filter-drop-shadow-0-merge-node-1"/><feMergeNode id="ehm6w64j85bp19-filter-drop-shadow-0-merge-node-2" in="SourceGraphic"/></feMerge></filter><radialGradient id="ehm6w64j85bp19-fill" cx="0.500000" cy="0.500000" r="0.500000" spreadMethod="pad" gradientUnits="objectBoundingBox"><stop id="ehm6w64j85bp19-fill-0" offset="0%" stop-color="rgb(205,205,205)"/><stop id="ehm6w64j85bp19-fill-1" offset="100%" stop-color="rgb(50,50,50)"/></radialGradient><filter id="ehm6w64j85bp29-filter" x="-400%" width="600%" y="-400%" height="600%"><feGaussianBlur id="ehm6w64j85bp29-filter-drop-shadow-0-blur" in="SourceAlpha" stdDeviation="0,0"/><feOffset id="ehm6w64j85bp29-filter-drop-shadow-0-offset" dx="0" dy="0" result="tmp"/><feFlood id="ehm6w64j85bp29-filter-drop-shadow-0-flood" flood-color="rgb(0,0,0)"/><feComposite id="ehm6w64j85bp29-filter-drop-shadow-0-composite" operator="in" in2="tmp"/><feMerge id="ehm6w64j85bp29-filter-drop-shadow-0-merge"><feMergeNode id="ehm6w64j85bp29-filter-drop-shadow-0-merge-node-1"/><feMergeNode id="ehm6w64j85bp29-filter-drop-shadow-0-merge-node-2" in="SourceGraphic"/></feMerge></filter><filter id="ehm6w64j85bp30-filter" x="-400%" width="600%" y="-400%" height="600%"><feGaussianBlur id="ehm6w64j85bp30-filter-drop-shadow-0-blur" in="SourceAlpha" stdDeviation="0,0"/><feOffset id="ehm6w64j85bp30-filter-drop-shadow-0-offset" dx="0" dy="0" result="tmp"/><feFlood id="ehm6w64j85bp30-filter-drop-shadow-0-flood" flood-color="rgb(0,0,0)"/><feComposite id="ehm6w64j85bp30-filter-drop-shadow-0-composite" operator="in" in2="tmp"/><feMerge id="ehm6w64j85bp30-filter-drop-shadow-0-merge"><feMergeNode id="ehm6w64j85bp30-filter-drop-shadow-0-merge-node-1"/><feMergeNode id="ehm6w64j85bp30-filter-drop-shadow-0-merge-node-2" in="SourceGraphic"/></feMerge></filter><filter id="ehm6w64j85bp133-filter" x="-400%" width="600%" y="-400%" height="600%"><feGaussianBlur id="ehm6w64j85bp133-filter-drop-shadow-0-blur" in="SourceAlpha" stdDeviation="0,0"/><feOffset id="ehm6w64j85bp133-filter-drop-shadow-0-offset" dx="0" dy="0" result="tmp"/><feFlood id="ehm6w64j85bp133-filter-drop-shadow-0-flood" flood-color="rgb(255,255,255)"/><feComposite id="ehm6w64j85bp133-filter-drop-shadow-0-composite" operator="in" in2="tmp"/><feMerge id="ehm6w64j85bp133-filter-drop-shadow-0-merge"><feMergeNode id="ehm6w64j85bp133-filter-drop-shadow-0-merge-node-1"/><feMergeNode id="ehm6w64j85bp133-filter-drop-shadow-0-merge-node-2" in="SourceGraphic"/></feMerge></filter></defs><g id="ehm6w64j85bp2" transform="matrix(1 0 0 1 -22.54000854000000 -184.56382369999983)"><g id="ehm6w64j85bp3" transform="matrix(1 0 0 1 -457.45999999999998 -1.63419000000000)"><path id="ehm6w64j85bp4" d="M500,200L1260,200L1260,632.396000L500,632.396000Z" fill="rgb(255,255,255)" stroke="rgb(36,41,46)" stroke-width="4"/><path id="ehm6w64j85bp5" d="M499.999980,200L1260,200L1260,260L499.999980,260Z" transform="matrix(1 0 0 1 0.00001999999995 0.98110000000000)" fill="rgb(36,41,46)" stroke="rgb(36,41,46)" stroke-width="2" stroke-opacity="0"/><g id="ehm6w64j85bp6" transform="matrix(1 0 0 1 227.73599999999999 -13.03080000000000)"><path id="ehm6w64j85bp7" d="M308.755860,250.998050Q307.099610,251.857420,305.302730,252.294920Q303.505860,252.732420,301.552730,252.732420Q295.724610,252.732420,292.318360,249.482420Q288.912110,246.216800,288.912110,240.638670Q288.912110,235.044920,292.318360,231.794920Q295.724610,228.529300,301.552730,228.529300Q303.505860,228.529300,305.302730,228.966800Q307.099610,229.404300,308.755860,230.263670L308.755860,235.091800Q307.083980,233.951170,305.458980,233.419920Q303.833980,232.888670,302.037110,232.888670Q298.818360,232.888670,296.974610,234.951170Q295.130860,237.013670,295.130860,240.638670Q295.130860,244.248050,296.974610,246.310550Q298.818360,248.373050,302.037110,248.373050Q303.833980,248.373050,305.458980,247.841800Q307.083980,247.310550,308.755860,246.169920Z" fill="rgb(255,255,255)" stroke="none" stroke-width="1"/><path id="ehm6w64j85bp8" d="M326.490230,239.544920Q325.755860,239.201170,325.021480,239.044920Q324.302730,238.873050,323.568360,238.873050Q321.412110,238.873050,320.240230,240.263670Q319.083980,241.638670,319.083980,244.216800L319.083980,252.279300L313.490230,252.279300L313.490230,234.779300L319.083980,234.779300L319.083980,237.654300Q320.162110,235.935550,321.552730,235.154300Q322.958980,234.357420,324.912110,234.357420Q325.193360,234.357420,325.521480,234.388620Q325.849610,234.404220,326.474610,234.482320Z" fill="rgb(255,255,255)" stroke="none" stroke-width="1"/><path id="ehm6w64j85bp9" d="M346.740230,243.482420L346.740230,245.076170L333.662110,245.076170Q333.865230,247.044920,335.083980,248.029300Q336.302730,249.013670,338.490230,249.013670Q340.255860,249.013670,342.099610,248.498050Q343.958980,247.966800,345.912110,246.904300L345.912110,251.216800Q343.927730,251.966800,341.943360,252.341800Q339.958980,252.732420,337.974610,252.732420Q333.224610,252.732420,330.583980,250.326170Q327.958980,247.904300,327.958980,243.544920Q327.958980,239.263670,330.537110,236.810550Q333.130860,234.357420,337.662110,234.357420Q341.787110,234.357420,344.255860,236.841800Q346.740230,239.326170,346.740230,243.482420ZM340.990230,241.623050Q340.990230,240.029300,340.052730,239.060550Q339.130860,238.076170,337.630860,238.076170Q336.005860,238.076170,334.990230,238.998050Q333.974610,239.904300,333.724610,241.623050Z" fill="rgb(255,255,255)" stroke="none" stroke-width="1"/><path id="ehm6w64j85bp10" d="M358.818360,244.404300Q357.068360,244.404300,356.177730,244.998050Q355.302730,245.591800,355.302730,246.748050Q355.302730,247.810550,356.005860,248.419920Q356.724610,249.013670,357.990230,249.013670Q359.568360,249.013670,360.646480,247.888670Q361.724610,246.748050,361.724610,245.044920L361.724610,244.404300ZM367.365230,242.294920L367.365230,252.279300L361.724610,252.279300L361.724610,249.685550Q360.599610,251.279300,359.193360,252.013670Q357.787110,252.732420,355.771480,252.732420Q353.052730,252.732420,351.349610,251.154300Q349.662110,249.560550,349.662110,247.029300Q349.662110,243.951170,351.771480,242.513670Q353.896480,241.076170,358.427730,241.076170L361.724610,241.076170L361.724610,240.638670Q361.724610,239.310550,360.677730,238.701170Q359.630860,238.076170,357.412110,238.076170Q355.615230,238.076170,354.068360,238.435550Q352.521480,238.794920,351.193360,239.513670L351.193360,235.248050Q352.990230,234.810550,354.802730,234.591800Q356.615230,234.357420,358.427730,234.357420Q363.162110,234.357420,365.255860,236.232420Q367.365230,238.091800,367.365230,242.294920Z" fill="rgb(255,255,255)" stroke="none" stroke-width="1"/><path id="ehm6w64j85bp11" d="M378.677730,229.810550L378.677730,234.779300L384.443360,234.779300L384.443360,238.779300L378.677730,238.779300L378.677730,246.201170Q378.677730,247.419920,379.162110,247.857420Q379.646480,248.279300,381.083980,248.279300L383.958980,248.279300L383.958980,252.279300L379.162110,252.279300Q375.849610,252.279300,374.458980,250.904300Q373.083980,249.513670,373.083980,246.201170L373.083980,238.779300L370.302730,238.779300L370.302730,234.779300L373.083980,234.779300L373.083980,229.810550Z" fill="rgb(255,255,255)" stroke="none" stroke-width="1"/><path id="ehm6w64j85bp12" d="M405.333980,243.482420L405.333980,245.076170L392.255860,245.076170Q392.458980,247.044920,393.677730,248.029300Q394.896480,249.013670,397.083980,249.013670Q398.849610,249.013670,400.693360,248.498050Q402.552730,247.966800,404.505860,246.904300L404.505860,251.216800Q402.521480,251.966800,400.537110,252.341800Q398.552730,252.732420,396.568360,252.732420Q391.818360,252.732420,389.177730,250.326170Q386.552730,247.904300,386.552730,243.544920Q386.552730,239.263670,389.130860,236.810550Q391.724610,234.357420,396.255860,234.357420Q400.380860,234.357420,402.849610,236.841800Q405.333980,239.326170,405.333980,243.482420ZM399.583980,241.623050Q399.583980,240.029300,398.646480,239.060550Q397.724610,238.076170,396.224610,238.076170Q394.599610,238.076170,393.583980,238.998050Q392.568360,239.904300,392.318360,241.623050Z" fill="rgb(255,255,255)" stroke="none" stroke-width="1"/><path id="ehm6w64j85bp13" d="M437.193360,229.685550L437.193360,234.623050Q435.271480,233.763670,433.443360,233.326170Q431.615230,232.888670,429.990230,232.888670Q427.833980,232.888670,426.802730,233.482420Q425.771480,234.076170,425.771480,235.326170Q425.771480,236.263670,426.458980,236.794920Q427.162110,237.310550,428.990230,237.685550L431.552730,238.201170Q435.443360,238.982420,437.083980,240.576170Q438.724610,242.169920,438.724610,245.107420Q438.724610,248.966800,436.427730,250.857420Q434.146480,252.732420,429.443360,252.732420Q427.224610,252.732420,424.990230,252.310550Q422.755860,251.888670,420.521480,251.060550L420.521480,245.982420Q422.755860,247.169920,424.833980,247.779300Q426.927730,248.373050,428.865230,248.373050Q430.833980,248.373050,431.880860,247.716800Q432.927730,247.060550,432.927730,245.841800Q432.927730,244.748050,432.208980,244.154300Q431.505860,243.560550,429.380860,243.091800L427.052730,242.576170Q423.552730,241.826170,421.927730,240.185550Q420.318360,238.544920,420.318360,235.763670Q420.318360,232.279300,422.568360,230.404300Q424.818360,228.529300,429.037110,228.529300Q430.958980,228.529300,432.990230,228.826170Q435.021480,229.107420,437.193360,229.685550Z" fill="rgb(255,255,255)" stroke="none" stroke-width="1"/><path id="ehm6w64j85bp14" d="M458.162110,248.029300L448.755860,248.029300L447.271480,252.279300L441.224610,252.279300L449.865230,228.951170L457.037110,228.951170L465.677730,252.279300L459.630860,252.279300ZM450.255860,243.701170L456.646480,243.701170L453.458980,234.419920Z" fill="rgb(255,255,255)" stroke="none" stroke-width="1"/><path id="ehm6w64j85bp15" d="M485.005860,229.685550L485.005860,234.623050Q483.083980,233.763670,481.255860,233.326170Q479.427730,232.888670,477.802730,232.888670Q475.646480,232.888670,474.615230,233.482420Q473.583980,234.076170,473.583980,235.326170Q473.583980,236.263670,474.271480,236.794920Q474.974610,237.310550,476.802730,237.685550L479.365230,238.201170Q483.255860,238.982420,484.896480,240.576170Q486.537110,242.169920,486.537110,245.107420Q486.537110,248.966800,484.240230,250.857420Q481.958980,252.732420,477.255860,252.732420Q475.037110,252.732420,472.802730,252.310550Q470.568360,251.888670,468.333980,251.060550L468.333980,245.982420Q470.568360,247.169920,472.646480,247.779300Q474.740230,248.373050,476.677730,248.373050Q478.646480,248.373050,479.693360,247.716800Q480.740230,247.060550,480.740230,245.841800Q480.740230,244.748050,480.021480,244.154300Q479.318360,243.560550,477.193360,243.091800L474.865230,242.576170Q471.365230,241.826170,469.740230,240.185550Q468.130860,238.544920,468.130860,235.763670Q468.130860,232.279300,470.380860,230.404300Q472.630860,228.529300,476.849610,228.529300Q478.771480,228.529300,480.802730,228.826170Q482.833980,229.107420,485.005860,229.685550Z" fill="rgb(255,255,255)" stroke="none" stroke-width="1"/><path id="ehm6w64j85bp16" d="M517.115230,248.029300L507.708980,248.029300L506.224610,252.279300L500.177730,252.279300L508.818360,228.951170L515.990230,228.951170L524.630860,252.279300L518.583980,252.279300ZM509.208980,243.701170L515.599610,243.701170L512.412110,234.419920Z" fill="rgb(255,255,255)" stroke="none" stroke-width="1"/><path id="ehm6w64j85bp17" d="M533.068360,249.748050L533.068360,258.935550L527.474610,258.935550L527.474610,234.779300L533.068360,234.779300L533.068360,237.341800Q534.224610,235.810550,535.630860,235.091800Q537.037110,234.357420,538.865230,234.357420Q542.099610,234.357420,544.177730,236.935550Q546.255860,239.498050,546.255860,243.544920Q546.255860,247.591800,544.177730,250.169920Q542.099610,252.732420,538.865230,252.732420Q537.037110,252.732420,535.630860,252.013670Q534.224610,251.279300,533.068360,249.748050ZM536.787110,238.419920Q534.990230,238.419920,534.021480,239.748050Q533.068360,241.060550,533.068360,243.544920Q533.068360,246.029300,534.021480,247.357420Q534.990230,248.669920,536.787110,248.669920Q538.583980,248.669920,539.521480,247.357420Q540.474610,246.044920,540.474610,243.544920Q540.474610,241.044920,539.521480,239.732420Q538.583980,238.419920,536.787110,238.419920Z" fill="rgb(255,255,255)" stroke="none" stroke-width="1"/><path id="ehm6w64j85bp18" d="M555.974610,249.748050L555.974610,258.935550L550.380860,258.935550L550.380860,234.779300L555.974610,234.779300L555.974610,237.341800Q557.130860,235.810550,558.537110,235.091800Q559.943360,234.357420,561.771480,234.357420Q565.005860,234.357420,567.083980,236.935550Q569.162110,239.498050,569.162110,243.544920Q569.162110,247.591800,567.083980,250.169920Q565.005860,252.732420,561.771480,252.732420Q559.943360,252.732420,558.537110,252.013670Q557.130860,251.279300,555.974610,249.748050ZM559.693360,238.419920Q557.896480,238.419920,556.927730,239.748050Q555.974610,241.060550,555.974610,243.544920Q555.974610,246.029300,556.927730,247.357420Q557.896480,248.669920,559.693360,248.669920Q561.490230,248.669920,562.427730,247.357420Q563.380860,246.044920,563.380860,243.544920Q563.380860,241.044920,562.427730,239.732420Q561.490230,238.419920,559.693360,238.419920Z" fill="rgb(255,255,255)" stroke="none" stroke-width="1"/></g><path id="ehm6w64j85bp19" d="M723.679460,181.028034L1480.153966,181.028034L1480.153966,613.153979L723.679460,613.153979Z" transform="matrix(1.00238184306469 0 0 0.99835454257600 -224.54127881000016 20.05295370000013)" opacity="0" filter="url(#ehm6w64j85bp19-filter)" fill="url(#ehm6w64j85bp19-fill)" fill-opacity="0.25" stroke="rgb(36,41,46)" stroke-width="4" stroke-opacity="0"/></g><g id="ehm6w64j85bp20" transform="matrix(1 0 0 1 363.50223609000000 -4.34060526000004)" opacity="0"><path id="ehm6w64j85bp21" d="M298.501970,227.302740L298.501970,230.182950Q297.380880,229.681650,296.314470,229.426440Q295.248060,229.171230,294.300140,229.171230Q293.042330,229.171230,292.440760,229.517590Q291.839200,229.863940,291.839200,230.593110Q291.839200,231.139990,292.240240,231.449880Q292.650400,231.750670,293.716810,231.969420L295.211600,232.270200Q297.481140,232.725930,298.438170,233.655620Q299.395200,234.585310,299.395200,236.298850Q299.395200,238.550160,298.055360,239.653020Q296.724630,240.746780,293.981130,240.746780Q292.686860,240.746780,291.383470,240.500680Q290.080080,240.254590,288.776700,239.771510L288.776700,236.809270Q290.080080,237.501980,291.292320,237.857450Q292.513680,238.203800,293.643890,238.203800Q294.792330,238.203800,295.403010,237.820990Q296.013690,237.438180,296.013690,236.727240Q296.013690,236.089210,295.594420,235.742860Q295.184260,235.396510,293.944670,235.123070L292.586600,234.822290Q290.544930,234.384780,289.597010,233.427750Q288.658210,232.470720,288.658210,230.848320Q288.658210,228.815760,289.970710,227.722010Q291.283210,226.628260,293.744150,226.628260Q294.865250,226.628260,296.050150,226.801440Q297.235040,226.965500,298.501970,227.302740Z" fill="rgb(255,255,255)" stroke="none" stroke-width="1"/><path id="ehm6w64j85bp22" d="M306.905630,235.888690Q305.884800,235.888690,305.365270,236.235050Q304.854850,236.581400,304.854850,237.255880Q304.854850,237.875680,305.265010,238.231150Q305.684280,238.577500,306.422560,238.577500Q307.343130,238.577500,307.972040,237.921250Q308.600950,237.255880,308.600950,236.262390L308.600950,235.888690ZM311.891320,234.658220L311.891320,240.482450L308.600950,240.482450L308.600950,238.969430Q307.944700,239.899120,307.124380,240.327500Q306.304070,240.746780,305.128290,240.746780Q303.542350,240.746780,302.548860,239.826200Q301.564480,238.896510,301.564480,237.419950Q301.564480,235.624370,302.794950,234.785830Q304.034540,233.947280,306.677770,233.947280L308.600950,233.947280L308.600950,233.692070Q308.600950,232.917330,307.990270,232.561860Q307.379590,232.197280,306.085320,232.197280Q305.037140,232.197280,304.134800,232.406920Q303.232450,232.616550,302.457710,233.035820L302.457710,230.547540Q303.505890,230.292330,304.563180,230.164720Q305.620480,230.028010,306.677770,230.028010Q309.439490,230.028010,310.660850,231.121760Q311.891320,232.206400,311.891320,234.658220Z" fill="rgb(255,255,255)" stroke="none" stroke-width="1"/><path id="ehm6w64j85bp23" d="M322.901760,230.593110L322.901760,233.072280Q321.853580,232.634780,320.878320,232.416030Q319.903050,232.197280,319.037170,232.197280Q318.107480,232.197280,317.651750,232.434260Q317.205130,232.662130,317.205130,233.145200Q317.205130,233.537130,317.542370,233.746760Q317.888730,233.956400,318.772840,234.056660L319.347060,234.138660Q321.853580,234.457670,322.719470,235.186840Q323.585350,235.916010,323.585350,237.474600Q323.585350,239.106120,322.382230,239.926430Q321.179100,240.746750,318.791070,240.746750Q317.779350,240.746750,316.694720,240.582680Q315.619190,240.427730,314.479870,240.108720L314.479870,237.629550Q315.455130,238.103510,316.475970,238.340490Q317.505920,238.577470,318.563210,238.577470Q319.520240,238.577470,320.003320,238.313150Q320.486390,238.048820,320.486390,237.529290Q320.486390,237.091790,320.149150,236.882150Q319.821020,236.663400,318.827530,236.544910L318.253310,236.472010Q316.074920,236.198570,315.199920,235.460290Q314.324920,234.722000,314.324920,233.218100Q314.324920,231.595700,315.436900,230.811840Q316.548880,230.027990,318.845760,230.027990Q319.748110,230.027990,320.741600,230.164700Q321.735090,230.301420,322.901760,230.593090Z" fill="rgb(255,255,255)" stroke="none" stroke-width="1"/><path id="ehm6w64j85bp24" d="M336.190840,229.526700L336.190840,237.830100L337.448660,237.830100Q339.599700,237.830100,340.729910,236.763690Q341.869240,235.697290,341.869240,233.664730Q341.869240,231.641290,340.739030,230.584000Q339.608820,229.526700,337.448660,229.526700ZM332.681720,226.874350L336.382250,226.874350Q339.481210,226.874350,340.994240,227.320970Q342.516380,227.758470,343.601010,228.815760Q344.558050,229.736340,345.022890,230.939470Q345.487740,232.142590,345.487740,233.664730Q345.487740,235.205100,345.022890,236.417340Q344.558050,237.620470,343.601010,238.541040Q342.507260,239.598340,340.976010,240.044950Q339.444760,240.482450,336.382250,240.482450L332.681720,240.482450Z" transform="matrix(1 0 0 1 -0.11206577999997 -0.24608999999998)" fill="rgb(255,255,255)" stroke="none" stroke-width="1"/><path id="ehm6w64j85bp25" d="M348.367950,236.955100L351.649200,236.955100L351.649200,240.482450L348.367950,240.482450Z" fill="rgb(255,255,255)" stroke="none" stroke-width="1"/><path id="ehm6w64j85bp26" d="M361.766410,226.874350L371.236480,226.874350L371.236480,229.526700L365.275530,229.526700L365.275530,232.060560L370.881010,232.060560L370.881010,234.712910L365.275530,234.712910L365.275530,237.830100L371.437000,237.830100L371.437000,240.482450L361.766410,240.482450Z" fill="rgb(255,255,255)" stroke="none" stroke-width="1"/><path id="ehm6w64j85bp27" d="M383.832860,231.969420Q384.452650,231.021500,385.300310,230.529310Q386.157080,230.028010,387.177920,230.028010Q388.937030,230.028010,389.857610,231.112640Q390.778180,232.197280,390.778180,234.266290L390.778180,240.482450L387.496930,240.482450L387.496930,235.159530Q387.505930,235.041040,387.505930,234.913430Q387.514930,234.785830,387.514930,234.548850Q387.514930,233.464210,387.195910,232.981140Q386.876900,232.488950,386.165960,232.488950Q385.236280,232.488950,384.725860,233.254570Q384.224560,234.020200,384.206330,235.469420L384.206330,240.482450L380.925070,240.482450L380.925070,235.159530Q380.925070,233.464210,380.633400,232.981140Q380.341740,232.488950,379.594340,232.488950Q378.655530,232.488950,378.145120,233.263690Q377.634700,234.029320,377.634700,235.460310L377.634700,240.482450L374.353440,240.482450L374.353440,230.274100L377.634700,230.274100L377.634700,231.768890Q378.236260,230.903010,379.011000,230.465510Q379.794860,230.028010,380.733660,230.028010Q381.790960,230.028010,382.602160,230.538420Q383.413360,231.048840,383.832630,231.969420Z" fill="rgb(255,255,255)" stroke="none" stroke-width="1"/><path id="ehm6w64j85bp28" d="M398.680540,232.361340Q397.595900,232.361340,397.021680,233.145200Q396.456580,233.919940,396.456580,235.387390Q396.456580,236.854840,397.021680,237.638700Q397.595900,238.413440,398.680540,238.413440Q399.746950,238.413440,400.312050,237.638700Q400.877160,236.854840,400.877160,235.387390Q400.877160,233.919940,400.312050,233.145200Q399.746950,232.361340,398.680540,232.361340ZM398.680540,230.028010Q401.314660,230.028010,402.791220,231.449880Q404.276900,232.871760,404.276900,235.387390Q404.276900,237.903020,402.791220,239.324900Q401.314660,240.746780,398.680540,240.746780Q396.037300,240.746780,394.542510,239.324900Q393.056830,237.903020,393.056830,235.387390Q393.056830,232.871760,394.542510,231.449880Q396.037300,230.028010,398.680540,230.028010Z" fill="rgb(255,255,255)" stroke="none" stroke-width="1"/></g></g><g id="ehm6w64j85bp29" transform="matrix(1 0 0 1 -423.67944190000003 -80.53541486999998)" opacity="0" filter="url(#ehm6w64j85bp29-filter)"><path id="ehm6w64j85bp30" d="M723.679460,240.730160L923.679460,240.730160L923.679460,446.006000L723.679460,446.006000Z" filter="url(#ehm6w64j85bp30-filter)" fill="rgb(255,255,255)" stroke="rgb(36,41,46)" stroke-width="4"/><g id="ehm6w64j85bp31" transform="matrix(1 0 0 1 450.46499999999997 31.00390000000000)"><path id="ehm6w64j85bp32" d="M298.501970,227.302740L298.501970,230.182950Q297.380880,229.681650,296.314470,229.426440Q295.248060,229.171230,294.300140,229.171230Q293.042330,229.171230,292.440760,229.517590Q291.839200,229.863940,291.839200,230.593110Q291.839200,231.139990,292.240240,231.449880Q292.650400,231.750670,293.716810,231.969420L295.211600,232.270200Q297.481140,232.725930,298.438170,233.655620Q299.395200,234.585310,299.395200,236.298850Q299.395200,238.550160,298.055360,239.653020Q296.724630,240.746780,293.981130,240.746780Q292.686860,240.746780,291.383470,240.500680Q290.080080,240.254590,288.776700,239.771510L288.776700,236.809270Q290.080080,237.501980,291.292320,237.857450Q292.513680,238.203800,293.643890,238.203800Q294.792330,238.203800,295.403010,237.820990Q296.013690,237.438180,296.013690,236.727240Q296.013690,236.089210,295.594420,235.742860Q295.184260,235.396510,293.944670,235.123070L292.586600,234.822290Q290.544930,234.384780,289.597010,233.427750Q288.658210,232.470720,288.658210,230.848320Q288.658210,228.815760,289.970710,227.722010Q291.283210,226.628260,293.744150,226.628260Q294.865250,226.628260,296.050150,226.801440Q297.235040,226.965500,298.501970,227.302740Z" fill="rgb(36,41,46)" stroke="none" stroke-width="1"/><path id="ehm6w64j85bp33" d="M310.733770,238.003280L305.246780,238.003280L304.380890,240.482450L300.853540,240.482450L305.893910,226.874350L310.077510,226.874350L315.117890,240.482450L311.590540,240.482450ZM306.121780,235.478540L309.849650,235.478540L307.990270,230.064460Z" fill="rgb(36,41,46)" stroke="none" stroke-width="1"/><path id="ehm6w64j85bp34" d="M326.392650,227.302740L326.392650,230.182950Q325.271550,229.681650,324.205140,229.426440Q323.138740,229.171230,322.190820,229.171230Q320.933000,229.171230,320.331440,229.517590Q319.729880,229.863940,319.729880,230.593110Q319.729880,231.139990,320.130920,231.449880Q320.541070,231.750670,321.607480,231.969420L323.102280,232.270200Q325.371810,232.725930,326.328850,233.655620Q327.285880,234.585310,327.285880,236.298850Q327.285880,238.550160,325.946030,239.653020Q324.615300,240.746780,321.871810,240.746780Q320.577530,240.746780,319.274150,240.500680Q317.970760,240.254590,316.667370,239.771510L316.667370,236.809270Q317.970760,237.501980,319.183000,237.857450Q320.404360,238.203800,321.534570,238.203800Q322.683010,238.203800,323.293680,237.820990Q323.904360,237.438180,323.904360,236.727240Q323.904360,236.089210,323.485090,235.742860Q323.074930,235.396510,321.835350,235.123070L320.477270,234.822290Q318.435600,234.384780,317.487680,233.427750Q316.548880,232.470720,316.548880,230.848320Q316.548880,228.815760,317.861380,227.722010Q319.173880,226.628260,321.634830,226.628260Q322.755920,226.628260,323.940820,226.801440Q325.125720,226.965500,326.392650,227.302740Z" fill="rgb(36,41,46)" stroke="none" stroke-width="1"/><path id="ehm6w64j85bp35" d="M336.865320,226.874350L340.374440,226.874350L340.374440,237.830100L346.535910,237.830100L346.535910,240.482450L336.865320,240.482450Z" fill="rgb(36,41,46)" stroke="none" stroke-width="1"/><path id="ehm6w64j85bp36" d="M353.472130,232.361340Q352.387490,232.361340,351.813270,233.145200Q351.248160,233.919940,351.248160,235.387390Q351.248160,236.854840,351.813270,237.638700Q352.387490,238.413440,353.472130,238.413440Q354.538530,238.413440,355.103640,237.638700Q355.668740,236.854840,355.668740,235.387390Q355.668740,233.919940,355.103640,233.145200Q354.538530,232.361340,353.472130,232.361340ZM353.472130,230.028010Q356.106250,230.028010,357.582810,231.449880Q359.068490,232.871760,359.068490,235.387390Q359.068490,237.903020,357.582810,239.324900Q356.106250,240.746780,353.472130,240.746780Q350.828890,240.746780,349.334100,239.324900Q347.848420,237.903020,347.848420,235.387390Q347.848420,232.871760,349.334100,231.449880Q350.828890,230.028010,353.472130,230.028010Z" fill="rgb(36,41,46)" stroke="none" stroke-width="1"/><path id="ehm6w64j85bp37" d="M368.383610,238.750680Q367.709130,239.643910,366.897930,240.063180Q366.086730,240.482450,365.020320,240.482450Q363.151830,240.482450,361.930470,239.015000Q360.709120,237.538440,360.709120,235.259790Q360.709120,232.972020,361.930470,231.513690Q363.151830,230.046230,365.020320,230.046230Q366.086730,230.046230,366.897930,230.465510Q367.709130,230.884780,368.383610,231.787120L368.383610,230.274100L371.664870,230.274100L371.664870,239.452500Q371.664870,241.913440,370.106270,243.207720Q368.556790,244.511100,365.603660,244.511100Q364.646630,244.511100,363.753390,244.365270Q362.860160,244.219440,361.957820,243.918660L361.957820,241.375680Q362.814590,241.867870,363.634900,242.104850Q364.455220,242.350940,365.284650,242.350940Q366.888820,242.350940,367.636210,241.649120Q368.383610,240.947300,368.383610,239.452500ZM366.232570,232.397800Q365.220850,232.397800,364.655740,233.145200Q364.090630,233.892600,364.090630,235.259790Q364.090630,236.663430,364.637510,237.392600Q365.184390,238.112660,366.232570,238.112660Q367.253400,238.112660,367.818510,237.365260Q368.383610,236.617860,368.383610,235.259790Q368.383610,233.892600,367.818510,233.145200Q367.253400,232.397800,366.232570,232.397800Z" fill="rgb(36,41,46)" stroke="none" stroke-width="1"/><path id="ehm6w64j85bp38" d="M374.800290,230.274100L378.063310,230.274100L378.063310,240.482450L374.800290,240.482450ZM374.800290,226.300130L378.063310,226.300130L378.063310,228.961600L374.800290,228.961600Z" fill="rgb(36,41,46)" stroke="none" stroke-width="1"/><path id="ehm6w64j85bp39" d="M391.461780,234.266290L391.461780,240.482450L388.180520,240.482450L388.180520,239.470730L388.180520,235.724630Q388.180520,234.403010,388.116720,233.901710Q388.062020,233.400410,387.916200,233.163430Q387.724790,232.844420,387.396670,232.671240Q387.068540,232.488950,386.649270,232.488950Q385.628430,232.488950,385.045100,233.281920Q384.461770,234.065770,384.461770,235.460310L384.461770,240.482450L381.198740,240.482450L381.198740,230.274100L384.461770,230.274100L384.461770,231.768890Q385.200050,230.875660,386.029480,230.456390Q386.858900,230.028010,387.861510,230.028010Q389.629740,230.028010,390.541200,231.112640Q391.461780,232.197280,391.461780,234.266290Z" fill="rgb(36,41,46)" stroke="none" stroke-width="1"/></g><g id="ehm6w64j85bp40" transform="matrix(1 0 0 1 450.30599999999998 67.49350000000000)"><path id="ehm6w64j85bp41" d="M288.708980,226.458980L290.294920,226.458980L290.294920,233.544920Q290.294920,235.419920,290.974610,236.248050Q291.654300,237.068360,293.177730,237.068360Q294.693360,237.068360,295.373050,236.248050Q296.052730,235.419920,296.052730,233.544920L296.052730,226.458980L297.638670,226.458980L297.638670,233.740230Q297.638670,236.021480,296.505860,237.185550Q295.380860,238.349610,293.177730,238.349610Q290.966800,238.349610,289.833980,237.185550Q288.708980,236.021480,288.708980,233.740230Z" fill="rgb(36,41,46)" stroke="none" stroke-width="1"/><path id="ehm6w64j85bp42" d="M306.115230,229.630860L306.115230,230.990230Q305.505860,230.677730,304.849610,230.521480Q304.193360,230.365230,303.490230,230.365230Q302.419920,230.365230,301.880860,230.693360Q301.349610,231.021480,301.349610,231.677730Q301.349610,232.177730,301.732420,232.466800Q302.115230,232.748050,303.271480,233.005860L303.763670,233.115230Q305.294920,233.443360,305.935550,234.044920Q306.583980,234.638670,306.583980,235.708980Q306.583980,236.927730,305.615230,237.638670Q304.654300,238.349610,302.966800,238.349610Q302.263670,238.349610,301.498050,238.208980Q300.740230,238.076170,299.896480,237.802730L299.896480,236.318360Q300.693360,236.732420,301.466800,236.943360Q302.240230,237.146480,302.998050,237.146480Q304.013670,237.146480,304.560550,236.802730Q305.107420,236.451170,305.107420,235.818360Q305.107420,235.232420,304.708980,234.919920Q304.318360,234.607420,302.982420,234.318360L302.482420,234.201170Q301.146480,233.919920,300.552730,233.341800Q299.958980,232.755860,299.958980,231.740230Q299.958980,230.505860,300.833980,229.833980Q301.708980,229.162110,303.318360,229.162110Q304.115230,229.162110,304.818360,229.279300Q305.521480,229.396480,306.115230,229.630860Z" fill="rgb(36,41,46)" stroke="none" stroke-width="1"/><path id="ehm6w64j85bp43" d="M316.357420,233.388670L316.357420,234.091800L309.748050,234.091800Q309.841750,235.576170,310.638670,236.357420Q311.443360,237.130860,312.873050,237.130860Q313.701170,237.130860,314.474610,236.927730Q315.255860,236.724610,316.021480,236.318360L316.021480,237.677730Q315.248050,238.005860,314.435550,238.177730Q313.623050,238.349610,312.787110,238.349610Q310.693360,238.349610,309.466800,237.130860Q308.248050,235.912110,308.248050,233.833980Q308.248050,231.685550,309.404300,230.427730Q310.568360,229.162110,312.537110,229.162110Q314.302730,229.162110,315.326170,230.302730Q316.357420,231.435550,316.357420,233.388670ZM314.919920,232.966800Q314.904320,231.787110,314.255860,231.083980Q313.615230,230.380860,312.552730,230.380860Q311.349610,230.380860,310.623050,231.060550Q309.904300,231.740230,309.794920,232.974610Z" fill="rgb(36,41,46)" stroke="none" stroke-width="1"/><path id="ehm6w64j85bp44" d="M323.787110,230.716800Q323.544920,230.576170,323.255860,230.513670Q322.974610,230.443370,322.630860,230.443370Q321.412110,230.443370,320.755860,231.240240Q320.107420,232.029310,320.107420,233.513680L320.107420,238.123060L318.662110,238.123060L318.662110,229.373060L320.107420,229.373060L320.107420,230.732430Q320.560550,229.935560,321.287110,229.552740Q322.013670,229.162120,323.052730,229.162120Q323.201170,229.162120,323.380860,229.185520Q323.560550,229.201120,323.779300,229.240220Z" fill="rgb(36,41,46)" stroke="none" stroke-width="1"/><path id="ehm6w64j85bp45" d="M332.287110,232.841800L332.287110,238.123050L330.849610,238.123050L330.849610,232.888670Q330.849610,231.646480,330.365230,231.029300Q329.880860,230.412110,328.912110,230.412110Q327.748050,230.412110,327.076170,231.154300Q326.404300,231.896480,326.404300,233.177730L326.404300,238.123050L324.958980,238.123050L324.958980,229.373050L326.404300,229.373050L326.404300,230.732420Q326.919920,229.943360,327.615230,229.552730Q328.318360,229.162110,329.232420,229.162110Q330.740230,229.162110,331.513670,230.099610Q332.287110,231.029300,332.287110,232.841800Z" fill="rgb(36,41,46)" stroke="none" stroke-width="1"/><path id="ehm6w64j85bp46" d="M339.130860,233.724610Q337.388670,233.724610,336.716800,234.123050Q336.044920,234.521480,336.044920,235.482420Q336.044920,236.248050,336.544920,236.701170Q337.052730,237.146480,337.919920,237.146480Q339.115230,237.146480,339.833980,236.302730Q340.560550,235.451170,340.560550,234.044920L340.560550,233.724610ZM341.998050,233.130860L341.998050,238.123050L340.560550,238.123050L340.560550,236.794920Q340.068360,237.591800,339.333980,237.974610Q338.599610,238.349610,337.537110,238.349610Q336.193360,238.349610,335.396480,237.599610Q334.607420,236.841800,334.607420,235.576170Q334.607420,234.099610,335.591800,233.349610Q336.583980,232.599610,338.544920,232.599610L340.560550,232.599610L340.560550,232.458980Q340.560550,231.466800,339.904300,230.927730Q339.255860,230.380860,338.076170,230.380860Q337.326170,230.380860,336.615230,230.560550Q335.904300,230.740230,335.248050,231.099610L335.248050,229.771480Q336.037110,229.466800,336.779300,229.318360Q337.521480,229.162110,338.224610,229.162110Q340.123050,229.162110,341.060550,230.146480Q341.998050,231.130860,341.998050,233.130860Z" fill="rgb(36,41,46)" stroke="none" stroke-width="1"/><path id="ehm6w64j85bp47" d="M351.771480,231.052730Q352.310550,230.083980,353.060550,229.623050Q353.810550,229.162110,354.826170,229.162110Q356.193360,229.162110,356.935550,230.123050Q357.677730,231.076170,357.677730,232.841800L357.677730,238.123050L356.232420,238.123050L356.232420,232.888670Q356.232420,231.630860,355.787110,231.021480Q355.341800,230.412110,354.427730,230.412110Q353.310550,230.412110,352.662110,231.154300Q352.013670,231.896480,352.013670,233.177730L352.013670,238.123050L350.568360,238.123050L350.568360,232.888670Q350.568360,231.623050,350.123050,231.021480Q349.677730,230.412110,348.748050,230.412110Q347.646480,230.412110,346.998050,231.162110Q346.349610,231.904300,346.349610,233.177730L346.349610,238.123050L344.904300,238.123050L344.904300,229.373050L346.349610,229.373050L346.349610,230.732420Q346.841800,229.927730,347.529300,229.544920Q348.216800,229.162110,349.162110,229.162110Q350.115230,229.162110,350.779300,229.646480Q351.451170,230.130860,351.771480,231.052730Z" fill="rgb(36,41,46)" stroke="none" stroke-width="1"/><path id="ehm6w64j85bp48" d="M368.029300,233.388670L368.029300,234.091800L361.419920,234.091800Q361.513620,235.576170,362.310550,236.357420Q363.115230,237.130860,364.544920,237.130860Q365.373050,237.130860,366.146480,236.927730Q366.927730,236.724610,367.693360,236.318360L367.693360,237.677730Q366.919920,238.005860,366.107420,238.177730Q365.294920,238.349610,364.458980,238.349610Q362.365230,238.349610,361.138670,237.130860Q359.919920,235.912110,359.919920,233.833980Q359.919920,231.685550,361.076170,230.427730Q362.240230,229.162110,364.208980,229.162110Q365.974610,229.162110,366.998050,230.302730Q368.029300,231.435550,368.029300,233.388670ZM366.591800,232.966800Q366.576200,231.787110,365.927730,231.083980Q365.287110,230.380860,364.224610,230.380860Q363.021480,230.380860,362.294920,231.060550Q361.576170,231.740230,361.466800,232.974610Z" fill="rgb(36,41,46)" stroke="none" stroke-width="1"/></g><path id="ehm6w64j85bp49" d="M738.640460,315.030830L904.601760,315.030830L904.601760,344.534690L738.640460,344.534690Z" fill="rgb(255,255,255)" stroke="rgb(36,41,46)" stroke-width="2"/><g id="ehm6w64j85bp50" transform="matrix(1 0 0 1 449.75200000000001 130.20300000000000)"><path id="ehm6w64j85bp51" d="M290.466800,227.755860L290.466800,232.138670L292.451170,232.138670Q293.552730,232.138670,294.154300,231.568360Q294.755860,230.998050,294.755860,229.943360Q294.755860,228.896480,294.154300,228.326170Q293.552730,227.755860,292.451170,227.755860ZM288.888670,226.458980L292.451170,226.458980Q294.412110,226.458980,295.412110,227.349610Q296.419920,228.232420,296.419920,229.943360Q296.419920,231.669920,295.412110,232.552730Q294.412110,233.435550,292.451170,233.435550L290.466800,233.435550L290.466800,238.123050L288.888670,238.123050Z" fill="rgb(36,41,46)" stroke="none" stroke-width="1"/><path id="ehm6w64j85bp52" d="M301.732420,233.724610Q299.990230,233.724610,299.318360,234.123050Q298.646480,234.521480,298.646480,235.482420Q298.646480,236.248050,299.146480,236.701170Q299.654300,237.146480,300.521480,237.146480Q301.716800,237.146480,302.435550,236.302730Q303.162110,235.451170,303.162110,234.044920L303.162110,233.724610ZM304.599610,233.130860L304.599610,238.123050L303.162110,238.123050L303.162110,236.794920Q302.669920,237.591800,301.935550,237.974610Q301.201170,238.349610,300.138670,238.349610Q298.794920,238.349610,297.998050,237.599610Q297.208980,236.841800,297.208980,235.576170Q297.208980,234.099610,298.193360,233.349610Q299.185550,232.599610,301.146480,232.599610L303.162110,232.599610L303.162110,232.458980Q303.162110,231.466800,302.505860,230.927730Q301.857420,230.380860,300.677730,230.380860Q299.927730,230.380860,299.216800,230.560550Q298.505860,230.740230,297.849610,231.099610L297.849610,229.771480Q298.638670,229.466800,299.380860,229.318360Q300.123050,229.162110,300.826170,229.162110Q302.724610,229.162110,303.662110,230.146480Q304.599610,231.130860,304.599610,233.130860Z" fill="rgb(36,41,46)" stroke="none" stroke-width="1"/><path id="ehm6w64j85bp53" d="M313.138670,229.630860L313.138670,230.990230Q312.529300,230.677730,311.873050,230.521480Q311.216800,230.365230,310.513670,230.365230Q309.443360,230.365230,308.904300,230.693360Q308.373050,231.021480,308.373050,231.677730Q308.373050,232.177730,308.755860,232.466800Q309.138670,232.748050,310.294920,233.005860L310.787110,233.115230Q312.318360,233.443360,312.958980,234.044920Q313.607420,234.638670,313.607420,235.708980Q313.607420,236.927730,312.638670,237.638670Q311.677730,238.349610,309.990230,238.349610Q309.287110,238.349610,308.521480,238.208980Q307.763670,238.076170,306.919920,237.802730L306.919920,236.318360Q307.716800,236.732420,308.490230,236.943360Q309.263670,237.146480,310.021480,237.146480Q311.037110,237.146480,311.583980,236.802730Q312.130860,236.451170,312.130860,235.818360Q312.130860,235.232420,311.732420,234.919920Q311.341800,234.607420,310.005860,234.318360L309.505860,234.201170Q308.169920,233.919920,307.576170,233.341800Q306.982420,232.755860,306.982420,231.740230Q306.982420,230.505860,307.857420,229.833980Q308.732420,229.162110,310.341800,229.162110Q311.138670,229.162110,311.841800,229.279300Q312.544920,229.396480,313.138670,229.630860Z" fill="rgb(36,41,46)" stroke="none" stroke-width="1"/><path id="ehm6w64j85bp54" d="M321.474610,229.630860L321.474610,230.990230Q320.865230,230.677730,320.208980,230.521480Q319.552730,230.365230,318.849610,230.365230Q317.779300,230.365230,317.240230,230.693360Q316.708980,231.021480,316.708980,231.677730Q316.708980,232.177730,317.091800,232.466800Q317.474610,232.748050,318.630860,233.005860L319.123050,233.115230Q320.654300,233.443360,321.294920,234.044920Q321.943360,234.638670,321.943360,235.708980Q321.943360,236.927730,320.974610,237.638670Q320.013670,238.349610,318.326170,238.349610Q317.623050,238.349610,316.857420,238.208980Q316.099610,238.076170,315.255860,237.802730L315.255860,236.318360Q316.052730,236.732420,316.826170,236.943360Q317.599610,237.146480,318.357420,237.146480Q319.373050,237.146480,319.919920,236.802730Q320.466800,236.451170,320.466800,235.818360Q320.466800,235.232420,320.068360,234.919920Q319.677730,234.607420,318.341800,234.318360L317.841800,234.201170Q316.505860,233.919920,315.912110,233.341800Q315.318360,232.755860,315.318360,231.740230Q315.318360,230.505860,316.193360,229.833980Q317.068360,229.162110,318.677730,229.162110Q319.474610,229.162110,320.177730,229.279300Q320.880860,229.396480,321.474610,229.630860Z" fill="rgb(36,41,46)" stroke="none" stroke-width="1"/><path id="ehm6w64j85bp55" d="M323.396480,229.373050L324.833980,229.373050L326.630860,236.201170L328.419920,229.373050L330.115230,229.373050L331.912110,236.201170L333.701170,229.373050L335.138670,229.373050L332.849610,238.123050L331.154300,238.123050L329.271480,230.951170L327.380860,238.123050L325.685550,238.123050Z" fill="rgb(36,41,46)" stroke="none" stroke-width="1"/><path id="ehm6w64j85bp56" d="M340.708980,230.380860Q339.552730,230.380860,338.880860,231.287110Q338.208980,232.185550,338.208980,233.755860Q338.208980,235.326170,338.873050,236.232420Q339.544920,237.130860,340.708980,237.130860Q341.857420,237.130860,342.529300,236.224610Q343.201170,235.318360,343.201170,233.755860Q343.201170,232.201170,342.529300,231.294920Q341.857420,230.380860,340.708980,230.380860ZM340.708980,229.162110Q342.583980,229.162110,343.654300,230.380860Q344.724610,231.599610,344.724610,233.755860Q344.724610,235.904300,343.654300,237.130860Q342.583980,238.349610,340.708980,238.349610Q338.826170,238.349610,337.755860,237.130860Q336.693360,235.904300,336.693360,233.755860Q336.693360,231.599610,337.755860,230.380860Q338.826170,229.162110,340.708980,229.162110Z" fill="rgb(36,41,46)" stroke="none" stroke-width="1"/><path id="ehm6w64j85bp57" d="M352.177730,230.716800Q351.935550,230.576170,351.646480,230.513670Q351.365230,230.443370,351.021480,230.443370Q349.802730,230.443370,349.146480,231.240240Q348.498050,232.029310,348.498050,233.513680L348.498050,238.123060L347.052730,238.123060L347.052730,229.373060L348.498050,229.373060L348.498050,230.732430Q348.951170,229.935560,349.677730,229.552740Q350.404300,229.162120,351.443360,229.162120Q351.591800,229.162120,351.771480,229.185520Q351.951170,229.201120,352.169920,229.240220Z" fill="rgb(36,41,46)" stroke="none" stroke-width="1"/><path id="ehm6w64j85bp58" d="M359.162110,230.701170L359.162110,225.966800L360.599610,225.966800L360.599610,238.123050L359.162110,238.123050L359.162110,236.810550Q358.708980,237.591800,358.013670,237.974610Q357.326170,238.349610,356.357420,238.349610Q354.771480,238.349610,353.771480,237.083980Q352.779300,235.818360,352.779300,233.755860Q352.779300,231.693360,353.771480,230.427730Q354.771480,229.162110,356.357420,229.162110Q357.326170,229.162110,358.013670,229.544920Q358.708980,229.919920,359.162110,230.701170ZM354.263670,233.755860Q354.263670,235.341800,354.912110,236.248050Q355.568360,237.146480,356.708980,237.146480Q357.849610,237.146480,358.505860,236.248050Q359.162110,235.341800,359.162110,233.755860Q359.162110,232.169920,358.505860,231.271480Q357.849610,230.365230,356.708980,230.365230Q355.568360,230.365230,354.912110,231.271480Q354.263670,232.169920,354.263670,233.755860Z" fill="rgb(36,41,46)" stroke="none" stroke-width="1"/></g><path id="ehm6w64j85bp59" d="M738.085990,377.740250L904.047290,377.740250L904.047290,407.244110L738.085990,407.244110Z" fill="rgb(255,255,255)" stroke="rgb(36,41,46)" stroke-width="2"/><text id="ehm6w64j85bp60" dx="0" dy="0" font-family="sans-serif" font-size="16" font-weight="bold" transform="matrix(1 0 0 1 744.58598500000005 335.13432250000000)" opacity="0" fill="rgb(0,0,0)" stroke="none" stroke-width="1"><![CDATA[sasdemo]]></text><text id="ehm6w64j85bp61" dx="0" dy="0" font-family="sans-serif" font-size="16" font-weight="bold" transform="matrix(1 0 0 1 745.73525500000005 398.01561750000002)" opacity="0" fill="rgb(0,0,0)" stroke="none" stroke-width="1"><![CDATA[*****]]></text></g><g id="ehm6w64j85bp62_ts" transform="translate(679.934892,74.783086) scale(0,0)"><g id="ehm6w64j85bp62" transform="translate(-702.474451,-259.518798)" opacity="0"><path id="ehm6w64j85bp63" d="M602.539560,258.365810L802.539560,258.365810L802.539560,463.641650L602.539560,463.641650Z" fill="rgb(255,255,255)" stroke="rgb(36,41,46)" stroke-width="4"/><g id="ehm6w64j85bp64" transform="matrix(1 0 0 1 -461.98599999999999 -10.37150000000000)"><rect id="ehm6w64j85bp65" width="24.147800" height="12.104600" rx="5.080670" ry="6.052301" transform="matrix(1 0 0 1 1220.53999999999996 288.78800000000001)" fill="rgb(255,255,255)" stroke="rgb(36,41,46)" stroke-width="1.300000" stroke-linecap="round" stroke-linejoin="round"/><ellipse id="ehm6w64j85bp66" rx="4.466530" ry="4.319050" transform="matrix(1 0 0 1 1226.77999999999997 294.79500000000002)" fill="rgb(36,41,46)" stroke="none" stroke-width="1.999990" stroke-linecap="round" stroke-linejoin="round"/></g><g id="ehm6w64j85bp67" transform="matrix(1 0 0 1 328.14699999999999 49.58490000000000)"><path id="ehm6w64j85bp68" d="M290.729160,228.071610L290.729160,237.897760L292.794260,237.897760Q295.409490,237.897760,296.619770,236.712870Q297.838520,235.527970,297.838520,232.971990Q297.838520,230.432930,296.619770,229.256500Q295.409490,228.071610,292.794260,228.071610ZM289.019530,226.666660L292.531890,226.666660Q296.205060,226.666660,297.923160,228.198560Q299.641250,229.721990,299.641250,232.971990Q299.641250,236.238910,297.914690,237.770810Q296.188130,239.302700,292.531890,239.302700L289.019530,239.302700Z" fill="rgb(36,41,46)" stroke="none" stroke-width="1"/><path id="ehm6w64j85bp69" d="M310.406860,234.173810L310.406860,234.935530L303.246710,234.935530Q303.348280,236.543600,304.211560,237.389950Q305.083300,238.227840,306.632120,238.227840Q307.529260,238.227840,308.367150,238.007790Q309.213500,237.787730,310.042920,237.347630L310.042920,238.820280Q309.205040,239.175750,308.324830,239.361950Q307.444620,239.548150,306.539030,239.548150Q304.270800,239.548150,302.942030,238.227840Q301.621720,236.907530,301.621720,234.656230Q301.621720,232.328760,302.874320,230.966130Q304.135380,229.595040,306.268190,229.595040Q308.180950,229.595040,309.289670,230.830720Q310.406860,232.057930,310.406860,234.173810ZM308.849570,233.716780Q308.832670,232.438790,308.130170,231.677070Q307.436160,230.915350,306.285120,230.915350Q304.981740,230.915350,304.194630,231.651680Q303.415980,232.388000,303.297490,233.725240Z" fill="rgb(36,41,46)" stroke="none" stroke-width="1"/><path id="ehm6w64j85bp70" d="M319.767510,234.571590Q319.767510,232.853500,319.056580,231.880190Q318.354110,230.898420,317.118430,230.898420Q315.882760,230.898420,315.171820,231.880190Q314.469350,232.853500,314.469350,234.571590Q314.469350,236.289690,315.171820,237.271460Q315.882760,238.244760,317.118430,238.244760Q318.354110,238.244760,319.056580,237.271460Q319.767510,236.289690,319.767510,234.571590ZM314.469350,231.262360Q314.960230,230.416000,315.705020,230.009750Q316.458280,229.595040,317.499290,229.595040Q319.225850,229.595040,320.300720,230.966130Q321.384050,232.337220,321.384050,234.571590Q321.384050,236.805960,320.300720,238.177060Q319.225850,239.548150,317.499290,239.548150Q316.458280,239.548150,315.705020,239.141900Q314.960230,238.727180,314.469350,237.880830L314.469350,239.302700L312.903600,239.302700L312.903600,226.133460L314.469350,226.133460Z" fill="rgb(36,41,46)" stroke="none" stroke-width="1"/><path id="ehm6w64j85bp71" d="M323.804620,235.561830L323.804620,229.823560L325.361900,229.823560L325.361900,235.502580Q325.361900,236.848280,325.886640,237.525360Q326.411380,238.193980,327.460860,238.193980Q328.721920,238.193980,329.449790,237.389950Q330.186110,236.585910,330.186110,235.197890L330.186110,229.823560L331.743400,229.823560L331.743400,239.302700L330.186110,239.302700L330.186110,237.846980Q329.619060,238.710260,328.865800,239.133430Q328.121010,239.548150,327.130780,239.548150Q325.497320,239.548150,324.650970,238.532520Q323.804620,237.516900,323.804620,235.561830ZM327.723230,229.595040" fill="rgb(36,41,46)" stroke="none" stroke-width="1"/><path id="ehm6w64j85bp72" d="M341.188700,234.453100Q341.188700,232.760400,340.486230,231.829410Q339.792220,230.898420,338.531150,230.898420Q337.278550,230.898420,336.576080,231.829410Q335.882070,232.760400,335.882070,234.453100Q335.882070,236.137350,336.576080,237.068330Q337.278550,237.999320,338.531150,237.999320Q339.792220,237.999320,340.486230,237.068330Q341.188700,236.137350,341.188700,234.453100ZM342.745990,238.126270Q342.745990,240.546840,341.671120,241.723270Q340.596250,242.908170,338.378810,242.908170Q337.557850,242.908170,336.829980,242.781210Q336.102120,242.662720,335.416570,242.408820L335.416570,240.893850Q336.102120,241.266240,336.770740,241.443980Q337.439360,241.621710,338.133370,241.621710Q339.665260,241.621710,340.426980,240.817680Q341.188700,240.022100,341.188700,238.405570L341.188700,237.635390Q340.706280,238.473280,339.953020,238.887990Q339.199770,239.302700,338.150290,239.302700Q336.406810,239.302700,335.340400,237.973930Q334.274000,236.645160,334.274000,234.453100Q334.274000,232.252590,335.340400,230.923810Q336.406810,229.595040,338.150290,229.595040Q339.199770,229.595040,339.953020,230.009750Q340.706280,230.424470,341.188700,231.262360L341.188700,229.823560L342.745990,229.823560Z" fill="rgb(36,41,46)" stroke="none" stroke-width="1"/><path id="ehm6w64j85bp73" d="M351.531120,226.666660L354.078650,226.666660L357.303250,235.265600L360.544780,226.666660L363.092300,226.666660L363.092300,239.302700L361.424990,239.302700L361.424990,228.207020L358.166530,236.873670L356.448430,236.873670L353.189980,228.207020L353.189980,239.302700L351.531120,239.302700Z" fill="rgb(36,41,46)" stroke="none" stroke-width="1"/><path id="ehm6w64j85bp74" d="M370.091630,230.915350Q368.839030,230.915350,368.111170,231.897120Q367.383310,232.870430,367.383310,234.571590Q367.383310,236.272760,368.102710,237.254530Q368.830570,238.227840,370.091630,238.227840Q371.335770,238.227840,372.063640,237.246070Q372.791500,236.264300,372.791500,234.571590Q372.791500,232.887350,372.063640,231.905580Q371.335770,230.915350,370.091630,230.915350ZM370.091630,229.595040Q372.122880,229.595040,373.282380,230.915350Q374.441890,232.235660,374.441890,234.571590Q374.441890,236.899060,373.282380,238.227840Q372.122880,239.548150,370.091630,239.548150Q368.051920,239.548150,366.892420,238.227840Q365.741380,236.899060,365.741380,234.571590Q365.741380,232.235660,366.892420,230.915350Q368.051920,229.595040,370.091630,229.595040Z" fill="rgb(36,41,46)" stroke="none" stroke-width="1"/><path id="ehm6w64j85bp75" d="M383.260880,231.262360L383.260880,226.133460L384.818170,226.133460L384.818170,239.302700L383.260880,239.302700L383.260880,237.880830Q382.770000,238.727180,382.016740,239.141900Q381.271950,239.548150,380.222470,239.548150Q378.504380,239.548150,377.421050,238.177060Q376.346180,236.805960,376.346180,234.571590Q376.346180,232.337220,377.421050,230.966130Q378.504380,229.595040,380.222470,229.595040Q381.271950,229.595040,382.016740,230.009750Q382.770000,230.416000,383.260880,231.262360ZM377.954250,234.571590Q377.954250,236.289690,378.656720,237.271460Q379.367660,238.244760,380.603330,238.244760Q381.839010,238.244760,382.549940,237.271460Q383.260880,236.289690,383.260880,234.571590Q383.260880,232.853500,382.549940,231.880190Q381.839010,230.898420,380.603330,230.898420Q379.367660,230.898420,378.656720,231.880190Q377.954250,232.853500,377.954250,234.571590Z" fill="rgb(36,41,46)" stroke="none" stroke-width="1"/><path id="ehm6w64j85bp76" d="M396.133900,234.173810L396.133900,234.935530L388.973760,234.935530Q389.075320,236.543600,389.938600,237.389950Q390.810350,238.227840,392.359170,238.227840Q393.256310,238.227840,394.094200,238.007790Q394.940550,237.787730,395.769970,237.347630L395.769970,238.820280Q394.932080,239.175750,394.051880,239.361950Q393.171670,239.548150,392.266070,239.548150Q389.997850,239.548150,388.669080,238.227840Q387.348770,236.907530,387.348770,234.656230Q387.348770,232.328760,388.601370,230.966130Q389.862430,229.595040,391.995240,229.595040Q393.908000,229.595040,395.016720,230.830720Q396.133900,232.057930,396.133900,234.173810ZM394.576620,233.716780Q394.559720,232.438790,393.857220,231.677070Q393.163210,230.915350,392.012170,230.915350Q390.708790,230.915350,389.921680,231.651680Q389.143030,232.388000,389.024540,233.725240Z" fill="rgb(36,41,46)" stroke="none" stroke-width="1"/></g><g id="ehm6w64j85bp77" transform="matrix(1 0 0 1 63.20860000000000 18.97970000000000)"><g id="ehm6w64j85bp78" transform="matrix(1.37812000000000 0 0 1.36187000000000 -973.23299999999995 -133.05300000000000)"><ellipse id="ehm6w64j85bp79" rx="4.466530" ry="4.319050" transform="matrix(1 0 0 1 1223.41000000000008 317.62400000000002)" fill="rgb(36,41,46)" stroke="rgb(36,41,46)" stroke-width="0.948926" stroke-linecap="round" stroke-linejoin="round"/><g id="ehm6w64j85bp80"><path id="ehm6w64j85bp81" d="M1222.099400,318.740920L1222.984800,318.740920L1222.984800,316.227900L1222.075900,316.415400L1222.075900,315.733110L1222.979600,315.545610L1223.932700,315.545610L1223.932700,318.740920L1224.818100,318.740920L1224.818100,319.433620L1222.099400,319.433620Z" fill="rgb(253,253,253)" stroke="none" stroke-width="0.729943"/></g></g></g><g id="ehm6w64j85bp82" transform="matrix(1 0 0 1 328.23300000000000 83.48410000000000)"><path id="ehm6w64j85bp83" d="M293.242830,228.350900L290.923820,234.639300L295.570300,234.639300ZM292.277990,226.666660L294.216130,226.666660L299.031880,239.302700L297.254540,239.302700L296.103500,236.061170L290.407550,236.061170L289.256510,239.302700L287.453780,239.302700Z" fill="rgb(36,41,46)" stroke="none" stroke-width="1"/><path id="ehm6w64j85bp84" d="M302.315730,237.880830L302.315730,242.908170L300.749970,242.908170L300.749970,229.823560L302.315730,229.823560L302.315730,231.262360Q302.806610,230.416000,303.551400,230.009750Q304.304650,229.595040,305.345670,229.595040Q307.072230,229.595040,308.147100,230.966130Q309.230430,232.337220,309.230430,234.571590Q309.230430,236.805960,308.147100,238.177060Q307.072230,239.548150,305.345670,239.548150Q304.304650,239.548150,303.551400,239.141900Q302.806610,238.727180,302.315730,237.880830ZM307.613890,234.571590Q307.613890,232.853500,306.902960,231.880190Q306.200480,230.898420,304.964810,230.898420Q303.729130,230.898420,303.018200,231.880190Q302.315730,232.853500,302.315730,234.571590Q302.315730,236.289690,303.018200,237.271460Q303.729130,238.244760,304.964810,238.244760Q306.200480,238.244760,306.902960,237.271460Q307.613890,236.289690,307.613890,234.571590Z" fill="rgb(36,41,46)" stroke="none" stroke-width="1"/><path id="ehm6w64j85bp85" d="M313.318310,237.880830L313.318310,242.908170L311.752560,242.908170L311.752560,229.823560L313.318310,229.823560L313.318310,231.262360Q313.809190,230.416000,314.553980,230.009750Q315.307240,229.595040,316.348250,229.595040Q318.074810,229.595040,319.149680,230.966130Q320.233010,232.337220,320.233010,234.571590Q320.233010,236.805960,319.149680,238.177060Q318.074810,239.548150,316.348250,239.548150Q315.307240,239.548150,314.553980,239.141900Q313.809190,238.727180,313.318310,237.880830ZM318.616480,234.571590Q318.616480,232.853500,317.905540,231.880190Q317.203070,230.898420,315.967390,230.898420Q314.731720,230.898420,314.020780,231.880190Q313.318310,232.853500,313.318310,234.571590Q313.318310,236.289690,314.020780,237.271460Q314.731720,238.244760,315.967390,238.244760Q317.203070,238.244760,317.905540,237.271460Q318.616480,236.289690,318.616480,234.571590Z" fill="rgb(36,41,46)" stroke="none" stroke-width="1"/><path id="ehm6w64j85bp86" d="M328.391850,226.666660L330.101480,226.666660L330.101480,237.863910L336.254460,237.863910L336.254460,239.302700L328.391850,239.302700Z" fill="rgb(36,41,46)" stroke="none" stroke-width="1"/><path id="ehm6w64j85bp87" d="M341.349500,230.915350Q340.096900,230.915350,339.369040,231.897120Q338.641180,232.870430,338.641180,234.571590Q338.641180,236.272760,339.360580,237.254530Q340.088440,238.227840,341.349500,238.227840Q342.593640,238.227840,343.321510,237.246070Q344.049370,236.264300,344.049370,234.571590Q344.049370,232.887350,343.321510,231.905580Q342.593640,230.915350,341.349500,230.915350ZM341.349500,229.595040Q343.380750,229.595040,344.540250,230.915350Q345.699760,232.235660,345.699760,234.571590Q345.699760,236.899060,344.540250,238.227840Q343.380750,239.548150,341.349500,239.548150Q339.309790,239.548150,338.150290,238.227840Q336.999250,236.899060,336.999250,234.571590Q336.999250,232.235660,338.150290,230.915350Q339.309790,229.595040,341.349500,229.595040Z" fill="rgb(36,41,46)" stroke="none" stroke-width="1"/><path id="ehm6w64j85bp88" d="M354.518750,234.453100Q354.518750,232.760400,353.816280,231.829410Q353.122270,230.898420,351.861200,230.898420Q350.608600,230.898420,349.906130,231.829410Q349.212120,232.760400,349.212120,234.453100Q349.212120,236.137350,349.906130,237.068330Q350.608600,237.999320,351.861200,237.999320Q353.122270,237.999320,353.816280,237.068330Q354.518750,236.137350,354.518750,234.453100ZM356.076040,238.126270Q356.076040,240.546840,355.001170,241.723270Q353.926300,242.908170,351.708860,242.908170Q350.887900,242.908170,350.160030,242.781210Q349.432170,242.662720,348.746620,242.408820L348.746620,240.893850Q349.432170,241.266240,350.100790,241.443980Q350.769410,241.621710,351.463420,241.621710Q352.995310,241.621710,353.757030,240.817680Q354.518750,240.022100,354.518750,238.405570L354.518750,237.635390Q354.036330,238.473280,353.283070,238.887990Q352.529820,239.302700,351.480340,239.302700Q349.736860,239.302700,348.670450,237.973930Q347.604050,236.645160,347.604050,234.453100Q347.604050,232.252590,348.670450,230.923810Q349.736860,229.595040,351.480340,229.595040Q352.529820,229.595040,353.283070,230.009750Q354.036330,230.424470,354.518750,231.262360L354.518750,229.823560L356.076040,229.823560Z" fill="rgb(36,41,46)" stroke="none" stroke-width="1"/><path id="ehm6w64j85bp89" d="M365.326670,230.102850L365.326670,231.575510Q364.666520,231.236970,363.955580,231.067690Q363.244640,230.898420,362.482930,230.898420Q361.323420,230.898420,360.739440,231.253890Q360.163920,231.609360,360.163920,232.320300Q360.163920,232.861960,360.578630,233.175110Q360.993350,233.479800,362.245950,233.759100L362.779150,233.877580Q364.438000,234.233050,365.132010,234.884740Q365.834480,235.527970,365.834480,236.687480Q365.834480,238.007790,364.785010,238.777970Q363.743990,239.548150,361.915870,239.548150Q361.154150,239.548150,360.324730,239.395800Q359.503770,239.251920,358.589700,238.955700L358.589700,237.347630Q359.452980,237.796200,360.290870,238.024710Q361.128760,238.244760,361.949720,238.244760Q363.049980,238.244760,363.642430,237.872370Q364.234880,237.491510,364.234880,236.805960Q364.234880,236.171200,363.803240,235.832660Q363.380060,235.494120,361.932800,235.180970L361.391130,235.054010Q359.943870,234.749330,359.300640,234.123030Q358.657410,233.488260,358.657410,232.388000Q358.657410,231.050770,359.605330,230.322900Q360.553240,229.595040,362.296730,229.595040Q363.160010,229.595040,363.921730,229.721990Q364.683440,229.848950,365.326670,230.102850Z" fill="rgb(36,41,46)" stroke="none" stroke-width="1"/></g><g id="ehm6w64j85bp90" transform="matrix(1 0 0 1 63.08370000000000 54.29260000000000)"><g id="ehm6w64j85bp91" transform="matrix(1.37812000000000 0 0 1.36187000000000 -973.23299999999995 -133.05300000000000)"><ellipse id="ehm6w64j85bp92" rx="4.466530" ry="4.319050" transform="matrix(1 0 0 1 1223.41000000000008 317.62400000000002)" fill="rgb(36,41,46)" stroke="rgb(36,41,46)" stroke-width="0.948926" stroke-linecap="round" stroke-linejoin="round"/><g id="ehm6w64j85bp93"><path id="ehm6w64j85bp94" d="M1223.927500,317.485710Q1223.927500,316.756540,1223.789500,316.459670Q1223.654100,316.160190,1223.331100,316.160190Q1223.008200,316.160190,1222.870200,316.459670Q1222.732200,316.756540,1222.732200,317.485710Q1222.732200,318.222690,1222.870200,318.524770Q1223.008200,318.826850,1223.331100,318.826850Q1223.651400,318.826850,1223.789500,318.524770Q1223.927500,318.222690,1223.927500,317.485710ZM1224.930100,317.493710Q1224.930100,318.459860,1224.513400,318.985900Q1224.096800,319.509340,1223.331100,319.509340Q1222.562900,319.509340,1222.146200,318.985900Q1221.729600,318.459860,1221.729600,317.493710Q1221.729600,316.524960,1222.146200,316.001520Q1222.562900,315.475480,1223.331100,315.475480Q1224.096800,315.475480,1224.513400,316.001520Q1224.930100,316.524960,1224.930100,317.493710Z" fill="rgb(255,255,255)" stroke="none" stroke-width="0.729943"/></g></g></g><g id="ehm6w64j85bp95" transform="matrix(1 0 0 1 328.10800000000000 118.79700000000000)"><path id="ehm6w64j85bp96" d="M289.019530,226.666660L296.281230,226.666660L296.281230,228.105460L290.729160,228.105460L290.729160,231.829410L295.739570,231.829410L295.739570,233.268210L290.729160,233.268210L290.729160,239.302700L289.019530,239.302700Z" fill="rgb(36,41,46)" stroke="none" stroke-width="1"/><path id="ehm6w64j85bp97" d="M301.638640,234.537740Q299.751280,234.537740,299.023410,234.969380Q298.295550,235.401020,298.295550,236.442030Q298.295550,237.271460,298.837220,237.762340Q299.387350,238.244760,300.326800,238.244760Q301.621720,238.244760,302.400360,237.330700Q303.187470,236.408180,303.187470,234.884740L303.187470,234.537740ZM304.744760,233.894510L304.744760,239.302700L303.187470,239.302700L303.187470,237.863910Q302.654270,238.727180,301.858700,239.141900Q301.063120,239.548150,299.912080,239.548150Q298.456360,239.548150,297.593080,238.735650Q296.738260,237.914690,296.738260,236.543600Q296.738260,234.943990,297.804670,234.131490Q298.879530,233.318990,301.003880,233.318990L303.187470,233.318990L303.187470,233.166650Q303.187470,232.091780,302.476530,231.507800Q301.774060,230.915350,300.496070,230.915350Q299.683570,230.915350,298.913390,231.110010Q298.143210,231.304670,297.432270,231.694000L297.432270,230.255200Q298.287090,229.925120,299.091120,229.764310Q299.895160,229.595040,300.656880,229.595040Q302.713510,229.595040,303.729130,230.661450Q304.744760,231.727850,304.744760,233.894510Z" fill="rgb(36,41,46)" stroke="none" stroke-width="1"/><path id="ehm6w64j85bp98" d="M307.952430,229.823560L309.509720,229.823560L309.509720,239.302700L307.952430,239.302700ZM307.952430,226.133460L309.509720,226.133460L309.509720,228.105460L307.952430,228.105460Z" fill="rgb(36,41,46)" stroke="none" stroke-width="1"/><path id="ehm6w64j85bp99" d="M312.768180,226.133460L314.325470,226.133460L314.325470,239.302700L312.768180,239.302700Z" fill="rgb(36,41,46)" stroke="none" stroke-width="1"/><path id="ehm6w64j85bp100" d="M325.691980,234.173810L325.691980,234.935530L318.531840,234.935530Q318.633400,236.543600,319.496680,237.389950Q320.368430,238.227840,321.917250,238.227840Q322.814390,238.227840,323.652270,238.007790Q324.498630,237.787730,325.328050,237.347630L325.328050,238.820280Q324.490160,239.175750,323.609960,239.361950Q322.729750,239.548150,321.824150,239.548150Q319.555930,239.548150,318.227150,238.227840Q316.906840,236.907530,316.906840,234.656230Q316.906840,232.328760,318.159450,230.966130Q319.420510,229.595040,321.553320,229.595040Q323.466080,229.595040,324.574800,230.830720Q325.691980,232.057930,325.691980,234.173810ZM324.134700,233.716780Q324.117800,232.438790,323.415300,231.677070Q322.721290,230.915350,321.570250,230.915350Q320.266860,230.915350,319.479760,231.651680Q318.701110,232.388000,318.582620,233.725240Z" fill="rgb(36,41,46)" stroke="none" stroke-width="1"/><path id="ehm6w64j85bp101" d="M334.485580,231.262360L334.485580,226.133460L336.042870,226.133460L336.042870,239.302700L334.485580,239.302700L334.485580,237.880830Q333.994700,238.727180,333.241450,239.141900Q332.496660,239.548150,331.447180,239.548150Q329.729080,239.548150,328.645750,238.177060Q327.570880,236.805960,327.570880,234.571590Q327.570880,232.337220,328.645750,230.966130Q329.729080,229.595040,331.447180,229.595040Q332.496660,229.595040,333.241450,230.009750Q333.994700,230.416000,334.485580,231.262360ZM329.178950,234.571590Q329.178950,236.289690,329.881430,237.271460Q330.592360,238.244760,331.828040,238.244760Q333.063710,238.244760,333.774650,237.271460Q334.485580,236.289690,334.485580,234.571590Q334.485580,232.853500,333.774650,231.880190Q333.063710,230.898420,331.828040,230.898420Q330.592360,230.898420,329.881430,231.880190Q329.178950,232.853500,329.178950,234.571590Z" fill="rgb(36,41,46)" stroke="none" stroke-width="1"/><path id="ehm6w64j85bp102" d="M350.820190,233.378240Q351.370320,233.564430,351.886590,234.173810Q352.411330,234.783180,352.936070,235.849590L354.671090,239.302700L352.834510,239.302700L351.217980,236.061170Q350.591680,234.791650,349.999230,234.376930Q349.415250,233.962220,348.399620,233.962220L346.537650,233.962220L346.537650,239.302700L344.828010,239.302700L344.828010,226.666660L348.687380,226.666660Q350.854040,226.666660,351.920450,227.572260Q352.986850,228.477860,352.986850,230.305980Q352.986850,231.499330,352.428260,232.286440Q351.878130,233.073550,350.820190,233.378240ZM346.537650,228.071610L346.537650,232.557270L348.687380,232.557270Q349.923060,232.557270,350.549360,231.990220Q351.184120,231.414700,351.184120,230.305980Q351.184120,229.197260,350.549360,228.638660Q349.923060,228.071610,348.687380,228.071610Z" fill="rgb(36,41,46)" stroke="none" stroke-width="1"/><path id="ehm6w64j85bp103" d="M364.133320,234.173810L364.133320,234.935530L356.973180,234.935530Q357.074740,236.543600,357.938020,237.389950Q358.809760,238.227840,360.358590,238.227840Q361.255720,238.227840,362.093610,238.007790Q362.939960,237.787730,363.769390,237.347630L363.769390,238.820280Q362.931500,239.175750,362.051290,239.361950Q361.171080,239.548150,360.265490,239.548150Q357.997260,239.548150,356.668490,238.227840Q355.348180,236.907530,355.348180,234.656230Q355.348180,232.328760,356.600780,230.966130Q357.861850,229.595040,359.994650,229.595040Q361.907410,229.595040,363.016130,230.830720Q364.133320,232.057930,364.133320,234.173810ZM362.576030,233.716780Q362.559130,232.438790,361.856630,231.677070Q361.162620,230.915350,360.011580,230.915350Q358.708200,230.915350,357.921090,231.651680Q357.142450,232.388000,357.023960,233.725240Z" fill="rgb(36,41,46)" stroke="none" stroke-width="1"/><path id="ehm6w64j85bp104" d="M367.620290,234.571590Q367.620290,236.289690,368.322760,237.271460Q369.033700,238.244760,370.269370,238.244760Q371.505050,238.244760,372.215980,237.271460Q372.926920,236.289690,372.926920,234.571590Q372.926920,232.853500,372.215980,231.880190Q371.505050,230.898420,370.269370,230.898420Q369.033700,230.898420,368.322760,231.880190Q367.620290,232.853500,367.620290,234.571590ZM372.926920,237.880830Q372.436030,238.727180,371.682780,239.141900Q370.937990,239.548150,369.888510,239.548150Q368.170420,239.548150,367.087090,238.177060Q366.012220,236.805960,366.012220,234.571590Q366.012220,232.337220,367.087090,230.966130Q368.170420,229.595040,369.888510,229.595040Q370.937990,229.595040,371.682780,230.009750Q372.436030,230.416000,372.926920,231.262360L372.926920,229.823560L374.484210,229.823560L374.484210,242.908170L372.926920,242.908170Z" fill="rgb(36,41,46)" stroke="none" stroke-width="1"/><path id="ehm6w64j85bp105" d="M377.531070,235.561830L377.531070,229.823560L379.088360,229.823560L379.088360,235.502580Q379.088360,236.848280,379.613100,237.525360Q380.137840,238.193980,381.187310,238.193980Q382.448380,238.193980,383.176240,237.389950Q383.912570,236.585910,383.912570,235.197890L383.912570,229.823560L385.469860,229.823560L385.469860,239.302700L383.912570,239.302700L383.912570,237.846980Q383.345510,238.710260,382.592260,239.133430Q381.847470,239.548150,380.857240,239.548150Q379.223780,239.548150,378.377420,238.532520Q377.531070,237.516900,377.531070,235.561830ZM381.449680,229.595040" fill="rgb(36,41,46)" stroke="none" stroke-width="1"/><path id="ehm6w64j85bp106" d="M396.785590,234.173810L396.785590,234.935530L389.625450,234.935530Q389.727010,236.543600,390.590290,237.389950Q391.462040,238.227840,393.010860,238.227840Q393.907990,238.227840,394.745880,238.007790Q395.592240,237.787730,396.421660,237.347630L396.421660,238.820280Q395.583770,239.175750,394.703570,239.361950Q393.823360,239.548150,392.917760,239.548150Q390.649540,239.548150,389.320760,238.227840Q388.000450,236.907530,388.000450,234.656230Q388.000450,232.328760,389.253060,230.966130Q390.514120,229.595040,392.646930,229.595040Q394.559690,229.595040,395.668410,230.830720Q396.785590,232.057930,396.785590,234.173810ZM395.228300,233.716780Q395.211400,232.438790,394.508900,231.677070Q393.814900,230.915350,392.663860,230.915350Q391.360470,230.915350,390.573370,231.651680Q389.794720,232.388000,389.676230,233.725240Z" fill="rgb(36,41,46)" stroke="none" stroke-width="1"/><path id="ehm6w64j85bp107" d="M405.384530,230.102850L405.384530,231.575510Q404.724380,231.236970,404.013440,231.067690Q403.302500,230.898420,402.540790,230.898420Q401.381280,230.898420,400.797300,231.253890Q400.221780,231.609360,400.221780,232.320300Q400.221780,232.861960,400.636490,233.175110Q401.051210,233.479800,402.303810,233.759100L402.837010,233.877580Q404.495860,234.233050,405.189870,234.884740Q405.892340,235.527970,405.892340,236.687480Q405.892340,238.007790,404.842870,238.777970Q403.801850,239.548150,401.973730,239.548150Q401.212010,239.548150,400.382590,239.395800Q399.561630,239.251920,398.647570,238.955700L398.647570,237.347630Q399.510850,237.796200,400.348730,238.024710Q401.186620,238.244760,402.007590,238.244760Q403.107840,238.244760,403.700290,237.872370Q404.292740,237.491510,404.292740,236.805960Q404.292740,236.171200,403.861100,235.832660Q403.437920,235.494120,401.990660,235.180970L401.448990,235.054010Q400.001730,234.749330,399.358500,234.123030Q398.715270,233.488260,398.715270,232.388000Q398.715270,231.050770,399.663190,230.322900Q400.611100,229.595040,402.354590,229.595040Q403.217870,229.595040,403.979590,229.721990Q404.741300,229.848950,405.384530,230.102850Z" fill="rgb(36,41,46)" stroke="none" stroke-width="1"/><path id="ehm6w64j85bp108" d="M409.912520,227.132160L409.912520,229.823560L413.120200,229.823560L413.120200,231.033840L409.912520,231.033840L409.912520,236.179660Q409.912520,237.339170,410.225670,237.669240Q410.547290,237.999320,411.520590,237.999320L413.120200,237.999320L413.120200,239.302700L411.520590,239.302700Q409.717860,239.302700,409.032320,238.634090Q408.346770,237.957000,408.346770,236.179660L408.346770,231.033840L407.204190,231.033840L407.204190,229.823560L408.346770,229.823560L408.346770,227.132160Z" fill="rgb(36,41,46)" stroke="none" stroke-width="1"/><path id="ehm6w64j85bp109" d="M421.211330,230.102850L421.211330,231.575510Q420.551170,231.236970,419.840240,231.067690Q419.129300,230.898420,418.367590,230.898420Q417.208080,230.898420,416.624100,231.253890Q416.048580,231.609360,416.048580,232.320300Q416.048580,232.861960,416.463290,233.175110Q416.878000,233.479800,418.130610,233.759100L418.663810,233.877580Q420.322660,234.233050,421.016670,234.884740Q421.719140,235.527970,421.719140,236.687480Q421.719140,238.007790,420.669660,238.777970Q419.628650,239.548150,417.800530,239.548150Q417.038810,239.548150,416.209390,239.395800Q415.388420,239.251920,414.474360,238.955700L414.474360,237.347630Q415.337640,237.796200,416.175530,238.024710Q417.013420,238.244760,417.834380,238.244760Q418.934640,238.244760,419.527090,237.872370Q420.119530,237.491510,420.119530,236.805960Q420.119530,236.171200,419.687890,235.832660Q419.264720,235.494120,417.817460,235.180970L417.275790,235.054010Q415.828530,234.749330,415.185300,234.123030Q414.542070,233.488260,414.542070,232.388000Q414.542070,231.050770,415.489990,230.322900Q416.437900,229.595040,418.181390,229.595040Q419.044670,229.595040,419.806380,229.721990Q420.568100,229.848950,421.211330,230.102850Z" fill="rgb(36,41,46)" stroke="none" stroke-width="1"/></g><g id="ehm6w64j85bp110" transform="matrix(1 0 0 1 62.54370000000000 89.34410000000000)"><g id="ehm6w64j85bp111" transform="matrix(1.37812000000000 0 0 1.36187000000000 -973.23299999999995 -133.05300000000000)"><ellipse id="ehm6w64j85bp112" rx="4.466530" ry="4.319050" transform="matrix(1 0 0 1 1223.41000000000008 317.62400000000002)" fill="rgb(36,41,46)" stroke="rgb(36,41,46)" stroke-width="0.948926" stroke-linecap="round" stroke-linejoin="round"/><g id="ehm6w64j85bp113"><path id="ehm6w64j85bp114" d="M1223.927500,317.485710Q1223.927500,316.756540,1223.789500,316.459670Q1223.654100,316.160190,1223.331100,316.160190Q1223.008200,316.160190,1222.870200,316.459670Q1222.732200,316.756540,1222.732200,317.485710Q1222.732200,318.222690,1222.870200,318.524770Q1223.008200,318.826850,1223.331100,318.826850Q1223.651400,318.826850,1223.789500,318.524770Q1223.927500,318.222690,1223.927500,317.485710ZM1224.930100,317.493710Q1224.930100,318.459860,1224.513400,318.985900Q1224.096800,319.509340,1223.331100,319.509340Q1222.562900,319.509340,1222.146200,318.985900Q1221.729600,318.459860,1221.729600,317.493710Q1221.729600,316.524960,1222.146200,316.001520Q1222.562900,315.475480,1223.331100,315.475480Q1224.096800,315.475480,1224.513400,316.001520Q1224.930100,316.524960,1224.930100,317.493710Z" fill="rgb(255,255,255)" stroke="none" stroke-width="0.729943"/></g></g></g><g id="ehm6w64j85bp115" transform="matrix(1 0 0 1 327.56799999999998 153.84800000000001)"><path id="ehm6w64j85bp116" d="M289.019530,226.666660L297.009100,226.666660L297.009100,228.105460L290.729160,228.105460L290.729160,231.846340L296.746730,231.846340L296.746730,233.285140L290.729160,233.285140L290.729160,237.863910L297.161440,237.863910L297.161440,239.302700L289.019530,239.302700Z" fill="rgb(36,41,46)" stroke="none" stroke-width="1"/><path id="ehm6w64j85bp117" d="M305.396450,231.279280Q305.134080,231.126940,304.820930,231.059230Q304.516240,230.983030,304.143850,230.983030Q302.823540,230.983030,302.112600,231.846310Q301.410130,232.701120,301.410130,234.309190L301.410130,239.302670L299.844380,239.302670L299.844380,229.823530L301.410130,229.823530L301.410130,231.296180Q301.901010,230.432900,302.688120,230.018190Q303.475230,229.595010,304.600880,229.595010Q304.761680,229.595010,304.956350,229.620410Q305.151010,229.637310,305.387990,229.679610Z" fill="rgb(36,41,46)" stroke="none" stroke-width="1"/><path id="ehm6w64j85bp118" d="M312.218050,231.279280Q311.955680,231.126940,311.642530,231.059230Q311.337840,230.983030,310.965450,230.983030Q309.645140,230.983030,308.934200,231.846310Q308.231730,232.701120,308.231730,234.309190L308.231730,239.302670L306.665980,239.302670L306.665980,229.823530L308.231730,229.823530L308.231730,231.296180Q308.722610,230.432900,309.509720,230.018190Q310.296830,229.595010,311.422480,229.595010Q311.583290,229.595010,311.777950,229.620410Q311.972610,229.637310,312.209590,229.679610Z" fill="rgb(36,41,46)" stroke="none" stroke-width="1"/><path id="ehm6w64j85bp119" d="M317.143820,230.915350Q315.891220,230.915350,315.163360,231.897120Q314.435490,232.870430,314.435490,234.571590Q314.435490,236.272760,315.154890,237.254530Q315.882760,238.227840,317.143820,238.227840Q318.387960,238.227840,319.115820,237.246070Q319.843690,236.264300,319.843690,234.571590Q319.843690,232.887350,319.115820,231.905580Q318.387960,230.915350,317.143820,230.915350ZM317.143820,229.595040Q319.175070,229.595040,320.334570,230.915350Q321.494070,232.235660,321.494070,234.571590Q321.494070,236.899060,320.334570,238.227840Q319.175070,239.548150,317.143820,239.548150Q315.104110,239.548150,313.944610,238.227840Q312.793570,236.899060,312.793570,234.571590Q312.793570,232.235660,313.944610,230.915350Q315.104110,229.595040,317.143820,229.595040Z" fill="rgb(36,41,46)" stroke="none" stroke-width="1"/><path id="ehm6w64j85bp120" d="M329.568280,231.279280Q329.305910,231.126940,328.992760,231.059230Q328.688070,230.983030,328.315680,230.983030Q326.995370,230.983030,326.284430,231.846310Q325.581960,232.701120,325.581960,234.309190L325.581960,239.302670L324.016210,239.302670L324.016210,229.823530L325.581960,229.823530L325.581960,231.296180Q326.072840,230.432900,326.859950,230.018190Q327.647060,229.595010,328.772710,229.595010Q328.933510,229.595010,329.128170,229.620410Q329.322840,229.637310,329.559810,229.679610Z" fill="rgb(36,41,46)" stroke="none" stroke-width="1"/><path id="ehm6w64j85bp121" d="M337.244690,230.102850L337.244690,231.575510Q336.584540,231.236970,335.873600,231.067690Q335.162670,230.898420,334.400950,230.898420Q333.241450,230.898420,332.657460,231.253890Q332.081940,231.609360,332.081940,232.320300Q332.081940,232.861960,332.496660,233.175110Q332.911370,233.479800,334.163970,233.759100L334.697170,233.877580Q336.356020,234.233050,337.050030,234.884740Q337.752500,235.527970,337.752500,236.687480Q337.752500,238.007790,336.703030,238.777970Q335.662010,239.548150,333.833890,239.548150Q333.072170,239.548150,332.242750,239.395800Q331.421790,239.251920,330.507730,238.955700L330.507730,237.347630Q331.371010,237.796200,332.208900,238.024710Q333.046780,238.244760,333.867750,238.244760Q334.968000,238.244760,335.560450,237.872370Q336.152900,237.491510,336.152900,236.805960Q336.152900,236.171200,335.721260,235.832660Q335.298080,235.494120,333.850820,235.180970L333.309150,235.054010Q331.861890,234.749330,331.218660,234.123030Q330.575430,233.488260,330.575430,232.388000Q330.575430,231.050770,331.523350,230.322900Q332.471260,229.595040,334.214750,229.595040Q335.078030,229.595040,335.839750,229.721990Q336.601460,229.848950,337.244690,230.102850Z" fill="rgb(36,41,46)" stroke="none" stroke-width="1"/></g><g id="ehm6w64j85bp122" transform="matrix(1 0 0 1 327.39900000000000 193.80600000000001)"><path id="ehm6w64j85bp123" d="M289.019530,226.666660L290.729160,226.666660L290.729160,237.863910L296.882140,237.863910L296.882140,239.302700L289.019530,239.302700Z" fill="rgb(36,41,46)" stroke="none" stroke-width="1"/><path id="ehm6w64j85bp124" d="M301.977190,230.915350Q300.724580,230.915350,299.996720,231.897120Q299.268860,232.870430,299.268860,234.571590Q299.268860,236.272760,299.988260,237.254530Q300.716120,238.227840,301.977190,238.227840Q303.221320,238.227840,303.949190,237.246070Q304.677050,236.264300,304.677050,234.571590Q304.677050,232.887350,303.949190,231.905580Q303.221320,230.915350,301.977190,230.915350ZM301.977190,229.595040Q304.008430,229.595040,305.167930,230.915350Q306.327440,232.235660,306.327440,234.571590Q306.327440,236.899060,305.167930,238.227840Q304.008430,239.548150,301.977190,239.548150Q299.937480,239.548150,298.777970,238.227840Q297.626930,236.899060,297.626930,234.571590Q297.626930,232.235660,298.777970,230.915350Q299.937480,229.595040,301.977190,229.595040Z" fill="rgb(36,41,46)" stroke="none" stroke-width="1"/><path id="ehm6w64j85bp125" d="M315.146430,234.453100Q315.146430,232.760400,314.443960,231.829410Q313.749950,230.898420,312.488880,230.898420Q311.236280,230.898420,310.533810,231.829410Q309.839800,232.760400,309.839800,234.453100Q309.839800,236.137350,310.533810,237.068330Q311.236280,237.999320,312.488880,237.999320Q313.749950,237.999320,314.443960,237.068330Q315.146430,236.137350,315.146430,234.453100ZM316.703720,238.126270Q316.703720,240.546840,315.628850,241.723270Q314.553980,242.908170,312.336540,242.908170Q311.515580,242.908170,310.787720,242.781210Q310.059850,242.662720,309.374310,242.408820L309.374310,240.893850Q310.059850,241.266240,310.728470,241.443980Q311.397090,241.621710,312.091100,241.621710Q313.623000,241.621710,314.384710,240.817680Q315.146430,240.022100,315.146430,238.405570L315.146430,237.635390Q314.664010,238.473280,313.910760,238.887990Q313.157500,239.302700,312.108030,239.302700Q310.364540,239.302700,309.298140,237.973930Q308.231730,236.645160,308.231730,234.453100Q308.231730,232.252590,309.298140,230.923810Q310.364540,229.595040,312.108030,229.595040Q313.157500,229.595040,313.910760,230.009750Q314.664010,230.424470,315.146430,231.262360L315.146430,229.823560L316.703720,229.823560Z" fill="rgb(36,41,46)" stroke="none" stroke-width="1"/><path id="ehm6w64j85bp126" d="M330.617750,227.826160Q328.755780,227.826160,327.655520,229.214180Q326.563730,230.602200,326.563730,232.997380Q326.563730,235.384090,327.655520,236.772110Q328.755780,238.160130,330.617750,238.160130Q332.479730,238.160130,333.563060,236.772110Q334.654860,235.384090,334.654860,232.997380Q334.654860,230.602200,333.563060,229.214180Q332.479730,227.826160,330.617750,227.826160ZM330.617750,226.438150Q333.275300,226.438150,334.866440,228.223950Q336.457590,230.001290,336.457590,232.997380Q336.457590,235.985000,334.866440,237.770810Q333.275300,239.548150,330.617750,239.548150Q327.951740,239.548150,326.352140,237.770810Q324.760990,235.993470,324.760990,232.997380Q324.760990,230.001290,326.352140,228.223950Q327.951740,226.438150,330.617750,226.438150Z" fill="rgb(36,41,46)" stroke="none" stroke-width="1"/><path id="ehm6w64j85bp127" d="M338.903550,235.561830L338.903550,229.823560L340.460830,229.823560L340.460830,235.502580Q340.460830,236.848280,340.985570,237.525360Q341.510310,238.193980,342.559790,238.193980Q343.820850,238.193980,344.548720,237.389950Q345.285040,236.585910,345.285040,235.197890L345.285040,229.823560L346.842330,229.823560L346.842330,239.302700L345.285040,239.302700L345.285040,237.846980Q344.717990,238.710260,343.964730,239.133430Q343.219940,239.548150,342.229710,239.548150Q340.596250,239.548150,339.749900,238.532520Q338.903550,237.516900,338.903550,235.561830ZM342.822160,229.595040" fill="rgb(36,41,46)" stroke="none" stroke-width="1"/><path id="ehm6w64j85bp128" d="M351.590370,227.132160L351.590370,229.823560L354.798050,229.823560L354.798050,231.033840L351.590370,231.033840L351.590370,236.179660Q351.590370,237.339170,351.903520,237.669240Q352.225140,237.999320,353.198440,237.999320L354.798050,237.999320L354.798050,239.302700L353.198440,239.302700Q351.395710,239.302700,350.710170,238.634090Q350.024620,237.957000,350.024620,236.179660L350.024620,231.033840L348.882040,231.033840L348.882040,229.823560L350.024620,229.823560L350.024620,227.132160Z" fill="rgb(36,41,46)" stroke="none" stroke-width="1"/></g></g></g><g id="ehm6w64j85bp129" transform="matrix(1 0 0 1 -462.54000854000003 -104.56382369999994)" opacity="0"><path id="ehm6w64j85bp130" d="M1072.539600,148.365810C1072.539600,170.465810,1054.639600,188.365810,1032.539600,188.365810C1010.439600,188.365810,992.539560,170.465810,992.539560,148.365810C992.539560,126.265810,1010.439600,108.365810,1032.539600,108.365810C1054.639600,108.365810,1072.539600,126.265810,1072.539600,148.365810Z" fill="rgb(255,255,255)" stroke="rgb(36,41,46)" stroke-width="4"/><path id="ehm6w64j85bp131" d="M1012.539600,162.165810L1031.539600,155.265810L1053.079600,162.165810L1042.539600,187.665810L1022.539600,187.665810Z" fill="rgb(255,255,255)" stroke="rgb(36,41,46)" stroke-width="2"/><path id="ehm6w64j85bp132" d="M1053.079600,138.365810C1053.079600,149.415810,1044.009600,158.365810,1032.809600,158.365810C1021.609600,158.365810,1012.539600,149.415810,1012.539600,138.365810C1012.539600,127.315810,1021.619600,118.365810,1032.809600,118.365810C1044.009600,118.365810,1053.079600,127.315810,1053.079600,138.365810Z" fill="rgb(255,255,255)" stroke="rgb(36,41,46)" stroke-width="2"/></g><g id="ehm6w64j85bp133_to" transform="translate(508.966956,205.967195)"><path id="ehm6w64j85bp133" d="M56.766318,68.498403L62.626240,79.862401L56.332767,82.050000L50.472845,70.686001L41.172490,81.272827L41.032635,45.148667L72.500000,70.329077Z" transform="translate(0,0)" opacity="0" filter="url(#ehm6w64j85bp133-filter)" fill="rgb(36,41,46)" stroke="rgb(255,255,255)" stroke-width="2"/></g></svg>