<svg id="eez5t8mwbd551" xmlns="http://www.w3.org/2000/svg" xmlns:xlink="http://www.w3.org/1999/xlink" viewBox="0 0 800 450" shape-rendering="geometricPrecision" text-rendering="geometricPrecision"><style><![CDATA[#eez5t8mwbd5539 {animation: eez5t8mwbd5539_c_o 12000ms linear infinite normal forwards}@keyframes eez5t8mwbd5539_c_o { 0% {opacity: 0} 12.500000% {opacity: 0} 13.333333% {opacity: 1} 25% {opacity: 1} 25.833333% {opacity: 0} 100% {opacity: 0} }#eez5t8mwbd5550 {animation: eez5t8mwbd5550_c_o 12000ms linear infinite normal forwards}@keyframes eez5t8mwbd5550_c_o { 0% {opacity: 0} 28.333333% {opacity: 0} 29.833333% {opacity: 1} 44.166667% {opacity: 1} 45.833333% {opacity: 0} 100% {opacity: 0} }#eez5t8mwbd5567 {animation: eez5t8mwbd5567_c_o 12000ms linear infinite normal forwards}@keyframes eez5t8mwbd5567_c_o { 0% {opacity: 0} 47.500000% {opacity: 0} 48.333333% {opacity: 1} 63.333333% {opacity: 1} 65% {opacity: 0} 100% {opacity: 0} }#eez5t8mwbd5576 {animation: eez5t8mwbd5576_c_o 12000ms linear infinite normal forwards}@keyframes eez5t8mwbd5576_c_o { 0% {opacity: 0} 66.666667% {opacity: 0} 68.333333% {opacity: 1} 83.333333% {opacity: 1} 86.666667% {opacity: 0} 100% {opacity: 0} }#eez5t8mwbd55410_to {animation: eez5t8mwbd55410_to__to 12000ms linear infinite normal forwards}@keyframes eez5t8mwbd55410_to__to { 0% {transform: translate(89.709385px,156.168587px)} 5.833333% {transform: translate(89.709385px,156.168587px);animation-timing-function: cubic-bezier(0.445000,0.050000,0.550000,0.950000)} 10% {transform: translate(20.855105px,11.319127px);animation-timing-function: cubic-bezier(0.445000,0.050000,0.550000,0.950000)} 21.666667% {transform: translate(20.855105px,11.319127px)} 25.833333% {transform: translate(84.814273px,7.100102px)} 37.500000% {transform: translate(84.814273px,7.100102px)} 42.500000% {transform: translate(69.189482px,121.782017px)} 58.333333% {transform: translate(69.189482px,121.782017px)} 62.500000% {transform: translate(225.788616px,8.667807px)} 100% {transform: translate(225.788616px,8.667807px)} }#eez5t8mwbd55410 {animation: eez5t8mwbd55410_c_o 12000ms linear infinite normal forwards}@keyframes eez5t8mwbd55410_c_o { 0% {opacity: 0} 2.500000% {opacity: 0} 4.166667% {opacity: 1} 77.500000% {opacity: 1} 79.166667% {opacity: 0} 100% {opacity: 0} }]]></style><g id="eez5t8mwbd552" transform="matrix(1 0 0 1 -22.54000854499975 -184.56382369999994)"><g id="eez5t8mwbd553" transform="matrix(1 0 0 1 -457.45999999999998 -1.63419000000000)"><path id="eez5t8mwbd554" d="M500,200L1260,200L1260,632.396000L500,632.396000Z" fill="rgb(255,255,255)" stroke="rgb(36,41,46)" stroke-width="4"/><path id="eez5t8mwbd555" d="M499.999980,200L1260,200L1260,260L499.999980,260Z" fill="rgb(36,41,46)" stroke="rgb(36,41,46)" stroke-width="2" stroke-opacity="0"/><g id="eez5t8mwbd556" transform="matrix(1 0 0 1 816.84400000000005 -2.70642000000000)"><path id="eez5t8mwbd557" d="M298.501970,227.302740L298.501970,230.182950Q297.380880,229.681650,296.314470,229.426440Q295.248060,229.171230,294.300140,229.171230Q293.042330,229.171230,292.440760,229.517590Q291.839200,229.863940,291.839200,230.593110Q291.839200,231.139990,292.240240,231.449880Q292.650400,231.750670,293.716810,231.969420L295.211600,232.270200Q297.481140,232.725930,298.438170,233.655620Q299.395200,234.585310,299.395200,236.298850Q299.395200,238.550160,298.055360,239.653020Q296.724630,240.746780,293.981130,240.746780Q292.686860,240.746780,291.383470,240.500680Q290.080080,240.254590,288.776700,239.771510L288.776700,236.809270Q290.080080,237.501980,291.292320,237.857450Q292.513680,238.203800,293.643890,238.203800Q294.792330,238.203800,295.403010,237.820990Q296.013690,237.438180,296.013690,236.727240Q296.013690,236.089210,295.594420,235.742860Q295.184260,235.396510,293.944670,235.123070L292.586600,234.822290Q290.544930,234.384780,289.597010,233.427750Q288.658210,232.470720,288.658210,230.848320Q288.658210,228.815760,289.970710,227.722010Q291.283210,226.628260,293.744150,226.628260Q294.865250,226.628260,296.050150,226.801440Q297.235040,226.965500,298.501970,227.302740Z" fill="rgb(255,255,255)" stroke="none" stroke-width="1"/><path id="eez5t8mwbd558" d="M306.905630,235.888690Q305.884800,235.888690,305.365270,236.235050Q304.854850,236.581400,304.854850,237.255880Q304.854850,237.875680,305.265010,238.231150Q305.684280,238.577500,306.422560,238.577500Q307.343130,238.577500,307.972040,237.921250Q308.600950,237.255880,308.600950,236.262390L308.600950,235.888690ZM311.891320,234.658220L311.891320,240.482450L308.600950,240.482450L308.600950,238.969430Q307.944700,239.899120,307.124380,240.327500Q306.304070,240.746780,305.128290,240.746780Q303.542350,240.746780,302.548860,239.826200Q301.564480,238.896510,301.564480,237.419950Q301.564480,235.624370,302.794950,234.785830Q304.034540,233.947280,306.677770,233.947280L308.600950,233.947280L308.600950,233.692070Q308.600950,232.917330,307.990270,232.561860Q307.379590,232.197280,306.085320,232.197280Q305.037140,232.197280,304.134800,232.406920Q303.232450,232.616550,302.457710,233.035820L302.457710,230.547540Q303.505890,230.292330,304.563180,230.164720Q305.620480,230.028010,306.677770,230.028010Q309.439490,230.028010,310.660850,231.121760Q311.891320,232.206400,311.891320,234.658220Z" fill="rgb(255,255,255)" stroke="none" stroke-width="1"/><path id="eez5t8mwbd559" d="M322.901760,230.593110L322.901760,233.072280Q321.853580,232.634780,320.878320,232.416030Q319.903050,232.197280,319.037170,232.197280Q318.107480,232.197280,317.651750,232.434260Q317.205130,232.662130,317.205130,233.145200Q317.205130,233.537130,317.542370,233.746760Q317.888730,233.956400,318.772840,234.056660L319.347060,234.138660Q321.853580,234.457670,322.719470,235.186840Q323.585350,235.916010,323.585350,237.474600Q323.585350,239.106120,322.382230,239.926430Q321.179100,240.746750,318.791070,240.746750Q317.779350,240.746750,316.694720,240.582680Q315.619190,240.427730,314.479870,240.108720L314.479870,237.629550Q315.455130,238.103510,316.475970,238.340490Q317.505920,238.577470,318.563210,238.577470Q319.520240,238.577470,320.003320,238.313150Q320.486390,238.048820,320.486390,237.529290Q320.486390,237.091790,320.149150,236.882150Q319.821020,236.663400,318.827530,236.544910L318.253310,236.472010Q316.074920,236.198570,315.199920,235.460290Q314.324920,234.722000,314.324920,233.218100Q314.324920,231.595700,315.436900,230.811840Q316.548880,230.027990,318.845760,230.027990Q319.748110,230.027990,320.741600,230.164700Q321.735090,230.301420,322.901760,230.593090Z" fill="rgb(255,255,255)" stroke="none" stroke-width="1"/><path id="eez5t8mwbd5510" d="M336.190840,229.526700L336.190840,237.830100L337.448660,237.830100Q339.599700,237.830100,340.729910,236.763690Q341.869240,235.697290,341.869240,233.664730Q341.869240,231.641290,340.739030,230.584000Q339.608820,229.526700,337.448660,229.526700ZM332.681720,226.874350L336.382250,226.874350Q339.481210,226.874350,340.994240,227.320970Q342.516380,227.758470,343.601010,228.815760Q344.558050,229.736340,345.022890,230.939470Q345.487740,232.142590,345.487740,233.664730Q345.487740,235.205100,345.022890,236.417340Q344.558050,237.620470,343.601010,238.541040Q342.507260,239.598340,340.976010,240.044950Q339.444760,240.482450,336.382250,240.482450L332.681720,240.482450Z" fill="rgb(255,255,255)" stroke="none" stroke-width="1"/><path id="eez5t8mwbd5511" d="M348.367950,236.955100L351.649200,236.955100L351.649200,240.482450L348.367950,240.482450Z" fill="rgb(255,255,255)" stroke="none" stroke-width="1"/><path id="eez5t8mwbd5512" d="M361.766410,226.874350L371.236480,226.874350L371.236480,229.526700L365.275530,229.526700L365.275530,232.060560L370.881010,232.060560L370.881010,234.712910L365.275530,234.712910L365.275530,237.830100L371.437000,237.830100L371.437000,240.482450L361.766410,240.482450Z" fill="rgb(255,255,255)" stroke="none" stroke-width="1"/><path id="eez5t8mwbd5513" d="M383.832860,231.969420Q384.452650,231.021500,385.300310,230.529310Q386.157080,230.028010,387.177920,230.028010Q388.937030,230.028010,389.857610,231.112640Q390.778180,232.197280,390.778180,234.266290L390.778180,240.482450L387.496930,240.482450L387.496930,235.159530Q387.505930,235.041040,387.505930,234.913430Q387.514930,234.785830,387.514930,234.548850Q387.514930,233.464210,387.195910,232.981140Q386.876900,232.488950,386.165960,232.488950Q385.236280,232.488950,384.725860,233.254570Q384.224560,234.020200,384.206330,235.469420L384.206330,240.482450L380.925070,240.482450L380.925070,235.159530Q380.925070,233.464210,380.633400,232.981140Q380.341740,232.488950,379.594340,232.488950Q378.655530,232.488950,378.145120,233.263690Q377.634700,234.029320,377.634700,235.460310L377.634700,240.482450L374.353440,240.482450L374.353440,230.274100L377.634700,230.274100L377.634700,231.768890Q378.236260,230.903010,379.011000,230.465510Q379.794860,230.028010,380.733660,230.028010Q381.790960,230.028010,382.602160,230.538420Q383.413360,231.048840,383.832630,231.969420Z" fill="rgb(255,255,255)" stroke="none" stroke-width="1"/><path id="eez5t8mwbd5514" d="M398.680540,232.361340Q397.595900,232.361340,397.021680,233.145200Q396.456580,233.919940,396.456580,235.387390Q396.456580,236.854840,397.021680,237.638700Q397.595900,238.413440,398.680540,238.413440Q399.746950,238.413440,400.312050,237.638700Q400.877160,236.854840,400.877160,235.387390Q400.877160,233.919940,400.312050,233.145200Q399.746950,232.361340,398.680540,232.361340ZM398.680540,230.028010Q401.314660,230.028010,402.791220,231.449880Q404.276900,232.871760,404.276900,235.387390Q404.276900,237.903020,402.791220,239.324900Q401.314660,240.746780,398.680540,240.746780Q396.037300,240.746780,394.542510,239.324900Q393.056830,237.903020,393.056830,235.387390Q393.056830,232.871760,394.542510,231.449880Q396.037300,230.028010,398.680540,230.028010Z" fill="rgb(255,255,255)" stroke="none" stroke-width="1"/></g></g><g id="eez5t8mwbd5515" transform="matrix(1 0 0 1 -457.45999999999998 -1.63419000000000)"><path id="eez5t8mwbd5516" d="M1040,200L1260,200L1260,260L1040,260Z" fill="rgb(255,255,255)" fill-opacity="0" stroke="rgb(0,0,0)" stroke-width="2" stroke-opacity="0"/></g><g id="eez5t8mwbd5517" transform="matrix(1 0 0 1 -457.45999999999998 -1.63419000000000)"><path id="eez5t8mwbd5518" d="M1060,269.300000L1260,269.300000L1260,320L1060,320Z" fill="rgb(255,255,255)" fill-opacity="0" stroke="rgb(0,0,0)" stroke-width="2" stroke-opacity="0"/></g></g><g id="eez5t8mwbd5519" display="none" transform="matrix(1 0 0 1 -22.54000854499975 -184.56382369999994)"><g id="eez5t8mwbd5520" transform="matrix(1 0 0 1 -226.53299999999999 -13.92630000000000)"><path id="eez5t8mwbd5521" d="M308.755860,250.998050Q307.099610,251.857420,305.302730,252.294920Q303.505860,252.732420,301.552730,252.732420Q295.724610,252.732420,292.318360,249.482420Q288.912110,246.216800,288.912110,240.638670Q288.912110,235.044920,292.318360,231.794920Q295.724610,228.529300,301.552730,228.529300Q303.505860,228.529300,305.302730,228.966800Q307.099610,229.404300,308.755860,230.263670L308.755860,235.091800Q307.083980,233.951170,305.458980,233.419920Q303.833980,232.888670,302.037110,232.888670Q298.818360,232.888670,296.974610,234.951170Q295.130860,237.013670,295.130860,240.638670Q295.130860,244.248050,296.974610,246.310550Q298.818360,248.373050,302.037110,248.373050Q303.833980,248.373050,305.458980,247.841800Q307.083980,247.310550,308.755860,246.169920Z" fill="rgb(255,255,255)" stroke="none" stroke-width="1"/><path id="eez5t8mwbd5522" d="M326.490230,239.544920Q325.755860,239.201170,325.021480,239.044920Q324.302730,238.873050,323.568360,238.873050Q321.412110,238.873050,320.240230,240.263670Q319.083980,241.638670,319.083980,244.216800L319.083980,252.279300L313.490230,252.279300L313.490230,234.779300L319.083980,234.779300L319.083980,237.654300Q320.162110,235.935550,321.552730,235.154300Q322.958980,234.357420,324.912110,234.357420Q325.193360,234.357420,325.521480,234.388620Q325.849610,234.404220,326.474610,234.482320Z" fill="rgb(255,255,255)" stroke="none" stroke-width="1"/><path id="eez5t8mwbd5523" d="M346.740230,243.482420L346.740230,245.076170L333.662110,245.076170Q333.865230,247.044920,335.083980,248.029300Q336.302730,249.013670,338.490230,249.013670Q340.255860,249.013670,342.099610,248.498050Q343.958980,247.966800,345.912110,246.904300L345.912110,251.216800Q343.927730,251.966800,341.943360,252.341800Q339.958980,252.732420,337.974610,252.732420Q333.224610,252.732420,330.583980,250.326170Q327.958980,247.904300,327.958980,243.544920Q327.958980,239.263670,330.537110,236.810550Q333.130860,234.357420,337.662110,234.357420Q341.787110,234.357420,344.255860,236.841800Q346.740230,239.326170,346.740230,243.482420ZM340.990230,241.623050Q340.990230,240.029300,340.052730,239.060550Q339.130860,238.076170,337.630860,238.076170Q336.005860,238.076170,334.990230,238.998050Q333.974610,239.904300,333.724610,241.623050Z" fill="rgb(255,255,255)" stroke="none" stroke-width="1"/><path id="eez5t8mwbd5524" d="M358.818360,244.404300Q357.068360,244.404300,356.177730,244.998050Q355.302730,245.591800,355.302730,246.748050Q355.302730,247.810550,356.005860,248.419920Q356.724610,249.013670,357.990230,249.013670Q359.568360,249.013670,360.646480,247.888670Q361.724610,246.748050,361.724610,245.044920L361.724610,244.404300ZM367.365230,242.294920L367.365230,252.279300L361.724610,252.279300L361.724610,249.685550Q360.599610,251.279300,359.193360,252.013670Q357.787110,252.732420,355.771480,252.732420Q353.052730,252.732420,351.349610,251.154300Q349.662110,249.560550,349.662110,247.029300Q349.662110,243.951170,351.771480,242.513670Q353.896480,241.076170,358.427730,241.076170L361.724610,241.076170L361.724610,240.638670Q361.724610,239.310550,360.677730,238.701170Q359.630860,238.076170,357.412110,238.076170Q355.615230,238.076170,354.068360,238.435550Q352.521480,238.794920,351.193360,239.513670L351.193360,235.248050Q352.990230,234.810550,354.802730,234.591800Q356.615230,234.357420,358.427730,234.357420Q363.162110,234.357420,365.255860,236.232420Q367.365230,238.091800,367.365230,242.294920Z" fill="rgb(255,255,255)" stroke="none" stroke-width="1"/><path id="eez5t8mwbd5525" d="M378.677730,229.810550L378.677730,234.779300L384.443360,234.779300L384.443360,238.779300L378.677730,238.779300L378.677730,246.201170Q378.677730,247.419920,379.162110,247.857420Q379.646480,248.279300,381.083980,248.279300L383.958980,248.279300L383.958980,252.279300L379.162110,252.279300Q375.849610,252.279300,374.458980,250.904300Q373.083980,249.513670,373.083980,246.201170L373.083980,238.779300L370.302730,238.779300L370.302730,234.779300L373.083980,234.779300L373.083980,229.810550Z" fill="rgb(255,255,255)" stroke="none" stroke-width="1"/><path id="eez5t8mwbd5526" d="M405.333980,243.482420L405.333980,245.076170L392.255860,245.076170Q392.458980,247.044920,393.677730,248.029300Q394.896480,249.013670,397.083980,249.013670Q398.849610,249.013670,400.693360,248.498050Q402.552730,247.966800,404.505860,246.904300L404.505860,251.216800Q402.521480,251.966800,400.537110,252.341800Q398.552730,252.732420,396.568360,252.732420Q391.818360,252.732420,389.177730,250.326170Q386.552730,247.904300,386.552730,243.544920Q386.552730,239.263670,389.130860,236.810550Q391.724610,234.357420,396.255860,234.357420Q400.380860,234.357420,402.849610,236.841800Q405.333980,239.326170,405.333980,243.482420ZM399.583980,241.623050Q399.583980,240.029300,398.646480,239.060550Q397.724610,238.076170,396.224610,238.076170Q394.599610,238.076170,393.583980,238.998050Q392.568360,239.904300,392.318360,241.623050Z" fill="rgb(255,255,255)" stroke="none" stroke-width="1"/><path id="eez5t8mwbd5527" d="M437.193360,229.685550L437.193360,234.623050Q435.271480,233.763670,433.443360,233.326170Q431.615230,232.888670,429.990230,232.888670Q427.833980,232.888670,426.802730,233.482420Q425.771480,234.076170,425.771480,235.326170Q425.771480,236.263670,426.458980,236.794920Q427.162110,237.310550,428.990230,237.685550L431.552730,238.201170Q435.443360,238.982420,437.083980,240.576170Q438.724610,242.169920,438.724610,245.107420Q438.724610,248.966800,436.427730,250.857420Q434.146480,252.732420,429.443360,252.732420Q427.224610,252.732420,424.990230,252.310550Q422.755860,251.888670,420.521480,251.060550L420.521480,245.982420Q422.755860,247.169920,424.833980,247.779300Q426.927730,248.373050,428.865230,248.373050Q430.833980,248.373050,431.880860,247.716800Q432.927730,247.060550,432.927730,245.841800Q432.927730,244.748050,432.208980,244.154300Q431.505860,243.560550,429.380860,243.091800L427.052730,242.576170Q423.552730,241.826170,421.927730,240.185550Q420.318360,238.544920,420.318360,235.763670Q420.318360,232.279300,422.568360,230.404300Q424.818360,228.529300,429.037110,228.529300Q430.958980,228.529300,432.990230,228.826170Q435.021480,229.107420,437.193360,229.685550Z" fill="rgb(255,255,255)" stroke="none" stroke-width="1"/><path id="eez5t8mwbd5528" d="M458.162110,248.029300L448.755860,248.029300L447.271480,252.279300L441.224610,252.279300L449.865230,228.951170L457.037110,228.951170L465.677730,252.279300L459.630860,252.279300ZM450.255860,243.701170L456.646480,243.701170L453.458980,234.419920Z" fill="rgb(255,255,255)" stroke="none" stroke-width="1"/><path id="eez5t8mwbd5529" d="M485.005860,229.685550L485.005860,234.623050Q483.083980,233.763670,481.255860,233.326170Q479.427730,232.888670,477.802730,232.888670Q475.646480,232.888670,474.615230,233.482420Q473.583980,234.076170,473.583980,235.326170Q473.583980,236.263670,474.271480,236.794920Q474.974610,237.310550,476.802730,237.685550L479.365230,238.201170Q483.255860,238.982420,484.896480,240.576170Q486.537110,242.169920,486.537110,245.107420Q486.537110,248.966800,484.240230,250.857420Q481.958980,252.732420,477.255860,252.732420Q475.037110,252.732420,472.802730,252.310550Q470.568360,251.888670,468.333980,251.060550L468.333980,245.982420Q470.568360,247.169920,472.646480,247.779300Q474.740230,248.373050,476.677730,248.373050Q478.646480,248.373050,479.693360,247.716800Q480.740230,247.060550,480.740230,245.841800Q480.740230,244.748050,480.021480,244.154300Q479.318360,243.560550,477.193360,243.091800L474.865230,242.576170Q471.365230,241.826170,469.740230,240.185550Q468.130860,238.544920,468.130860,235.763670Q468.130860,232.279300,470.380860,230.404300Q472.630860,228.529300,476.849610,228.529300Q478.771480,228.529300,480.802730,228.826170Q482.833980,229.107420,485.005860,229.685550Z" fill="rgb(255,255,255)" stroke="none" stroke-width="1"/><path id="eez5t8mwbd5530" d="M517.115230,248.029300L507.708980,248.029300L506.224610,252.279300L500.177730,252.279300L508.818360,228.951170L515.990230,228.951170L524.630860,252.279300L518.583980,252.279300ZM509.208980,243.701170L515.599610,243.701170L512.412110,234.419920Z" fill="rgb(255,255,255)" stroke="none" stroke-width="1"/><path id="eez5t8mwbd5531" d="M533.068360,249.748050L533.068360,258.935550L527.474610,258.935550L527.474610,234.779300L533.068360,234.779300L533.068360,237.341800Q534.224610,235.810550,535.630860,235.091800Q537.037110,234.357420,538.865230,234.357420Q542.099610,234.357420,544.177730,236.935550Q546.255860,239.498050,546.255860,243.544920Q546.255860,247.591800,544.177730,250.169920Q542.099610,252.732420,538.865230,252.732420Q537.037110,252.732420,535.630860,252.013670Q534.224610,251.279300,533.068360,249.748050ZM536.787110,238.419920Q534.990230,238.419920,534.021480,239.748050Q533.068360,241.060550,533.068360,243.544920Q533.068360,246.029300,534.021480,247.357420Q534.990230,248.669920,536.787110,248.669920Q538.583980,248.669920,539.521480,247.357420Q540.474610,246.044920,540.474610,243.544920Q540.474610,241.044920,539.521480,239.732420Q538.583980,238.419920,536.787110,238.419920Z" fill="rgb(255,255,255)" stroke="none" stroke-width="1"/><path id="eez5t8mwbd5532" d="M555.974610,249.748050L555.974610,258.935550L550.380860,258.935550L550.380860,234.779300L555.974610,234.779300L555.974610,237.341800Q557.130860,235.810550,558.537110,235.091800Q559.943360,234.357420,561.771480,234.357420Q565.005860,234.357420,567.083980,236.935550Q569.162110,239.498050,569.162110,243.544920Q569.162110,247.591800,567.083980,250.169920Q565.005860,252.732420,561.771480,252.732420Q559.943360,252.732420,558.537110,252.013670Q557.130860,251.279300,555.974610,249.748050ZM559.693360,238.419920Q557.896480,238.419920,556.927730,239.748050Q555.974610,241.060550,555.974610,243.544920Q555.974610,246.029300,556.927730,247.357420Q557.896480,248.669920,559.693360,248.669920Q561.490230,248.669920,562.427730,247.357420Q563.380860,246.044920,563.380860,243.544920Q563.380860,241.044920,562.427730,239.732420Q561.490230,238.419920,559.693360,238.419920Z" fill="rgb(255,255,255)" stroke="none" stroke-width="1"/></g></g><g id="eez5t8mwbd5533" transform="matrix(1 0 0 1 -22.54000854499975 -184.56382369999994)"><path id="eez5t8mwbd5534" d="M62.681250,242.534780L100.373560,242.534780L100.373560,245.227090L62.681250,245.227090ZM94.181259,219.650170C95.258169,218.573240,95.258169,216.957850,94.181259,215.880940C94.181259,215.880940,94.181259,215.880940,94.181259,215.880940L89.335099,211.034780C88.258174,209.957860,86.642790,209.957860,85.565867,211.034780C85.565867,211.034780,85.565867,211.034780,85.565867,211.034780L65.373558,231.227080L65.373558,239.842460L73.988943,239.842460ZM87.450481,212.919390L92.296629,217.765540L88.258174,221.804000L83.412020,216.957850ZM68.065866,237.150170L68.065866,232.304010L81.527405,218.842470L86.373558,223.688630L72.912020,237.150170Z" fill="rgb(255,255,255)" stroke="none" stroke-width="0.999995"/><path id="eez5t8mwbd5535" d="M141.767430,213.143760L146.754930,218.116670L147.600760,218.977090L166.311180,218.977090L166.311180,242.310420L131.311180,242.310420L131.311180,213.143760L141.767430,213.143760M141.767430,210.227090L131.311180,210.227090C130.537631,210.227089,129.795764,210.534380,129.248782,211.081362C128.701800,211.628344,128.394509,212.370211,128.394510,213.143760L128.394510,242.310420C128.394509,243.083969,128.701800,243.825836,129.248782,244.372818C129.795764,244.919800,130.537631,245.227091,131.311180,245.227090L166.311180,245.227090C167.922009,245.227086,169.227842,243.921249,169.227840,242.310420L169.227840,218.977090C169.227842,217.366261,167.922009,216.060424,166.311180,216.060420L148.811180,216.060420L143.838260,211.087510C143.290225,210.536202,142.544786,210.226476,141.767430,210.227090Z" fill="rgb(255,255,255)" stroke="none" stroke-width="1"/><text id="eez5t8mwbd5536" dx="0" dy="0" font-family="sans-serif" font-size="16" fill="rgb(0,0,0)" stroke="none" stroke-width="0.999999"/><path id="eez5t8mwbd5537" d="M233.172020,217.941690L225.880320,210.650030C225.605108,210.377056,225.232543,210.224881,224.844920,210.227120L201.511620,210.227120C199.900817,210.227155,198.595022,211.532977,198.595020,213.143780L198.595020,242.310430C198.595022,243.921233,199.900817,245.227055,201.511620,245.227090L230.678320,245.227090C232.289123,245.227055,233.594918,243.921233,233.594920,242.310430L233.594920,218.977110C233.597167,218.589482,233.444995,218.216908,233.172020,217.941690ZM210.261620,213.143780L221.928320,213.143780L221.928320,218.977110L210.261620,218.977110ZM221.928320,242.310430L210.261620,242.310430L210.261620,230.643760L221.928320,230.643760ZM224.844920,242.310430L224.844920,230.643760C224.844918,229.032957,223.539123,227.727135,221.928320,227.727100L210.261620,227.727100C208.650817,227.727135,207.345022,229.032957,207.345020,230.643760L207.345020,242.310430L201.511620,242.310430L201.511620,213.143780L207.345020,213.143780L207.345020,218.977110C207.345022,220.587913,208.650817,221.893735,210.261620,221.893770L221.928320,221.893770C223.539123,221.893735,224.844918,220.587913,224.844920,218.977110L224.844920,213.741700L230.678320,219.575020L230.678320,242.310430Z" fill="rgb(255,255,255)" stroke="none" stroke-width="1"/><path id="eez5t8mwbd5538" d="M293.383170,232.741150C291.490116,232.750681,289.703640,233.618668,288.526170,235.101000L279.398870,229.394910C279.731517,228.321320,279.731517,227.172200,279.398870,226.098610L288.526170,220.392520C290.439004,222.761021,293.781311,223.404386,296.436710,221.915230C299.092109,220.426073,300.286135,217.238718,299.262720,214.371428C298.239305,211.504137,295.296934,209.793177,292.298745,210.321942C289.300556,210.850708,287.120990,213.464981,287.140170,216.509380C287.146058,217.067726,287.230108,217.622497,287.389870,218.157530L278.262670,223.863620C276.611088,221.784494,273.825088,220.977551,271.317985,221.852147C268.810881,222.726742,267.131314,225.091485,267.131314,227.746760C267.131314,230.402035,268.810881,232.766778,271.317985,233.641373C273.825088,234.515969,276.611088,233.709026,278.262670,231.629900L287.389870,237.335990C287.230108,237.871023,287.146058,238.425794,287.140170,238.984140C287.140171,242.432046,289.935250,245.227126,293.383156,245.227128C296.831062,245.227130,299.626144,242.432052,299.626148,238.984146C299.626152,235.536240,296.831076,232.741156,293.383170,232.741150ZM293.383170,212.763590C295.451914,212.763594,297.128960,214.440645,297.128957,216.509389C297.128954,218.578133,295.451903,220.255179,293.383159,220.255177C291.314415,220.255174,289.637368,218.578124,289.637370,216.509380C289.637371,215.515933,290.032017,214.563176,290.734491,213.860704C291.436965,213.158232,292.389723,212.763588,293.383170,212.763590ZM273.405670,231.492550C271.890629,231.492588,270.524748,230.579978,269.944941,229.180274C269.365134,227.780569,269.685586,226.169421,270.756869,225.098113C271.828152,224.026804,273.439292,223.706314,274.839010,224.286087C276.238729,224.865860,277.151371,226.231719,277.151370,227.746760C277.151368,229.815467,275.474377,231.492498,273.405670,231.492550ZM293.383170,242.729930C291.314426,242.729926,289.637380,241.052875,289.637383,238.984131C289.637386,236.915387,291.314437,235.238341,293.383181,235.238343C295.451925,235.238346,297.128972,236.915396,297.128970,238.984140C297.128969,239.977587,296.734323,240.930344,296.031849,241.632816C295.329375,242.335288,294.376617,242.729932,293.383170,242.729930Z" fill="rgb(255,255,255)" stroke="none" stroke-width="1"/></g><g id="eez5t8mwbd5539" transform="matrix(1 0 0 1 -22.54000854499975 -184.56382369999994)" opacity="0"><path id="eez5t8mwbd5540" d="M284.668510,305.507220L544.905810,305.507220L544.905810,542.289860L284.668510,542.289860Z" fill="rgb(255,255,255)" stroke="rgb(36,41,46)" stroke-width="3.999990"/><g id="eez5t8mwbd5541" transform="matrix(1 0 0 1 124.09000000000000 132.56899999999999)"><text id="eez5t8mwbd5542" dx="0" dy="0" font-family="sans-serif" font-size="16" transform="matrix(1 0 0 1 175.28550000000001 241.44204300000001)" fill="rgb(36,41,46)" stroke="none" stroke-width="1"><![CDATA[Name]]></text></g><path id="eez5t8mwbd5543" d="M301.195980,380.115270L526.780910,380.115270L526.780910,409.619130L301.195980,409.619130Z" fill="rgb(255,255,255)" stroke="rgb(36,41,46)" stroke-width="2"/><path id="eez5t8mwbd5544" d="M300.641520,442.824710L526.173810,442.824710L526.173810,517.382240L300.641520,517.382240Z" fill="rgb(255,255,255)" stroke="rgb(36,41,46)" stroke-width="2"/><text id="eez5t8mwbd5545" dx="0" dy="0" font-family="sans-serif" font-size="16" font-weight="bold" transform="matrix(1 0 0 1 308.14774999999997 400.28126250000008)" fill="rgb(36,41,46)" stroke="none" stroke-width="0.999999"><![CDATA[Look ma, a project]]></text><text id="eez5t8mwbd5546" dx="0" dy="0" font-family="sans-serif" font-size="24.670000" font-weight="bold" transform="matrix(1 0 0 1 300.08010000000002 340.58807500000000)" fill="rgb(36,41,46)" stroke="none" stroke-width="1"><![CDATA[New Project]]></text><g id="eez5t8mwbd5547" transform="matrix(1 0 0 1 134.54200000000000 183.08300000000000)"><text id="eez5t8mwbd5548" dx="0" dy="0" font-family="sans-serif" font-size="16" transform="matrix(1 0 0 1 164.44950000000000 253.12360000000001)" fill="rgb(36,41,46)" stroke="none" stroke-width="1"><![CDATA[Description]]></text></g><text id="eez5t8mwbd5549" dx="0" dy="0" font-family="sans-serif" font-size="16" font-weight="bold" transform="matrix(1 0 0 1 308.72587499999997 463.95837499999999)" fill="rgb(0,0,0)" stroke="none" stroke-width="0.999999"><![CDATA[All I ever wanted!]]></text></g><g id="eez5t8mwbd5550" transform="matrix(1 0 0 1 -462.54000854499969 -104.56382369999994)" opacity="0"><g id="eez5t8mwbd5551" transform="matrix(1 0 0 1 -187.69999999999999 -379.10700000000003)"><g id="eez5t8mwbd5552" transform="matrix(1 0 0 1 711.06799999999998 399.65699999999998)"><text id="eez5t8mwbd5553" dx="0" dy="0" font-family="sans-serif" font-size="16" transform="matrix(1 0 0 1 163.44950000000000 253.12360000000001)" fill="rgb(36,41,46)" stroke="none" stroke-width="1"><![CDATA[/files/20043bdb-9267-426d-a067...]]></text><g id="eez5t8mwbd5554"><text id="eez5t8mwbd5555" dx="0" dy="0" font-family="sans-serif" font-size="16" transform="matrix(1 0 0 1 163.09050000000002 288.61959999999999)" fill="rgb(36,41,46)" stroke="none" stroke-width="1"><![CDATA[/files/97977a86-18b5-4700-950c...]]></text><g id="eez5t8mwbd5556" transform="matrix(1 0 0 1 -165.63300000000001 35.30000000000000)"><text id="eez5t8mwbd5557" dx="0" dy="0" font-family="sans-serif" font-size="16" font-weight="bold" transform="matrix(1 0 0 1 164.44950000000000 253.12360000000001)" fill="rgb(36,41,46)" stroke="none" stroke-width="1"><![CDATA[Look Ma, anoth...]]></text></g></g><g id="eez5t8mwbd5558"><text id="eez5t8mwbd5559" dx="0" dy="0" font-family="sans-serif" font-size="16" transform="matrix(1 0 0 1 162.62750000000000 326.95580000000001)" fill="rgb(36,41,46)" stroke="none" stroke-width="1"><![CDATA[/files/b5fdbba8-b0aa-11ea-b3de...]]></text><g id="eez5t8mwbd5560" transform="matrix(1 0 0 1 -166.09700000000001 73.63620000000000)"><text id="eez5t8mwbd5561" dx="0" dy="0" font-family="sans-serif" font-size="16" font-weight="bold" transform="matrix(1 0 0 1 165.49162500000003 251.59327250000001)" fill="rgb(36,41,46)" stroke="none" stroke-width="1"><![CDATA[So Many Projec...]]></text></g></g></g><g id="eez5t8mwbd5562" transform="matrix(1 0 0 1 545.79300000000001 399.46100000000001)"><text id="eez5t8mwbd5563" dx="0" dy="0" font-family="sans-serif" font-size="16" font-weight="bold" transform="matrix(1 0 0 1 164.09150000000000 253.12360000000001)" fill="rgb(36,41,46)" stroke="none" stroke-width="1"><![CDATA[Look Ma, a pro...]]></text></g></g><g id="eez5t8mwbd5564" transform="matrix(1 0 0 1 -187.69999999999999 -379.10700000000003)"><text id="eez5t8mwbd5565" dx="0" dy="0" font-family="sans-serif" font-size="22" font-weight="bold" transform="matrix(1 0 0 1 711.16250000000002 616.00937499999998)" fill="rgb(36,41,46)" stroke="none" stroke-width="1"><![CDATA[Project name]]></text><text id="eez5t8mwbd5566" dx="0" dy="0" font-family="sans-serif" font-size="22" font-weight="bold" transform="matrix(1 0 0 1 874.53449999999998 616.51537499999995)" fill="rgb(36,41,46)" stroke="none" stroke-width="1"><![CDATA[Location]]></text></g></g><g id="eez5t8mwbd5567" transform="matrix(1 0 0 1 -465.12555795499975 -92.37679375999998)" opacity="0"><text id="eez5t8mwbd5568" dx="0" dy="0" font-family="sans-serif" font-size="24" font-weight="bold" transform="matrix(1 0 0 1 526.64650000000006 226.32187500000001)" fill="rgb(36,41,46)" stroke="none" stroke-width="1"><![CDATA[Look Ma, a project]]></text><g id="eez5t8mwbd5569" transform="matrix(1 0 0 1 3.60932000000000 0)"><path id="eez5t8mwbd5570" d="M526.380300,258.341160L526.380300,346.849260L737.121700,346.849260L736.148450,345.876020" fill="none" stroke="rgb(36,41,46)" stroke-width="4"/><path id="eez5t8mwbd5571" d="M526.380300,346.849260C526.380300,346.849260,544.294160,308.822400,560.128710,309.757010C575.963250,310.691610,575.090390,322.288390,588.873660,329.276690C602.656940,336.264990,614.118480,312.321750,636.482750,310.759920C658.847020,309.198080,654.674080,335.206580,673.950010,330.667330C693.225950,326.128080,696.551030,287.896680,713.272220,280.094300C729.993410,272.291930,739.056350,272.834760,739.056350,272.834760" fill="none" stroke="rgb(36,41,46)" stroke-width="4"/></g><g id="eez5t8mwbd5572" transform="matrix(0.46962700000000 0 0 0.46899900000000 154.87700000000001 266.97699999999998)"><path id="eez5t8mwbd5573" d="M798.748830,252.907130L1058.986100,252.907130L1058.986100,489.689770L798.748830,489.689770Z" fill="rgb(255,255,255)" stroke="rgb(36,41,46)" stroke-width="8.523080"/><path id="eez5t8mwbd5574" d="M797.645960,301.982900L1058.758500,301.982900L1059.790900,302.578920" fill="none" stroke="rgb(36,41,46)" stroke-width="8.523100"/><path id="eez5t8mwbd5575" d="M869.810380,254.258170L869.810380,486.541670L871.561320,487.003240" fill="none" stroke="rgb(36,41,46)" stroke-width="8.523100"/></g></g><g id="eez5t8mwbd5576" transform="matrix(1 0 0 1 -457.11602783499973 -107.03184876000026)" opacity="0"><g id="eez5t8mwbd5577" transform="matrix(1 0 0 1 725.11599999999999 219.68500000000000)"><path id="eez5t8mwbd5578" d="M32,32L40,32L40,40L32,40Z" fill="rgb(36,41,46)" stroke="none" stroke-width="1"/><path id="eez5t8mwbd5579" d="M32,40L40,40L40,48L32,48Z" fill="rgb(36,41,46)" stroke="none" stroke-width="1"/><path id="eez5t8mwbd5580" d="M32,48L40,48L40,56L32,56Z" fill="rgb(36,41,46)" stroke="none" stroke-width="1"/><path id="eez5t8mwbd5581" d="M32,56L40,56L40,64L32,64Z" fill="rgb(36,41,46)" stroke="none" stroke-width="1"/><path id="eez5t8mwbd5582" d="M32,64L40,64L40,72L32,72Z" fill="rgb(36,41,46)" stroke="none" stroke-width="1"/><path id="eez5t8mwbd5583" d="M32,72L40,72L40,80L32,80Z" fill="rgb(36,41,46)" stroke="none" stroke-width="1"/><path id="eez5t8mwbd5584" d="M32,80L40,80L40,88L32,88Z" fill="rgb(36,41,46)" stroke="none" stroke-width="1"/><path id="eez5t8mwbd5585" d="M32,96L40,96L40,104L32,104Z" fill="rgb(36,41,46)" stroke="none" stroke-width="1"/><path id="eez5t8mwbd5586" d="M32,128L40,128L40,136L32,136Z" fill="rgb(36,41,46)" stroke="none" stroke-width="1"/><path id="eez5t8mwbd5587" d="M32,136L40,136L40,144L32,144Z" fill="rgb(36,41,46)" stroke="none" stroke-width="1"/><path id="eez5t8mwbd5588" d="M32,152L40,152L40,160L32,160Z" fill="rgb(36,41,46)" stroke="none" stroke-width="1"/><path id="eez5t8mwbd5589" d="M32,176L40,176L40,184L32,184Z" fill="rgb(36,41,46)" stroke="none" stroke-width="1"/><path id="eez5t8mwbd5590" d="M32,184L40,184L40,192L32,192Z" fill="rgb(36,41,46)" stroke="none" stroke-width="1"/><path id="eez5t8mwbd5591" d="M32,192L40,192L40,200L32,200Z" fill="rgb(36,41,46)" stroke="none" stroke-width="1"/><path id="eez5t8mwbd5592" d="M32,200L40,200L40,208L32,208Z" fill="rgb(36,41,46)" stroke="none" stroke-width="1"/><path id="eez5t8mwbd5593" d="M32,208L40,208L40,216L32,216Z" fill="rgb(36,41,46)" stroke="none" stroke-width="1"/><path id="eez5t8mwbd5594" d="M32,216L40,216L40,224L32,224Z" fill="rgb(36,41,46)" stroke="none" stroke-width="1"/><path id="eez5t8mwbd5595" d="M32,224L40,224L40,232L32,232Z" fill="rgb(36,41,46)" stroke="none" stroke-width="1"/><path id="eez5t8mwbd5596" d="M40,32L48,32L48,40L40,40Z" fill="rgb(36,41,46)" stroke="none" stroke-width="1"/><path id="eez5t8mwbd5597" d="M40,80L48,80L48,88L40,88Z" fill="rgb(36,41,46)" stroke="none" stroke-width="1"/><path id="eez5t8mwbd5598" d="M40,96L48,96L48,104L40,104Z" fill="rgb(36,41,46)" stroke="none" stroke-width="1"/><path id="eez5t8mwbd5599" d="M40,104L48,104L48,112L40,112Z" fill="rgb(36,41,46)" stroke="none" stroke-width="1"/><path id="eez5t8mwbd55100" d="M40,120L48,120L48,128L40,128Z" fill="rgb(36,41,46)" stroke="none" stroke-width="1"/><path id="eez5t8mwbd55101" d="M40,152L48,152L48,160L40,160Z" fill="rgb(36,41,46)" stroke="none" stroke-width="1"/><path id="eez5t8mwbd55102" d="M40,176L48,176L48,184L40,184Z" fill="rgb(36,41,46)" stroke="none" stroke-width="1"/><path id="eez5t8mwbd55103" d="M40,224L48,224L48,232L40,232Z" fill="rgb(36,41,46)" stroke="none" stroke-width="1"/><path id="eez5t8mwbd55104" d="M48,32L56,32L56,40L48,40Z" fill="rgb(36,41,46)" stroke="none" stroke-width="1"/><path id="eez5t8mwbd55105" d="M48,48L56,48L56,56L48,56Z" fill="rgb(36,41,46)" stroke="none" stroke-width="1"/><path id="eez5t8mwbd55106" d="M48,56L56,56L56,64L48,64Z" fill="rgb(36,41,46)" stroke="none" stroke-width="1"/><path id="eez5t8mwbd55107" d="M48,64L56,64L56,72L48,72Z" fill="rgb(36,41,46)" stroke="none" stroke-width="1"/><path id="eez5t8mwbd55108" d="M48,80L56,80L56,88L48,88Z" fill="rgb(36,41,46)" stroke="none" stroke-width="1"/><path id="eez5t8mwbd55109" d="M48,96L56,96L56,104L48,104Z" fill="rgb(36,41,46)" stroke="none" stroke-width="1"/><path id="eez5t8mwbd55110" d="M48,120L56,120L56,128L48,128Z" fill="rgb(36,41,46)" stroke="none" stroke-width="1"/><path id="eez5t8mwbd55111" d="M48,128L56,128L56,136L48,136Z" fill="rgb(36,41,46)" stroke="none" stroke-width="1"/><path id="eez5t8mwbd55112" d="M48,136L56,136L56,144L48,144Z" fill="rgb(36,41,46)" stroke="none" stroke-width="1"/><path id="eez5t8mwbd55113" d="M48,144L56,144L56,152L48,152Z" fill="rgb(36,41,46)" stroke="none" stroke-width="1"/><path id="eez5t8mwbd55114" d="M48,152L56,152L56,160L48,160Z" fill="rgb(36,41,46)" stroke="none" stroke-width="1"/><path id="eez5t8mwbd55115" d="M48,176L56,176L56,184L48,184Z" fill="rgb(36,41,46)" stroke="none" stroke-width="1"/><path id="eez5t8mwbd55116" d="M48,192L56,192L56,200L48,200Z" fill="rgb(36,41,46)" stroke="none" stroke-width="1"/><path id="eez5t8mwbd55117" d="M48,200L56,200L56,208L48,208Z" fill="rgb(36,41,46)" stroke="none" stroke-width="1"/><path id="eez5t8mwbd55118" d="M48,208L56,208L56,216L48,216Z" fill="rgb(36,41,46)" stroke="none" stroke-width="1"/><path id="eez5t8mwbd55119" d="M48,224L56,224L56,232L48,232Z" fill="rgb(36,41,46)" stroke="none" stroke-width="1"/><path id="eez5t8mwbd55120" d="M56,32L64,32L64,40L56,40Z" fill="rgb(36,41,46)" stroke="none" stroke-width="1"/><path id="eez5t8mwbd55121" d="M56,48L64,48L64,56L56,56Z" fill="rgb(36,41,46)" stroke="none" stroke-width="1"/><path id="eez5t8mwbd55122" d="M56,56L64,56L64,64L56,64Z" fill="rgb(36,41,46)" stroke="none" stroke-width="1"/><path id="eez5t8mwbd55123" d="M56,64L64,64L64,72L56,72Z" fill="rgb(36,41,46)" stroke="none" stroke-width="1"/><path id="eez5t8mwbd55124" d="M56,80L64,80L64,88L56,88Z" fill="rgb(36,41,46)" stroke="none" stroke-width="1"/><path id="eez5t8mwbd55125" d="M56,152L64,152L64,160L56,160Z" fill="rgb(36,41,46)" stroke="none" stroke-width="1"/><path id="eez5t8mwbd55126" d="M56,160L64,160L64,168L56,168Z" fill="rgb(36,41,46)" stroke="none" stroke-width="1"/><path id="eez5t8mwbd55127" d="M56,176L64,176L64,184L56,184Z" fill="rgb(36,41,46)" stroke="none" stroke-width="1"/><path id="eez5t8mwbd55128" d="M56,192L64,192L64,200L56,200Z" fill="rgb(36,41,46)" stroke="none" stroke-width="1"/><path id="eez5t8mwbd55129" d="M56,200L64,200L64,208L56,208Z" fill="rgb(36,41,46)" stroke="none" stroke-width="1"/><path id="eez5t8mwbd55130" d="M56,208L64,208L64,216L56,216Z" fill="rgb(36,41,46)" stroke="none" stroke-width="1"/><path id="eez5t8mwbd55131" d="M56,224L64,224L64,232L56,232Z" fill="rgb(36,41,46)" stroke="none" stroke-width="1"/><path id="eez5t8mwbd55132" d="M64,32L72,32L72,40L64,40Z" fill="rgb(36,41,46)" stroke="none" stroke-width="1"/><path id="eez5t8mwbd55133" d="M64,48L72,48L72,56L64,56Z" fill="rgb(36,41,46)" stroke="none" stroke-width="1"/><path id="eez5t8mwbd55134" d="M64,56L72,56L72,64L64,64Z" fill="rgb(36,41,46)" stroke="none" stroke-width="1"/><path id="eez5t8mwbd55135" d="M64,64L72,64L72,72L64,72Z" fill="rgb(36,41,46)" stroke="none" stroke-width="1"/><path id="eez5t8mwbd55136" d="M64,80L72,80L72,88L64,88Z" fill="rgb(36,41,46)" stroke="none" stroke-width="1"/><path id="eez5t8mwbd55137" d="M64,112L72,112L72,120L64,120Z" fill="rgb(36,41,46)" stroke="none" stroke-width="1"/><path id="eez5t8mwbd55138" d="M64,120L72,120L72,128L64,128Z" fill="rgb(36,41,46)" stroke="none" stroke-width="1"/><path id="eez5t8mwbd55139" d="M64,136L72,136L72,144L64,144Z" fill="rgb(36,41,46)" stroke="none" stroke-width="1"/><path id="eez5t8mwbd55140" d="M64,160L72,160L72,168L64,168Z" fill="rgb(36,41,46)" stroke="none" stroke-width="1"/><path id="eez5t8mwbd55141" d="M64,176L72,176L72,184L64,184Z" fill="rgb(36,41,46)" stroke="none" stroke-width="1"/><path id="eez5t8mwbd55142" d="M64,192L72,192L72,200L64,200Z" fill="rgb(36,41,46)" stroke="none" stroke-width="1"/><path id="eez5t8mwbd55143" d="M64,200L72,200L72,208L64,208Z" fill="rgb(36,41,46)" stroke="none" stroke-width="1"/><path id="eez5t8mwbd55144" d="M64,208L72,208L72,216L64,216Z" fill="rgb(36,41,46)" stroke="none" stroke-width="1"/><path id="eez5t8mwbd55145" d="M64,224L72,224L72,232L64,232Z" fill="rgb(36,41,46)" stroke="none" stroke-width="1"/><path id="eez5t8mwbd55146" d="M72,32L80,32L80,40L72,40Z" fill="rgb(36,41,46)" stroke="none" stroke-width="1"/><path id="eez5t8mwbd55147" d="M72,80L80,80L80,88L72,88Z" fill="rgb(36,41,46)" stroke="none" stroke-width="1"/><path id="eez5t8mwbd55148" d="M72,96L80,96L80,104L72,104Z" fill="rgb(36,41,46)" stroke="none" stroke-width="1"/><path id="eez5t8mwbd55149" d="M72,104L80,104L80,112L72,112Z" fill="rgb(36,41,46)" stroke="none" stroke-width="1"/><path id="eez5t8mwbd55150" d="M72,112L80,112L80,120L72,120Z" fill="rgb(36,41,46)" stroke="none" stroke-width="1"/><path id="eez5t8mwbd55151" d="M72,152L80,152L80,160L72,160Z" fill="rgb(36,41,46)" stroke="none" stroke-width="1"/><path id="eez5t8mwbd55152" d="M72,160L80,160L80,168L72,168Z" fill="rgb(36,41,46)" stroke="none" stroke-width="1"/><path id="eez5t8mwbd55153" d="M72,176L80,176L80,184L72,184Z" fill="rgb(36,41,46)" stroke="none" stroke-width="1"/><path id="eez5t8mwbd55154" d="M72,224L80,224L80,232L72,232Z" fill="rgb(36,41,46)" stroke="none" stroke-width="1"/><path id="eez5t8mwbd55155" d="M80,32L88,32L88,40L80,40Z" fill="rgb(36,41,46)" stroke="none" stroke-width="1"/><path id="eez5t8mwbd55156" d="M80,40L88,40L88,48L80,48Z" fill="rgb(36,41,46)" stroke="none" stroke-width="1"/><path id="eez5t8mwbd55157" d="M80,48L88,48L88,56L80,56Z" fill="rgb(36,41,46)" stroke="none" stroke-width="1"/><path id="eez5t8mwbd55158" d="M80,56L88,56L88,64L80,64Z" fill="rgb(36,41,46)" stroke="none" stroke-width="1"/><path id="eez5t8mwbd55159" d="M80,64L88,64L88,72L80,72Z" fill="rgb(36,41,46)" stroke="none" stroke-width="1"/><path id="eez5t8mwbd55160" d="M80,72L88,72L88,80L80,80Z" fill="rgb(36,41,46)" stroke="none" stroke-width="1"/><path id="eez5t8mwbd55161" d="M80,80L88,80L88,88L80,88Z" fill="rgb(36,41,46)" stroke="none" stroke-width="1"/><path id="eez5t8mwbd55162" d="M80,96L88,96L88,104L80,104Z" fill="rgb(36,41,46)" stroke="none" stroke-width="1"/><path id="eez5t8mwbd55163" d="M80,112L88,112L88,120L80,120Z" fill="rgb(36,41,46)" stroke="none" stroke-width="1"/><path id="eez5t8mwbd55164" d="M80,128L88,128L88,136L80,136Z" fill="rgb(36,41,46)" stroke="none" stroke-width="1"/><path id="eez5t8mwbd55165" d="M80,144L88,144L88,152L80,152Z" fill="rgb(36,41,46)" stroke="none" stroke-width="1"/><path id="eez5t8mwbd55166" d="M80,160L88,160L88,168L80,168Z" fill="rgb(36,41,46)" stroke="none" stroke-width="1"/><path id="eez5t8mwbd55167" d="M80,176L88,176L88,184L80,184Z" fill="rgb(36,41,46)" stroke="none" stroke-width="1"/><path id="eez5t8mwbd55168" d="M80,184L88,184L88,192L80,192Z" fill="rgb(36,41,46)" stroke="none" stroke-width="1"/><path id="eez5t8mwbd55169" d="M80,192L88,192L88,200L80,200Z" fill="rgb(36,41,46)" stroke="none" stroke-width="1"/><path id="eez5t8mwbd55170" d="M80,200L88,200L88,208L80,208Z" fill="rgb(36,41,46)" stroke="none" stroke-width="1"/><path id="eez5t8mwbd55171" d="M80,208L88,208L88,216L80,216Z" fill="rgb(36,41,46)" stroke="none" stroke-width="1"/><path id="eez5t8mwbd55172" d="M80,216L88,216L88,224L80,224Z" fill="rgb(36,41,46)" stroke="none" stroke-width="1"/><path id="eez5t8mwbd55173" d="M80,224L88,224L88,232L80,232Z" fill="rgb(36,41,46)" stroke="none" stroke-width="1"/><path id="eez5t8mwbd55174" d="M88,104L96,104L96,112L88,112Z" fill="rgb(36,41,46)" stroke="none" stroke-width="1"/><path id="eez5t8mwbd55175" d="M88,112L96,112L96,120L88,120Z" fill="rgb(36,41,46)" stroke="none" stroke-width="1"/><path id="eez5t8mwbd55176" d="M88,120L96,120L96,128L88,128Z" fill="rgb(36,41,46)" stroke="none" stroke-width="1"/><path id="eez5t8mwbd55177" d="M88,136L96,136L96,144L88,144Z" fill="rgb(36,41,46)" stroke="none" stroke-width="1"/><path id="eez5t8mwbd55178" d="M88,144L96,144L96,152L88,152Z" fill="rgb(36,41,46)" stroke="none" stroke-width="1"/><path id="eez5t8mwbd55179" d="M88,152L96,152L96,160L88,160Z" fill="rgb(36,41,46)" stroke="none" stroke-width="1"/><path id="eez5t8mwbd55180" d="M88,160L96,160L96,168L88,168Z" fill="rgb(36,41,46)" stroke="none" stroke-width="1"/><path id="eez5t8mwbd55181" d="M96,32L104,32L104,40L96,40Z" fill="rgb(36,41,46)" stroke="none" stroke-width="1"/><path id="eez5t8mwbd55182" d="M96,40L104,40L104,48L96,48Z" fill="rgb(36,41,46)" stroke="none" stroke-width="1"/><path id="eez5t8mwbd55183" d="M96,64L104,64L104,72L96,72Z" fill="rgb(36,41,46)" stroke="none" stroke-width="1"/><path id="eez5t8mwbd55184" d="M96,72L104,72L104,80L96,80Z" fill="rgb(36,41,46)" stroke="none" stroke-width="1"/><path id="eez5t8mwbd55185" d="M96,80L104,80L104,88L96,88Z" fill="rgb(36,41,46)" stroke="none" stroke-width="1"/><path id="eez5t8mwbd55186" d="M96,88L104,88L104,96L96,96Z" fill="rgb(36,41,46)" stroke="none" stroke-width="1"/><path id="eez5t8mwbd55187" d="M96,96L104,96L104,104L96,104Z" fill="rgb(36,41,46)" stroke="none" stroke-width="1"/><path id="eez5t8mwbd55188" d="M96,104L104,104L104,112L96,112Z" fill="rgb(36,41,46)" stroke="none" stroke-width="1"/><path id="eez5t8mwbd55189" d="M96,136L104,136L104,144L96,144Z" fill="rgb(36,41,46)" stroke="none" stroke-width="1"/><path id="eez5t8mwbd55190" d="M96,160L104,160L104,168L96,168Z" fill="rgb(36,41,46)" stroke="none" stroke-width="1"/><path id="eez5t8mwbd55191" d="M96,168L104,168L104,176L96,176Z" fill="rgb(36,41,46)" stroke="none" stroke-width="1"/><path id="eez5t8mwbd55192" d="M96,184L104,184L104,192L96,192Z" fill="rgb(36,41,46)" stroke="none" stroke-width="1"/><path id="eez5t8mwbd55193" d="M96,208L104,208L104,216L96,216Z" fill="rgb(36,41,46)" stroke="none" stroke-width="1"/><path id="eez5t8mwbd55194" d="M96,216L104,216L104,224L96,224Z" fill="rgb(36,41,46)" stroke="none" stroke-width="1"/><path id="eez5t8mwbd55195" d="M96,224L104,224L104,232L96,232Z" fill="rgb(36,41,46)" stroke="none" stroke-width="1"/><path id="eez5t8mwbd55196" d="M104,40L112,40L112,48L104,48Z" fill="rgb(36,41,46)" stroke="none" stroke-width="1"/><path id="eez5t8mwbd55197" d="M104,64L112,64L112,72L104,72Z" fill="rgb(36,41,46)" stroke="none" stroke-width="1"/><path id="eez5t8mwbd55198" d="M104,96L112,96L112,104L104,104Z" fill="rgb(36,41,46)" stroke="none" stroke-width="1"/><path id="eez5t8mwbd55199" d="M104,104L112,104L112,112L104,112Z" fill="rgb(36,41,46)" stroke="none" stroke-width="1"/><path id="eez5t8mwbd55200" d="M104,120L112,120L112,128L104,128Z" fill="rgb(36,41,46)" stroke="none" stroke-width="1"/><path id="eez5t8mwbd55201" d="M104,128L112,128L112,136L104,136Z" fill="rgb(36,41,46)" stroke="none" stroke-width="1"/><path id="eez5t8mwbd55202" d="M104,144L112,144L112,152L104,152Z" fill="rgb(36,41,46)" stroke="none" stroke-width="1"/><path id="eez5t8mwbd55203" d="M104,152L112,152L112,160L104,160Z" fill="rgb(36,41,46)" stroke="none" stroke-width="1"/><path id="eez5t8mwbd55204" d="M104,160L112,160L112,168L104,168Z" fill="rgb(36,41,46)" stroke="none" stroke-width="1"/><path id="eez5t8mwbd55205" d="M104,184L112,184L112,192L104,192Z" fill="rgb(36,41,46)" stroke="none" stroke-width="1"/><path id="eez5t8mwbd55206" d="M104,200L112,200L112,208L104,208Z" fill="rgb(36,41,46)" stroke="none" stroke-width="1"/><path id="eez5t8mwbd55207" d="M104,224L112,224L112,232L104,232Z" fill="rgb(36,41,46)" stroke="none" stroke-width="1"/><path id="eez5t8mwbd55208" d="M112,40L120,40L120,48L112,48Z" fill="rgb(36,41,46)" stroke="none" stroke-width="1"/><path id="eez5t8mwbd55209" d="M112,48L120,48L120,56L112,56Z" fill="rgb(36,41,46)" stroke="none" stroke-width="1"/><path id="eez5t8mwbd55210" d="M112,56L120,56L120,64L112,64Z" fill="rgb(36,41,46)" stroke="none" stroke-width="1"/><path id="eez5t8mwbd55211" d="M112,64L120,64L120,72L112,72Z" fill="rgb(36,41,46)" stroke="none" stroke-width="1"/><path id="eez5t8mwbd55212" d="M112,80L120,80L120,88L112,88Z" fill="rgb(36,41,46)" stroke="none" stroke-width="1"/><path id="eez5t8mwbd55213" d="M112,88L120,88L120,96L112,96Z" fill="rgb(36,41,46)" stroke="none" stroke-width="1"/><path id="eez5t8mwbd55214" d="M112,96L120,96L120,104L112,104Z" fill="rgb(36,41,46)" stroke="none" stroke-width="1"/><path id="eez5t8mwbd55215" d="M112,104L120,104L120,112L112,112Z" fill="rgb(36,41,46)" stroke="none" stroke-width="1"/><path id="eez5t8mwbd55216" d="M112,144L120,144L120,152L112,152Z" fill="rgb(36,41,46)" stroke="none" stroke-width="1"/><path id="eez5t8mwbd55217" d="M112,168L120,168L120,176L112,176Z" fill="rgb(36,41,46)" stroke="none" stroke-width="1"/><path id="eez5t8mwbd55218" d="M112,192L120,192L120,200L112,200Z" fill="rgb(36,41,46)" stroke="none" stroke-width="1"/><path id="eez5t8mwbd55219" d="M112,200L120,200L120,208L112,208Z" fill="rgb(36,41,46)" stroke="none" stroke-width="1"/><path id="eez5t8mwbd55220" d="M112,216L120,216L120,224L112,224Z" fill="rgb(36,41,46)" stroke="none" stroke-width="1"/><path id="eez5t8mwbd55221" d="M112,224L120,224L120,232L112,232Z" fill="rgb(36,41,46)" stroke="none" stroke-width="1"/><path id="eez5t8mwbd55222" d="M120,32L128,32L128,40L120,40Z" fill="rgb(36,41,46)" stroke="none" stroke-width="1"/><path id="eez5t8mwbd55223" d="M120,48L128,48L128,56L120,56Z" fill="rgb(36,41,46)" stroke="none" stroke-width="1"/><path id="eez5t8mwbd55224" d="M120,64L128,64L128,72L120,72Z" fill="rgb(36,41,46)" stroke="none" stroke-width="1"/><path id="eez5t8mwbd55225" d="M120,72L128,72L128,80L120,80Z" fill="rgb(36,41,46)" stroke="none" stroke-width="1"/><path id="eez5t8mwbd55226" d="M120,88L128,88L128,96L120,96Z" fill="rgb(36,41,46)" stroke="none" stroke-width="1"/><path id="eez5t8mwbd55227" d="M120,112L128,112L128,120L120,120Z" fill="rgb(36,41,46)" stroke="none" stroke-width="1"/><path id="eez5t8mwbd55228" d="M120,128L128,128L128,136L120,136Z" fill="rgb(36,41,46)" stroke="none" stroke-width="1"/><path id="eez5t8mwbd55229" d="M120,152L128,152L128,160L120,160Z" fill="rgb(36,41,46)" stroke="none" stroke-width="1"/><path id="eez5t8mwbd55230" d="M120,176L128,176L128,184L120,184Z" fill="rgb(36,41,46)" stroke="none" stroke-width="1"/><path id="eez5t8mwbd55231" d="M120,192L128,192L128,200L120,200Z" fill="rgb(36,41,46)" stroke="none" stroke-width="1"/><path id="eez5t8mwbd55232" d="M120,216L128,216L128,224L120,224Z" fill="rgb(36,41,46)" stroke="none" stroke-width="1"/><path id="eez5t8mwbd55233" d="M128,32L136,32L136,40L128,40Z" fill="rgb(36,41,46)" stroke="none" stroke-width="1"/><path id="eez5t8mwbd55234" d="M128,40L136,40L136,48L128,48Z" fill="rgb(36,41,46)" stroke="none" stroke-width="1"/><path id="eez5t8mwbd55235" d="M128,48L136,48L136,56L128,56Z" fill="rgb(36,41,46)" stroke="none" stroke-width="1"/><path id="eez5t8mwbd55236" d="M128,80L136,80L136,88L128,88Z" fill="rgb(36,41,46)" stroke="none" stroke-width="1"/><path id="eez5t8mwbd55237" d="M128,88L136,88L136,96L128,96Z" fill="rgb(36,41,46)" stroke="none" stroke-width="1"/><path id="eez5t8mwbd55238" d="M128,128L136,128L136,136L128,136Z" fill="rgb(36,41,46)" stroke="none" stroke-width="1"/><path id="eez5t8mwbd55239" d="M128,136L136,136L136,144L128,144Z" fill="rgb(36,41,46)" stroke="none" stroke-width="1"/><path id="eez5t8mwbd55240" d="M128,144L136,144L136,152L128,152Z" fill="rgb(36,41,46)" stroke="none" stroke-width="1"/><path id="eez5t8mwbd55241" d="M128,152L136,152L136,160L128,160Z" fill="rgb(36,41,46)" stroke="none" stroke-width="1"/><path id="eez5t8mwbd55242" d="M128,192L136,192L136,200L128,200Z" fill="rgb(36,41,46)" stroke="none" stroke-width="1"/><path id="eez5t8mwbd55243" d="M128,200L136,200L136,208L128,208Z" fill="rgb(36,41,46)" stroke="none" stroke-width="1"/><path id="eez5t8mwbd55244" d="M128,208L136,208L136,216L128,216Z" fill="rgb(36,41,46)" stroke="none" stroke-width="1"/><path id="eez5t8mwbd55245" d="M128,216L136,216L136,224L128,224Z" fill="rgb(36,41,46)" stroke="none" stroke-width="1"/><path id="eez5t8mwbd55246" d="M136,40L144,40L144,48L136,48Z" fill="rgb(36,41,46)" stroke="none" stroke-width="1"/><path id="eez5t8mwbd55247" d="M136,48L144,48L144,56L136,56Z" fill="rgb(36,41,46)" stroke="none" stroke-width="1"/><path id="eez5t8mwbd55248" d="M136,56L144,56L144,64L136,64Z" fill="rgb(36,41,46)" stroke="none" stroke-width="1"/><path id="eez5t8mwbd55249" d="M136,64L144,64L144,72L136,72Z" fill="rgb(36,41,46)" stroke="none" stroke-width="1"/><path id="eez5t8mwbd55250" d="M136,72L144,72L144,80L136,80Z" fill="rgb(36,41,46)" stroke="none" stroke-width="1"/><path id="eez5t8mwbd55251" d="M136,104L144,104L144,112L136,112Z" fill="rgb(36,41,46)" stroke="none" stroke-width="1"/><path id="eez5t8mwbd55252" d="M136,136L144,136L144,144L136,144Z" fill="rgb(36,41,46)" stroke="none" stroke-width="1"/><path id="eez5t8mwbd55253" d="M136,144L144,144L144,152L136,152Z" fill="rgb(36,41,46)" stroke="none" stroke-width="1"/><path id="eez5t8mwbd55254" d="M136,160L144,160L144,168L136,168Z" fill="rgb(36,41,46)" stroke="none" stroke-width="1"/><path id="eez5t8mwbd55255" d="M136,168L144,168L144,176L136,176Z" fill="rgb(36,41,46)" stroke="none" stroke-width="1"/><path id="eez5t8mwbd55256" d="M136,184L144,184L144,192L136,192Z" fill="rgb(36,41,46)" stroke="none" stroke-width="1"/><path id="eez5t8mwbd55257" d="M136,192L144,192L144,200L136,200Z" fill="rgb(36,41,46)" stroke="none" stroke-width="1"/><path id="eez5t8mwbd55258" d="M136,208L144,208L144,216L136,216Z" fill="rgb(36,41,46)" stroke="none" stroke-width="1"/><path id="eez5t8mwbd55259" d="M136,224L144,224L144,232L136,232Z" fill="rgb(36,41,46)" stroke="none" stroke-width="1"/><path id="eez5t8mwbd55260" d="M144,32L152,32L152,40L144,40Z" fill="rgb(36,41,46)" stroke="none" stroke-width="1"/><path id="eez5t8mwbd55261" d="M144,40L152,40L152,48L144,48Z" fill="rgb(36,41,46)" stroke="none" stroke-width="1"/><path id="eez5t8mwbd55262" d="M144,48L152,48L152,56L144,56Z" fill="rgb(36,41,46)" stroke="none" stroke-width="1"/><path id="eez5t8mwbd55263" d="M144,56L152,56L152,64L144,64Z" fill="rgb(36,41,46)" stroke="none" stroke-width="1"/><path id="eez5t8mwbd55264" d="M144,64L152,64L152,72L144,72Z" fill="rgb(36,41,46)" stroke="none" stroke-width="1"/><path id="eez5t8mwbd55265" d="M144,80L152,80L152,88L144,88Z" fill="rgb(36,41,46)" stroke="none" stroke-width="1"/><path id="eez5t8mwbd55266" d="M144,88L152,88L152,96L144,96Z" fill="rgb(36,41,46)" stroke="none" stroke-width="1"/><path id="eez5t8mwbd55267" d="M144,120L152,120L152,128L144,128Z" fill="rgb(36,41,46)" stroke="none" stroke-width="1"/><path id="eez5t8mwbd55268" d="M144,152L152,152L152,160L144,160Z" fill="rgb(36,41,46)" stroke="none" stroke-width="1"/><path id="eez5t8mwbd55269" d="M144,160L152,160L152,168L144,168Z" fill="rgb(36,41,46)" stroke="none" stroke-width="1"/><path id="eez5t8mwbd55270" d="M144,208L152,208L152,216L144,216Z" fill="rgb(36,41,46)" stroke="none" stroke-width="1"/><path id="eez5t8mwbd55271" d="M144,216L152,216L152,224L144,224Z" fill="rgb(36,41,46)" stroke="none" stroke-width="1"/><path id="eez5t8mwbd55272" d="M144,224L152,224L152,232L144,232Z" fill="rgb(36,41,46)" stroke="none" stroke-width="1"/><path id="eez5t8mwbd55273" d="M152,96L160,96L160,104L152,104Z" fill="rgb(36,41,46)" stroke="none" stroke-width="1"/><path id="eez5t8mwbd55274" d="M152,104L160,104L160,112L152,112Z" fill="rgb(36,41,46)" stroke="none" stroke-width="1"/><path id="eez5t8mwbd55275" d="M152,112L160,112L160,120L152,120Z" fill="rgb(36,41,46)" stroke="none" stroke-width="1"/><path id="eez5t8mwbd55276" d="M152,128L160,128L160,136L152,136Z" fill="rgb(36,41,46)" stroke="none" stroke-width="1"/><path id="eez5t8mwbd55277" d="M152,136L160,136L160,144L152,144Z" fill="rgb(36,41,46)" stroke="none" stroke-width="1"/><path id="eez5t8mwbd55278" d="M152,144L160,144L160,152L152,152Z" fill="rgb(36,41,46)" stroke="none" stroke-width="1"/><path id="eez5t8mwbd55279" d="M152,152L160,152L160,160L152,160Z" fill="rgb(36,41,46)" stroke="none" stroke-width="1"/><path id="eez5t8mwbd55280" d="M152,184L160,184L160,192L152,192Z" fill="rgb(36,41,46)" stroke="none" stroke-width="1"/><path id="eez5t8mwbd55281" d="M152,192L160,192L160,200L152,200Z" fill="rgb(36,41,46)" stroke="none" stroke-width="1"/><path id="eez5t8mwbd55282" d="M152,200L160,200L160,208L152,208Z" fill="rgb(36,41,46)" stroke="none" stroke-width="1"/><path id="eez5t8mwbd55283" d="M152,208L160,208L160,216L152,216Z" fill="rgb(36,41,46)" stroke="none" stroke-width="1"/><path id="eez5t8mwbd55284" d="M152,216L160,216L160,224L152,224Z" fill="rgb(36,41,46)" stroke="none" stroke-width="1"/><path id="eez5t8mwbd55285" d="M160,32L168,32L168,40L160,40Z" fill="rgb(36,41,46)" stroke="none" stroke-width="1"/><path id="eez5t8mwbd55286" d="M160,40L168,40L168,48L160,48Z" fill="rgb(36,41,46)" stroke="none" stroke-width="1"/><path id="eez5t8mwbd55287" d="M160,48L168,48L168,56L160,56Z" fill="rgb(36,41,46)" stroke="none" stroke-width="1"/><path id="eez5t8mwbd55288" d="M160,56L168,56L168,64L160,64Z" fill="rgb(36,41,46)" stroke="none" stroke-width="1"/><path id="eez5t8mwbd55289" d="M160,80L168,80L168,88L160,88Z" fill="rgb(36,41,46)" stroke="none" stroke-width="1"/><path id="eez5t8mwbd55290" d="M160,88L168,88L168,96L160,96Z" fill="rgb(36,41,46)" stroke="none" stroke-width="1"/><path id="eez5t8mwbd55291" d="M160,104L168,104L168,112L160,112Z" fill="rgb(36,41,46)" stroke="none" stroke-width="1"/><path id="eez5t8mwbd55292" d="M160,128L168,128L168,136L160,136Z" fill="rgb(36,41,46)" stroke="none" stroke-width="1"/><path id="eez5t8mwbd55293" d="M160,136L168,136L168,144L160,144Z" fill="rgb(36,41,46)" stroke="none" stroke-width="1"/><path id="eez5t8mwbd55294" d="M160,160L168,160L168,168L160,168Z" fill="rgb(36,41,46)" stroke="none" stroke-width="1"/><path id="eez5t8mwbd55295" d="M160,168L168,168L168,176L160,176Z" fill="rgb(36,41,46)" stroke="none" stroke-width="1"/><path id="eez5t8mwbd55296" d="M160,176L168,176L168,184L160,184Z" fill="rgb(36,41,46)" stroke="none" stroke-width="1"/><path id="eez5t8mwbd55297" d="M160,184L168,184L168,192L160,192Z" fill="rgb(36,41,46)" stroke="none" stroke-width="1"/><path id="eez5t8mwbd55298" d="M160,192L168,192L168,200L160,200Z" fill="rgb(36,41,46)" stroke="none" stroke-width="1"/><path id="eez5t8mwbd55299" d="M160,200L168,200L168,208L160,208Z" fill="rgb(36,41,46)" stroke="none" stroke-width="1"/><path id="eez5t8mwbd55300" d="M160,208L168,208L168,216L160,216Z" fill="rgb(36,41,46)" stroke="none" stroke-width="1"/><path id="eez5t8mwbd55301" d="M160,216L168,216L168,224L160,224Z" fill="rgb(36,41,46)" stroke="none" stroke-width="1"/><path id="eez5t8mwbd55302" d="M160,224L168,224L168,232L160,232Z" fill="rgb(36,41,46)" stroke="none" stroke-width="1"/><path id="eez5t8mwbd55303" d="M168,96L176,96L176,104L168,104Z" fill="rgb(36,41,46)" stroke="none" stroke-width="1"/><path id="eez5t8mwbd55304" d="M168,120L176,120L176,128L168,128Z" fill="rgb(36,41,46)" stroke="none" stroke-width="1"/><path id="eez5t8mwbd55305" d="M168,152L176,152L176,160L168,160Z" fill="rgb(36,41,46)" stroke="none" stroke-width="1"/><path id="eez5t8mwbd55306" d="M168,160L176,160L176,168L168,168Z" fill="rgb(36,41,46)" stroke="none" stroke-width="1"/><path id="eez5t8mwbd55307" d="M168,192L176,192L176,200L168,200Z" fill="rgb(36,41,46)" stroke="none" stroke-width="1"/><path id="eez5t8mwbd55308" d="M168,200L176,200L176,208L168,208Z" fill="rgb(36,41,46)" stroke="none" stroke-width="1"/><path id="eez5t8mwbd55309" d="M168,208L176,208L176,216L168,216Z" fill="rgb(36,41,46)" stroke="none" stroke-width="1"/><path id="eez5t8mwbd55310" d="M168,216L176,216L176,224L168,224Z" fill="rgb(36,41,46)" stroke="none" stroke-width="1"/><path id="eez5t8mwbd55311" d="M176,32L184,32L184,40L176,40Z" fill="rgb(36,41,46)" stroke="none" stroke-width="1"/><path id="eez5t8mwbd55312" d="M176,40L184,40L184,48L176,48Z" fill="rgb(36,41,46)" stroke="none" stroke-width="1"/><path id="eez5t8mwbd55313" d="M176,48L184,48L184,56L176,56Z" fill="rgb(36,41,46)" stroke="none" stroke-width="1"/><path id="eez5t8mwbd55314" d="M176,56L184,56L184,64L176,64Z" fill="rgb(36,41,46)" stroke="none" stroke-width="1"/><path id="eez5t8mwbd55315" d="M176,64L184,64L184,72L176,72Z" fill="rgb(36,41,46)" stroke="none" stroke-width="1"/><path id="eez5t8mwbd55316" d="M176,72L184,72L184,80L176,80Z" fill="rgb(36,41,46)" stroke="none" stroke-width="1"/><path id="eez5t8mwbd55317" d="M176,80L184,80L184,88L176,88Z" fill="rgb(36,41,46)" stroke="none" stroke-width="1"/><path id="eez5t8mwbd55318" d="M176,96L184,96L184,104L176,104Z" fill="rgb(36,41,46)" stroke="none" stroke-width="1"/><path id="eez5t8mwbd55319" d="M176,104L184,104L184,112L176,112Z" fill="rgb(36,41,46)" stroke="none" stroke-width="1"/><path id="eez5t8mwbd55320" d="M176,120L184,120L184,128L176,128Z" fill="rgb(36,41,46)" stroke="none" stroke-width="1"/><path id="eez5t8mwbd55321" d="M176,128L184,128L184,136L176,136Z" fill="rgb(36,41,46)" stroke="none" stroke-width="1"/><path id="eez5t8mwbd55322" d="M176,136L184,136L184,144L176,144Z" fill="rgb(36,41,46)" stroke="none" stroke-width="1"/><path id="eez5t8mwbd55323" d="M176,144L184,144L184,152L176,152Z" fill="rgb(36,41,46)" stroke="none" stroke-width="1"/><path id="eez5t8mwbd55324" d="M176,160L184,160L184,168L176,168Z" fill="rgb(36,41,46)" stroke="none" stroke-width="1"/><path id="eez5t8mwbd55325" d="M176,176L184,176L184,184L176,184Z" fill="rgb(36,41,46)" stroke="none" stroke-width="1"/><path id="eez5t8mwbd55326" d="M176,192L184,192L184,200L176,200Z" fill="rgb(36,41,46)" stroke="none" stroke-width="1"/><path id="eez5t8mwbd55327" d="M176,216L184,216L184,224L176,224Z" fill="rgb(36,41,46)" stroke="none" stroke-width="1"/><path id="eez5t8mwbd55328" d="M176,224L184,224L184,232L176,232Z" fill="rgb(36,41,46)" stroke="none" stroke-width="1"/><path id="eez5t8mwbd55329" d="M184,32L192,32L192,40L184,40Z" fill="rgb(36,41,46)" stroke="none" stroke-width="1"/><path id="eez5t8mwbd55330" d="M184,80L192,80L192,88L184,88Z" fill="rgb(36,41,46)" stroke="none" stroke-width="1"/><path id="eez5t8mwbd55331" d="M184,96L192,96L192,104L184,104Z" fill="rgb(36,41,46)" stroke="none" stroke-width="1"/><path id="eez5t8mwbd55332" d="M184,104L192,104L192,112L184,112Z" fill="rgb(36,41,46)" stroke="none" stroke-width="1"/><path id="eez5t8mwbd55333" d="M184,112L192,112L192,120L184,120Z" fill="rgb(36,41,46)" stroke="none" stroke-width="1"/><path id="eez5t8mwbd55334" d="M184,128L192,128L192,136L184,136Z" fill="rgb(36,41,46)" stroke="none" stroke-width="1"/><path id="eez5t8mwbd55335" d="M184,136L192,136L192,144L184,144Z" fill="rgb(36,41,46)" stroke="none" stroke-width="1"/><path id="eez5t8mwbd55336" d="M184,152L192,152L192,160L184,160Z" fill="rgb(36,41,46)" stroke="none" stroke-width="1"/><path id="eez5t8mwbd55337" d="M184,160L192,160L192,168L184,168Z" fill="rgb(36,41,46)" stroke="none" stroke-width="1"/><path id="eez5t8mwbd55338" d="M184,192L192,192L192,200L184,200Z" fill="rgb(36,41,46)" stroke="none" stroke-width="1"/><path id="eez5t8mwbd55339" d="M184,208L192,208L192,216L184,216Z" fill="rgb(36,41,46)" stroke="none" stroke-width="1"/><path id="eez5t8mwbd55340" d="M184,216L192,216L192,224L184,224Z" fill="rgb(36,41,46)" stroke="none" stroke-width="1"/><path id="eez5t8mwbd55341" d="M192,32L200,32L200,40L192,40Z" fill="rgb(36,41,46)" stroke="none" stroke-width="1"/><path id="eez5t8mwbd55342" d="M192,48L200,48L200,56L192,56Z" fill="rgb(36,41,46)" stroke="none" stroke-width="1"/><path id="eez5t8mwbd55343" d="M192,56L200,56L200,64L192,64Z" fill="rgb(36,41,46)" stroke="none" stroke-width="1"/><path id="eez5t8mwbd55344" d="M192,64L200,64L200,72L192,72Z" fill="rgb(36,41,46)" stroke="none" stroke-width="1"/><path id="eez5t8mwbd55345" d="M192,80L200,80L200,88L192,88Z" fill="rgb(36,41,46)" stroke="none" stroke-width="1"/><path id="eez5t8mwbd55346" d="M192,96L200,96L200,104L192,104Z" fill="rgb(36,41,46)" stroke="none" stroke-width="1"/><path id="eez5t8mwbd55347" d="M192,152L200,152L200,160L192,160Z" fill="rgb(36,41,46)" stroke="none" stroke-width="1"/><path id="eez5t8mwbd55348" d="M192,160L200,160L200,168L192,168Z" fill="rgb(36,41,46)" stroke="none" stroke-width="1"/><path id="eez5t8mwbd55349" d="M192,168L200,168L200,176L192,176Z" fill="rgb(36,41,46)" stroke="none" stroke-width="1"/><path id="eez5t8mwbd55350" d="M192,176L200,176L200,184L192,184Z" fill="rgb(36,41,46)" stroke="none" stroke-width="1"/><path id="eez5t8mwbd55351" d="M192,184L200,184L200,192L192,192Z" fill="rgb(36,41,46)" stroke="none" stroke-width="1"/><path id="eez5t8mwbd55352" d="M192,192L200,192L200,200L192,200Z" fill="rgb(36,41,46)" stroke="none" stroke-width="1"/><path id="eez5t8mwbd55353" d="M192,200L200,200L200,208L192,208Z" fill="rgb(36,41,46)" stroke="none" stroke-width="1"/><path id="eez5t8mwbd55354" d="M192,208L200,208L200,216L192,216Z" fill="rgb(36,41,46)" stroke="none" stroke-width="1"/><path id="eez5t8mwbd55355" d="M192,216L200,216L200,224L192,224Z" fill="rgb(36,41,46)" stroke="none" stroke-width="1"/><path id="eez5t8mwbd55356" d="M200,32L208,32L208,40L200,40Z" fill="rgb(36,41,46)" stroke="none" stroke-width="1"/><path id="eez5t8mwbd55357" d="M200,48L208,48L208,56L200,56Z" fill="rgb(36,41,46)" stroke="none" stroke-width="1"/><path id="eez5t8mwbd55358" d="M200,56L208,56L208,64L200,64Z" fill="rgb(36,41,46)" stroke="none" stroke-width="1"/><path id="eez5t8mwbd55359" d="M200,64L208,64L208,72L200,72Z" fill="rgb(36,41,46)" stroke="none" stroke-width="1"/><path id="eez5t8mwbd55360" d="M200,80L208,80L208,88L200,88Z" fill="rgb(36,41,46)" stroke="none" stroke-width="1"/><path id="eez5t8mwbd55361" d="M200,104L208,104L208,112L200,112Z" fill="rgb(36,41,46)" stroke="none" stroke-width="1"/><path id="eez5t8mwbd55362" d="M200,112L208,112L208,120L200,120Z" fill="rgb(36,41,46)" stroke="none" stroke-width="1"/><path id="eez5t8mwbd55363" d="M200,120L208,120L208,128L200,128Z" fill="rgb(36,41,46)" stroke="none" stroke-width="1"/><path id="eez5t8mwbd55364" d="M200,144L208,144L208,152L200,152Z" fill="rgb(36,41,46)" stroke="none" stroke-width="1"/><path id="eez5t8mwbd55365" d="M200,152L208,152L208,160L200,160Z" fill="rgb(36,41,46)" stroke="none" stroke-width="1"/><path id="eez5t8mwbd55366" d="M200,208L208,208L208,216L200,216Z" fill="rgb(36,41,46)" stroke="none" stroke-width="1"/><path id="eez5t8mwbd55367" d="M200,224L208,224L208,232L200,232Z" fill="rgb(36,41,46)" stroke="none" stroke-width="1"/><path id="eez5t8mwbd55368" d="M208,32L216,32L216,40L208,40Z" fill="rgb(36,41,46)" stroke="none" stroke-width="1"/><path id="eez5t8mwbd55369" d="M208,48L216,48L216,56L208,56Z" fill="rgb(36,41,46)" stroke="none" stroke-width="1"/><path id="eez5t8mwbd55370" d="M208,56L216,56L216,64L208,64Z" fill="rgb(36,41,46)" stroke="none" stroke-width="1"/><path id="eez5t8mwbd55371" d="M208,64L216,64L216,72L208,72Z" fill="rgb(36,41,46)" stroke="none" stroke-width="1"/><path id="eez5t8mwbd55372" d="M208,80L216,80L216,88L208,88Z" fill="rgb(36,41,46)" stroke="none" stroke-width="1"/><path id="eez5t8mwbd55373" d="M208,112L216,112L216,120L208,120Z" fill="rgb(36,41,46)" stroke="none" stroke-width="1"/><path id="eez5t8mwbd55374" d="M208,144L216,144L216,152L208,152Z" fill="rgb(36,41,46)" stroke="none" stroke-width="1"/><path id="eez5t8mwbd55375" d="M208,200L216,200L216,208L208,208Z" fill="rgb(36,41,46)" stroke="none" stroke-width="1"/><path id="eez5t8mwbd55376" d="M216,32L224,32L224,40L216,40Z" fill="rgb(36,41,46)" stroke="none" stroke-width="1"/><path id="eez5t8mwbd55377" d="M216,80L224,80L224,88L216,88Z" fill="rgb(36,41,46)" stroke="none" stroke-width="1"/><path id="eez5t8mwbd55378" d="M216,96L224,96L224,104L216,104Z" fill="rgb(36,41,46)" stroke="none" stroke-width="1"/><path id="eez5t8mwbd55379" d="M216,104L224,104L224,112L216,112Z" fill="rgb(36,41,46)" stroke="none" stroke-width="1"/><path id="eez5t8mwbd55380" d="M216,136L224,136L224,144L216,144Z" fill="rgb(36,41,46)" stroke="none" stroke-width="1"/><path id="eez5t8mwbd55381" d="M216,160L224,160L224,168L216,168Z" fill="rgb(36,41,46)" stroke="none" stroke-width="1"/><path id="eez5t8mwbd55382" d="M216,184L224,184L224,192L216,192Z" fill="rgb(36,41,46)" stroke="none" stroke-width="1"/><path id="eez5t8mwbd55383" d="M216,200L224,200L224,208L216,208Z" fill="rgb(36,41,46)" stroke="none" stroke-width="1"/><path id="eez5t8mwbd55384" d="M216,208L224,208L224,216L216,216Z" fill="rgb(36,41,46)" stroke="none" stroke-width="1"/><path id="eez5t8mwbd55385" d="M224,32L232,32L232,40L224,40Z" fill="rgb(36,41,46)" stroke="none" stroke-width="1"/><path id="eez5t8mwbd55386" d="M224,40L232,40L232,48L224,48Z" fill="rgb(36,41,46)" stroke="none" stroke-width="1"/><path id="eez5t8mwbd55387" d="M224,48L232,48L232,56L224,56Z" fill="rgb(36,41,46)" stroke="none" stroke-width="1"/><path id="eez5t8mwbd55388" d="M224,56L232,56L232,64L224,64Z" fill="rgb(36,41,46)" stroke="none" stroke-width="1"/><path id="eez5t8mwbd55389" d="M224,64L232,64L232,72L224,72Z" fill="rgb(36,41,46)" stroke="none" stroke-width="1"/><path id="eez5t8mwbd55390" d="M224,72L232,72L232,80L224,80Z" fill="rgb(36,41,46)" stroke="none" stroke-width="1"/><path id="eez5t8mwbd55391" d="M224,80L232,80L232,88L224,88Z" fill="rgb(36,41,46)" stroke="none" stroke-width="1"/><path id="eez5t8mwbd55392" d="M224,96L232,96L232,104L224,104Z" fill="rgb(36,41,46)" stroke="none" stroke-width="1"/><path id="eez5t8mwbd55393" d="M224,104L232,104L232,112L224,112Z" fill="rgb(36,41,46)" stroke="none" stroke-width="1"/><path id="eez5t8mwbd55394" d="M224,112L232,112L232,120L224,120Z" fill="rgb(36,41,46)" stroke="none" stroke-width="1"/><path id="eez5t8mwbd55395" d="M224,128L232,128L232,136L224,136Z" fill="rgb(36,41,46)" stroke="none" stroke-width="1"/><path id="eez5t8mwbd55396" d="M224,136L232,136L232,144L224,144Z" fill="rgb(36,41,46)" stroke="none" stroke-width="1"/><path id="eez5t8mwbd55397" d="M224,144L232,144L232,152L224,152Z" fill="rgb(36,41,46)" stroke="none" stroke-width="1"/><path id="eez5t8mwbd55398" d="M224,168L232,168L232,176L224,176Z" fill="rgb(36,41,46)" stroke="none" stroke-width="1"/><path id="eez5t8mwbd55399" d="M224,176L232,176L232,184L224,184Z" fill="rgb(36,41,46)" stroke="none" stroke-width="1"/><path id="eez5t8mwbd55400" d="M224,192L232,192L232,200L224,200Z" fill="rgb(36,41,46)" stroke="none" stroke-width="1"/><path id="eez5t8mwbd55401" d="M224,208L232,208L232,216L224,216Z" fill="rgb(36,41,46)" stroke="none" stroke-width="1"/><path id="eez5t8mwbd55402" d="M224,224L232,224L232,232L224,232Z" fill="rgb(36,41,46)" stroke="none" stroke-width="1"/></g></g><g id="eez5t8mwbd55403" transform="matrix(1 0 0 1 -462.54000854499969 -104.56382369999994)"><path id="eez5t8mwbd55404" d="M1072.539600,148.365810C1072.539600,170.465810,1054.639600,188.365810,1032.539600,188.365810C1010.439600,188.365810,992.539560,170.465810,992.539560,148.365810C992.539560,126.265810,1010.439600,108.365810,1032.539600,108.365810C1054.639600,108.365810,1072.539600,126.265810,1072.539600,148.365810Z" fill="rgb(255,255,255)" stroke="rgb(36,41,46)" stroke-width="4"/><path id="eez5t8mwbd55405" d="M1012.539600,162.165810L1031.539600,155.265810L1053.079600,162.165810L1042.539600,187.665810L1022.539600,187.665810Z" fill="rgb(255,255,255)" stroke="rgb(36,41,46)" stroke-width="2"/><path id="eez5t8mwbd55406" d="M1053.079600,138.365810C1053.079600,149.415810,1044.009600,158.365810,1032.809600,158.365810C1021.609600,158.365810,1012.539600,149.415810,1012.539600,138.365810C1012.539600,127.315810,1021.619600,118.365810,1032.809600,118.365810C1044.009600,118.365810,1053.079600,127.315810,1053.079600,138.365810Z" fill="rgb(255,255,255)" stroke="rgb(36,41,46)" stroke-width="2"/></g><path id="eez5t8mwbd55407" d="M802.350640,340.365410L799.672070,337.686840L800.529220,336.883270L802.350640,338.704690L806.314930,334.740410L807.172070,335.597550Z" transform="matrix(1 0 0 1 -462.54000854499969 -104.56382369999994)" opacity="0" fill="rgb(0,0,0)" stroke="none" stroke-width="1"/><path id="eez5t8mwbd55408" d="M879.604870,375.317750L876.926300,372.639180L877.783450,371.835610L879.604870,373.657030L883.569160,369.692750L884.426300,370.549890Z" transform="matrix(1 0 0 1 -462.54000854499969 -104.56382369999994)" opacity="0" fill="rgb(0,0,0)" stroke="none" stroke-width="1"/><path id="eez5t8mwbd55409" d="M1001.841100,414.866250L999.162520,412.187680L1000.019600,411.384110L1001.841100,413.205530L1005.805300,409.241250L1006.662500,410.098390Z" transform="matrix(1 0 0 1 -462.54000854499969 -104.56382369999994)" opacity="0" fill="rgb(0,0,0)" stroke="none" stroke-width="1"/><g id="eez5t8mwbd55410_to" transform="translate(89.709385,156.168587)"><path id="eez5t8mwbd55410" d="M56.978447,66.380975L62.759363,79.520591L56.550742,82.050000L50.769826,68.910384L41.594863,81.151394L41.456894,39.382859L72.500000,68.497691Z" transform="translate(0,0)" opacity="0" fill="rgb(36,41,46)" stroke="rgb(255,255,255)" stroke-width="3"/></g></svg>