<svg id="ejwnst3h8jsm1" xmlns="http://www.w3.org/2000/svg" xmlns:xlink="http://www.w3.org/1999/xlink" viewBox="0 0 800 450" shape-rendering="geometricPrecision" text-rendering="geometricPrecision"><style><![CDATA[#ejwnst3h8jsm2_ts {animation: ejwnst3h8jsm2_ts__ts 12000ms linear infinite normal forwards}@keyframes ejwnst3h8jsm2_ts__ts { 0% {transform: translate(400px,225px) scale(0.700000,0.700000)} 30% {transform: translate(400px,225px) scale(0.700000,0.700000)} 31.666667% {transform: translate(400px,225px) scale(1.050000,1.050000)} 33.333333% {transform: translate(400px,225px) scale(1,1)} 100% {transform: translate(400px,225px) scale(1,1)} }#ejwnst3h8jsm2 {animation: ejwnst3h8jsm2_c_o 12000ms linear infinite normal forwards}@keyframes ejwnst3h8jsm2_c_o { 0% {opacity: 0} 29.166667% {opacity: 0;animation-timing-function: cubic-bezier(0.390000,0.575000,0.565000,1)} 31.083333% {opacity: 1;animation-timing-function: cubic-bezier(0.390000,0.575000,0.565000,1)} 76.166667% {opacity: 1} 82.583333% {opacity: 0} 100% {opacity: 0} }#ejwnst3h8jsm21_ts {animation: ejwnst3h8jsm21_ts__ts 12000ms linear infinite normal forwards}@keyframes ejwnst3h8jsm21_ts__ts { 0% {transform: translate(556.734595px,226.090950px) scale(0,0)} 32.500000% {transform: translate(556.734595px,226.090950px) scale(0,0)} 32.916667% {transform: translate(556.734595px,226.090950px) scale(1,1)} 34.166667% {transform: translate(556.734595px,226.090950px) scale(1.200000,1.200000)} 37.500000% {transform: translate(556.734595px,226.090950px) scale(1,1)} 100% {transform: translate(556.734595px,226.090950px) scale(1,1)} }#ejwnst3h8jsm29 {animation: ejwnst3h8jsm29_c_o 12000ms linear infinite normal forwards}@keyframes ejwnst3h8jsm29_c_o { 0% {opacity: 0} 38.333333% {opacity: 0;animation-timing-function: step-end} 41.666667% {opacity: 1} 100% {opacity: 1} }#ejwnst3h8jsm30 {animation: ejwnst3h8jsm30_c_o 12000ms linear infinite normal forwards}@keyframes ejwnst3h8jsm30_c_o { 0% {opacity: 0} 44.166667% {opacity: 0;animation-timing-function: step-end} 50% {opacity: 1} 100% {opacity: 1} }#ejwnst3h8jsm31 {animation: ejwnst3h8jsm31_c_o 12000ms linear infinite normal forwards}@keyframes ejwnst3h8jsm31_c_o { 0% {opacity: 0} 48.333333% {opacity: 0;animation-timing-function: step-end} 59.166667% {opacity: 1} 100% {opacity: 1} }#ejwnst3h8jsm32_ts {animation: ejwnst3h8jsm32_ts__ts 12000ms linear infinite normal forwards}@keyframes ejwnst3h8jsm32_ts__ts { 0% {transform: translate(589.527041px,291.413614px) scale(1,1)} 27.750000% {transform: translate(589.527041px,291.413614px) scale(1,1);animation-timing-function: cubic-bezier(0.550000,0.085000,0.680000,0.530000)} 30.833333% {transform: translate(589.527041px,291.413614px) scale(0.670000,0.793187)} 32.500000% {transform: translate(589.527041px,291.413614px) scale(0.100000,0.100000)} 100% {transform: translate(589.527041px,291.413614px) scale(0.100000,0.100000)} }#ejwnst3h8jsm32 {animation: ejwnst3h8jsm32_c_o 12000ms linear infinite normal forwards}@keyframes ejwnst3h8jsm32_c_o { 0% {opacity: 0} 0.833333% {opacity: 1} 31.916667% {opacity: 1} 33.333333% {opacity: 0} 100% {opacity: 0} }#ejwnst3h8jsm54_ts {animation: ejwnst3h8jsm54_ts__ts 12000ms linear infinite normal forwards}@keyframes ejwnst3h8jsm54_ts__ts { 0% {transform: translate(390.370913px,250.612286px) scale(1,1)} 25.500000% {transform: translate(390.370913px,250.612286px) scale(1,1)} 26.666667% {transform: translate(390.370913px,250.612286px) scale(0,0)} 100% {transform: translate(390.370913px,250.612286px) scale(0,0)} }#ejwnst3h8jsm54 {animation: ejwnst3h8jsm54_c_o 12000ms linear infinite normal forwards}@keyframes ejwnst3h8jsm54_c_o { 0% {opacity: 0} 5% {opacity: 0} 5.833333% {opacity: 1} 100% {opacity: 1} }#ejwnst3h8jsm64_to {animation: ejwnst3h8jsm64_to__to 12000ms linear infinite normal forwards}@keyframes ejwnst3h8jsm64_to__to { 0% {transform: translate(575.502201px,111.719062px)} 10% {transform: translate(575.502201px,111.719062px);animation-timing-function: cubic-bezier(0.645000,0.045000,0.355000,1)} 15% {transform: translate(575.502201px,111.719062px);animation-timing-function: cubic-bezier(0.645000,0.045000,0.355000,1)} 20% {transform: translate(461.606448px,213.528832px)} 100% {transform: translate(461.606448px,213.528832px)} }#ejwnst3h8jsm64 {
           animation-name: ejwnst3h8jsm64_c_o, ejwnst3h8jsm64_f_p, ejwnst3h8jsm64_s_p;
           animation-duration: 12000ms;
           animation-fill-mode: forwards;
           animation-timing-function: linear;
           animation-direction: normal;
           animation-iteration-count: infinite;  
        }@keyframes ejwnst3h8jsm64_c_o { 0% {opacity: 0} 10% {opacity: 0} 12.500000% {opacity: 0} 14.166667% {opacity: 1} 26.666667% {opacity: 1} 28.333333% {opacity: 0} 100% {opacity: 0} }@keyframes ejwnst3h8jsm64_f_p { 0% {fill: rgb(198,198,198)} 21.666667% {fill: rgb(198,198,198);animation-timing-function: step-end} 22.500000% {fill: rgb(0,0,0);animation-timing-function: step-end} 23.333333% {fill: rgb(198,198,198)} 100% {fill: rgb(198,198,198)} }@keyframes ejwnst3h8jsm64_s_p { 0% {stroke: rgb(36,41,46)} 21.666667% {stroke: rgb(36,41,46);animation-timing-function: step-end} 22.500000% {stroke: rgb(255,255,255);animation-timing-function: step-end} 23.333333% {stroke: rgb(36,41,46)} 100% {stroke: rgb(36,41,46)} }]]></style><g id="ejwnst3h8jsm2_ts" transform="translate(400,225) scale(0.700000,0.700000)"><g id="ejwnst3h8jsm2" transform="translate(-876.743259,-330.214928)" opacity="0"><g id="ejwnst3h8jsm3" transform="matrix(1 0 0 1 966.04300000000001 171.78700000000001)"><g id="ejwnst3h8jsm4" transform="matrix(1 0 0 1 -457.45999999999998 -1.63419000000000)"><rect id="ejwnst3h8jsm5" width="617.011000" height="431.057000" rx="20.628698" ry="20.628700" transform="matrix(1 0 0 1 50.02560000000000 -51.13590000000000)" fill="rgb(36,41,46)" stroke="none" stroke-width="5" stroke-linecap="round" stroke-linejoin="round"/><path id="ejwnst3h8jsm6" d="M74.707904,-22.111681L642.354440,-22.111681L642.354440,350.897050L74.707904,350.897050Z" fill="rgb(255,255,255)" stroke="rgb(36,41,46)" stroke-width="5"/><rect id="ejwnst3h8jsm7" width="58.596600" height="52.217900" rx="11.578405" ry="11.635088" transform="matrix(1 0 0 1 108.25200000000000 11.60930000000000)" fill="none" stroke="rgb(36,41,46)" stroke-width="4" stroke-linecap="round" stroke-linejoin="round" stroke-dasharray="4,8"/><rect id="ejwnst3h8jsm8" width="58.596600" height="52.217900" rx="11.578405" ry="11.635088" transform="matrix(1 0 0 1 214.25100000000000 11.60930000000000)" fill="none" stroke="rgb(36,41,46)" stroke-width="4" stroke-linecap="round" stroke-linejoin="round" stroke-dasharray="4,8"/><rect id="ejwnst3h8jsm9" width="58.596600" height="52.217900" rx="11.578405" ry="11.635088" transform="matrix(1 0 0 1 320.25099999999998 11.60930000000000)" fill="none" stroke="rgb(36,41,46)" stroke-width="4" stroke-linecap="round" stroke-linejoin="round" stroke-dasharray="4,8"/><rect id="ejwnst3h8jsm10" width="58.596600" height="52.217900" rx="11.578405" ry="11.635088" transform="matrix(1 0 0 1 426.25000000000000 11.60930000000000)" fill="none" stroke="rgb(36,41,46)" stroke-width="4" stroke-linecap="round" stroke-linejoin="round" stroke-dasharray="4,8"/><rect id="ejwnst3h8jsm11" width="58.596600" height="52.217900" rx="11.578405" ry="11.635088" transform="matrix(1 0 0 1 532.24900000000002 12.05160000000000)" fill="none" stroke="rgb(36,41,46)" stroke-width="4" stroke-linecap="round" stroke-linejoin="round" stroke-dasharray="4,8"/><rect id="ejwnst3h8jsm12" width="58.596600" height="52.217900" rx="11.578405" ry="11.635088" transform="matrix(1 0 0 1 106.91800000000001 106.17600000000000)" fill="none" stroke="rgb(36,41,46)" stroke-width="4" stroke-linecap="round" stroke-linejoin="round" stroke-dasharray="4,8"/><rect id="ejwnst3h8jsm13" width="58.596600" height="52.217900" rx="11.578405" ry="11.635088" transform="matrix(1 0 0 1 212.91800000000001 106.17600000000000)" fill="none" stroke="rgb(36,41,46)" stroke-width="4" stroke-linecap="round" stroke-linejoin="round" stroke-dasharray="4,8"/><rect id="ejwnst3h8jsm14" width="58.596600" height="52.217900" rx="11.578405" ry="11.635088" transform="matrix(1 0 0 1 318.91699999999997 106.17600000000000)" fill="none" stroke="rgb(36,41,46)" stroke-width="4" stroke-linecap="round" stroke-linejoin="round" stroke-dasharray="4,8"/><rect id="ejwnst3h8jsm15" width="58.596600" height="52.217900" rx="11.578405" ry="11.635088" transform="matrix(1 0 0 1 424.91600000000000 106.17600000000000)" fill="none" stroke="rgb(36,41,46)" stroke-width="4" stroke-linecap="round" stroke-linejoin="round" stroke-dasharray="4,8"/><rect id="ejwnst3h8jsm16" width="58.596600" height="52.217900" rx="11.578405" ry="11.635088" transform="matrix(1 0 0 1 530.91499999999996 106.61900000000000)" fill="none" stroke="rgb(36,41,46)" stroke-width="4" stroke-linecap="round" stroke-linejoin="round" stroke-dasharray="4,8"/><rect id="ejwnst3h8jsm17" width="58.596600" height="52.217900" rx="11.578405" ry="11.635088" transform="matrix(1 0 0 1 104.39100000000001 199.53999999999999)" fill="none" stroke="rgb(36,41,46)" stroke-width="4" stroke-linecap="round" stroke-linejoin="round" stroke-dasharray="4,8"/><rect id="ejwnst3h8jsm18" width="58.596600" height="52.217900" rx="11.578405" ry="11.635088" transform="matrix(1 0 0 1 210.39099999999999 199.53999999999999)" fill="none" stroke="rgb(36,41,46)" stroke-width="4" stroke-linecap="round" stroke-linejoin="round" stroke-dasharray="4,8"/><rect id="ejwnst3h8jsm19" width="58.596600" height="52.217900" rx="11.578405" ry="11.635088" transform="matrix(1 0 0 1 316.38999999999999 199.53999999999999)" fill="none" stroke="rgb(36,41,46)" stroke-width="4" stroke-linecap="round" stroke-linejoin="round" stroke-dasharray="4,8"/><rect id="ejwnst3h8jsm20" width="58.596600" height="52.217900" rx="11.578405" ry="11.635088" transform="matrix(1 0 0 1 422.38900000000001 199.53999999999999)" fill="none" stroke="rgb(36,41,46)" stroke-width="4" stroke-linecap="round" stroke-linejoin="round" stroke-dasharray="4,8"/><g id="ejwnst3h8jsm21_ts" transform="translate(556.734595,226.090950) scale(0,0)"><rect id="ejwnst3h8jsm21" width="58.596600" height="52.217900" rx="11.578405" ry="11.635088" transform="translate(-28.345595,-26.108950)" fill="rgb(36,41,46)" stroke="rgb(36,41,46)" stroke-width="4" stroke-linecap="round" stroke-linejoin="round"/></g></g><g id="ejwnst3h8jsm22" transform="matrix(1 0 0 1 -457.45999999999998 -1.63419000000000)"><path id="ejwnst3h8jsm23" d="M1040,200L1260,200L1260,260L1040,260Z" fill="rgb(255,255,255)" fill-opacity="0" stroke="rgb(0,0,0)" stroke-width="2" stroke-opacity="0"/></g><g id="ejwnst3h8jsm24" transform="matrix(1 0 0 1 -457.45999999999998 -1.63419000000000)"><path id="ejwnst3h8jsm25" d="M1060,269.300000L1260,269.300000L1260,320L1060,320Z" fill="rgb(255,255,255)" fill-opacity="0" stroke="rgb(0,0,0)" stroke-width="2" stroke-opacity="0"/></g></g><path id="ejwnst3h8jsm26" d="M1328.393600,592.152490L1325.715000,589.473920L1326.572200,588.670350L1328.393600,590.491770L1332.357900,586.527490L1333.215000,587.384630Z" opacity="0" fill="rgb(0,0,0)" stroke="none" stroke-width="1"/><path id="ejwnst3h8jsm27" d="M1405.647800,627.104830L1402.969300,624.426260L1403.826400,623.622690L1405.647800,625.444110L1409.612100,621.479830L1410.469300,622.336970Z" opacity="0" fill="rgb(0,0,0)" stroke="none" stroke-width="1"/><path id="ejwnst3h8jsm28" d="M1527.884100,666.653330L1525.205500,663.974760L1526.062600,663.171190L1527.884100,664.992610L1531.848300,661.028330L1532.705500,661.885470Z" opacity="0" fill="rgb(0,0,0)" stroke="none" stroke-width="1"/><text id="ejwnst3h8jsm29" dx="0" dy="0" font-family="sans-serif" font-size="18" font-weight="bold" transform="matrix(1 0 0 1 1047.31759501999932 402.50938499999978)" opacity="0" fill="rgb(255,255,255)" stroke="none" stroke-width="1"><![CDATA[C]]></text><text id="ejwnst3h8jsm30" dx="0" dy="0" font-family="sans-serif" font-size="18" font-weight="bold" transform="matrix(1 0 0 1 1060.88188351999952 402.50938499999972)" opacity="0" fill="rgb(255,255,255)" stroke="none" stroke-width="1"><![CDATA[S]]></text><text id="ejwnst3h8jsm31" dx="0" dy="0" font-family="sans-serif" font-size="18" font-weight="bold" transform="matrix(1 0 0 1 1073.96725651999941 402.50938499999978)" opacity="0" fill="rgb(255,255,255)" stroke="none" stroke-width="1"><![CDATA[A]]></text></g></g><g id="ejwnst3h8jsm32_ts" transform="translate(589.527041,291.413614) scale(1,1)"><g id="ejwnst3h8jsm32" transform="translate(-589.527041,-291.413614)" opacity="0"><g id="ejwnst3h8jsm33" transform="matrix(1 0 0 1 -22.54000854999975 -184.56382369999994)"><g id="ejwnst3h8jsm34" transform="matrix(1 0 0 1 -457.45999999999998 -1.63419000000000)"><path id="ejwnst3h8jsm35" d="M500,200L1260,200L1260,632.396000L500,632.396000Z" fill="rgb(255,255,255)" stroke="rgb(36,41,46)" stroke-width="4"/><path id="ejwnst3h8jsm36" d="M499.999980,200L1260,200L1260,260L499.999980,260Z" fill="rgb(36,41,46)" stroke="rgb(36,41,46)" stroke-width="2" stroke-opacity="0"/><g id="ejwnst3h8jsm37" transform="matrix(1 0 0 1 816.84400000000005 -2.70642000000000)"><path id="ejwnst3h8jsm38" d="M298.501970,227.302740L298.501970,230.182950Q297.380880,229.681650,296.314470,229.426440Q295.248060,229.171230,294.300140,229.171230Q293.042330,229.171230,292.440760,229.517590Q291.839200,229.863940,291.839200,230.593110Q291.839200,231.139990,292.240240,231.449880Q292.650400,231.750670,293.716810,231.969420L295.211600,232.270200Q297.481140,232.725930,298.438170,233.655620Q299.395200,234.585310,299.395200,236.298850Q299.395200,238.550160,298.055360,239.653020Q296.724630,240.746780,293.981130,240.746780Q292.686860,240.746780,291.383470,240.500680Q290.080080,240.254590,288.776700,239.771510L288.776700,236.809270Q290.080080,237.501980,291.292320,237.857450Q292.513680,238.203800,293.643890,238.203800Q294.792330,238.203800,295.403010,237.820990Q296.013690,237.438180,296.013690,236.727240Q296.013690,236.089210,295.594420,235.742860Q295.184260,235.396510,293.944670,235.123070L292.586600,234.822290Q290.544930,234.384780,289.597010,233.427750Q288.658210,232.470720,288.658210,230.848320Q288.658210,228.815760,289.970710,227.722010Q291.283210,226.628260,293.744150,226.628260Q294.865250,226.628260,296.050150,226.801440Q297.235040,226.965500,298.501970,227.302740Z" fill="rgb(255,255,255)" stroke="none" stroke-width="1"/><path id="ejwnst3h8jsm39" d="M306.905630,235.888690Q305.884800,235.888690,305.365270,236.235050Q304.854850,236.581400,304.854850,237.255880Q304.854850,237.875680,305.265010,238.231150Q305.684280,238.577500,306.422560,238.577500Q307.343130,238.577500,307.972040,237.921250Q308.600950,237.255880,308.600950,236.262390L308.600950,235.888690ZM311.891320,234.658220L311.891320,240.482450L308.600950,240.482450L308.600950,238.969430Q307.944700,239.899120,307.124380,240.327500Q306.304070,240.746780,305.128290,240.746780Q303.542350,240.746780,302.548860,239.826200Q301.564480,238.896510,301.564480,237.419950Q301.564480,235.624370,302.794950,234.785830Q304.034540,233.947280,306.677770,233.947280L308.600950,233.947280L308.600950,233.692070Q308.600950,232.917330,307.990270,232.561860Q307.379590,232.197280,306.085320,232.197280Q305.037140,232.197280,304.134800,232.406920Q303.232450,232.616550,302.457710,233.035820L302.457710,230.547540Q303.505890,230.292330,304.563180,230.164720Q305.620480,230.028010,306.677770,230.028010Q309.439490,230.028010,310.660850,231.121760Q311.891320,232.206400,311.891320,234.658220Z" fill="rgb(255,255,255)" stroke="none" stroke-width="1"/><path id="ejwnst3h8jsm40" d="M322.901760,230.593110L322.901760,233.072280Q321.853580,232.634780,320.878320,232.416030Q319.903050,232.197280,319.037170,232.197280Q318.107480,232.197280,317.651750,232.434260Q317.205130,232.662130,317.205130,233.145200Q317.205130,233.537130,317.542370,233.746760Q317.888730,233.956400,318.772840,234.056660L319.347060,234.138660Q321.853580,234.457670,322.719470,235.186840Q323.585350,235.916010,323.585350,237.474600Q323.585350,239.106120,322.382230,239.926430Q321.179100,240.746750,318.791070,240.746750Q317.779350,240.746750,316.694720,240.582680Q315.619190,240.427730,314.479870,240.108720L314.479870,237.629550Q315.455130,238.103510,316.475970,238.340490Q317.505920,238.577470,318.563210,238.577470Q319.520240,238.577470,320.003320,238.313150Q320.486390,238.048820,320.486390,237.529290Q320.486390,237.091790,320.149150,236.882150Q319.821020,236.663400,318.827530,236.544910L318.253310,236.472010Q316.074920,236.198570,315.199920,235.460290Q314.324920,234.722000,314.324920,233.218100Q314.324920,231.595700,315.436900,230.811840Q316.548880,230.027990,318.845760,230.027990Q319.748110,230.027990,320.741600,230.164700Q321.735090,230.301420,322.901760,230.593090Z" fill="rgb(255,255,255)" stroke="none" stroke-width="1"/><path id="ejwnst3h8jsm41" d="M336.190840,229.526700L336.190840,237.830100L337.448660,237.830100Q339.599700,237.830100,340.729910,236.763690Q341.869240,235.697290,341.869240,233.664730Q341.869240,231.641290,340.739030,230.584000Q339.608820,229.526700,337.448660,229.526700ZM332.681720,226.874350L336.382250,226.874350Q339.481210,226.874350,340.994240,227.320970Q342.516380,227.758470,343.601010,228.815760Q344.558050,229.736340,345.022890,230.939470Q345.487740,232.142590,345.487740,233.664730Q345.487740,235.205100,345.022890,236.417340Q344.558050,237.620470,343.601010,238.541040Q342.507260,239.598340,340.976010,240.044950Q339.444760,240.482450,336.382250,240.482450L332.681720,240.482450Z" fill="rgb(255,255,255)" stroke="none" stroke-width="1"/><path id="ejwnst3h8jsm42" d="M348.367950,236.955100L351.649200,236.955100L351.649200,240.482450L348.367950,240.482450Z" fill="rgb(255,255,255)" stroke="none" stroke-width="1"/><path id="ejwnst3h8jsm43" d="M361.766410,226.874350L371.236480,226.874350L371.236480,229.526700L365.275530,229.526700L365.275530,232.060560L370.881010,232.060560L370.881010,234.712910L365.275530,234.712910L365.275530,237.830100L371.437000,237.830100L371.437000,240.482450L361.766410,240.482450Z" fill="rgb(255,255,255)" stroke="none" stroke-width="1"/><path id="ejwnst3h8jsm44" d="M383.832860,231.969420Q384.452650,231.021500,385.300310,230.529310Q386.157080,230.028010,387.177920,230.028010Q388.937030,230.028010,389.857610,231.112640Q390.778180,232.197280,390.778180,234.266290L390.778180,240.482450L387.496930,240.482450L387.496930,235.159530Q387.505930,235.041040,387.505930,234.913430Q387.514930,234.785830,387.514930,234.548850Q387.514930,233.464210,387.195910,232.981140Q386.876900,232.488950,386.165960,232.488950Q385.236280,232.488950,384.725860,233.254570Q384.224560,234.020200,384.206330,235.469420L384.206330,240.482450L380.925070,240.482450L380.925070,235.159530Q380.925070,233.464210,380.633400,232.981140Q380.341740,232.488950,379.594340,232.488950Q378.655530,232.488950,378.145120,233.263690Q377.634700,234.029320,377.634700,235.460310L377.634700,240.482450L374.353440,240.482450L374.353440,230.274100L377.634700,230.274100L377.634700,231.768890Q378.236260,230.903010,379.011000,230.465510Q379.794860,230.028010,380.733660,230.028010Q381.790960,230.028010,382.602160,230.538420Q383.413360,231.048840,383.832630,231.969420Z" fill="rgb(255,255,255)" stroke="none" stroke-width="1"/><path id="ejwnst3h8jsm45" d="M398.680540,232.361340Q397.595900,232.361340,397.021680,233.145200Q396.456580,233.919940,396.456580,235.387390Q396.456580,236.854840,397.021680,237.638700Q397.595900,238.413440,398.680540,238.413440Q399.746950,238.413440,400.312050,237.638700Q400.877160,236.854840,400.877160,235.387390Q400.877160,233.919940,400.312050,233.145200Q399.746950,232.361340,398.680540,232.361340ZM398.680540,230.028010Q401.314660,230.028010,402.791220,231.449880Q404.276900,232.871760,404.276900,235.387390Q404.276900,237.903020,402.791220,239.324900Q401.314660,240.746780,398.680540,240.746780Q396.037300,240.746780,394.542510,239.324900Q393.056830,237.903020,393.056830,235.387390Q393.056830,232.871760,394.542510,231.449880Q396.037300,230.028010,398.680540,230.028010Z" fill="rgb(255,255,255)" stroke="none" stroke-width="1"/></g></g><g id="ejwnst3h8jsm46" transform="matrix(1 0 0 1 -457.45999999999998 -1.63419000000000)"><path id="ejwnst3h8jsm47" d="M1040,200L1260,200L1260,260L1040,260Z" fill="rgb(255,255,255)" fill-opacity="0" stroke="rgb(0,0,0)" stroke-width="2" stroke-opacity="0"/></g><g id="ejwnst3h8jsm48" transform="matrix(1 0 0 1 -457.45999999999998 -1.63419000000000)"><path id="ejwnst3h8jsm49" d="M1060,269.300000L1260,269.300000L1260,320L1060,320Z" fill="rgb(255,255,255)" fill-opacity="0" stroke="rgb(0,0,0)" stroke-width="2" stroke-opacity="0"/></g></g><g id="ejwnst3h8jsm50" transform="matrix(1 0 0 1 -462.54000854999970 -104.56382369999990)"><path id="ejwnst3h8jsm51" d="M1072.539600,148.365810C1072.539600,170.465810,1054.639600,188.365810,1032.539600,188.365810C1010.439600,188.365810,992.539560,170.465810,992.539560,148.365810C992.539560,126.265810,1010.439600,108.365810,1032.539600,108.365810C1054.639600,108.365810,1072.539600,126.265810,1072.539600,148.365810Z" fill="rgb(255,255,255)" stroke="rgb(36,41,46)" stroke-width="4"/><path id="ejwnst3h8jsm52" d="M1012.539600,162.165810L1031.539600,155.265810L1053.079600,162.165810L1042.539600,187.665810L1022.539600,187.665810Z" fill="rgb(255,255,255)" stroke="rgb(36,41,46)" stroke-width="2"/><path id="ejwnst3h8jsm53" d="M1053.079600,138.365810C1053.079600,149.415810,1044.009600,158.365810,1032.809600,158.365810C1021.609600,158.365810,1012.539600,149.415810,1012.539600,138.365810C1012.539600,127.315810,1021.619600,118.365810,1032.809600,118.365810C1044.009600,118.365810,1053.079600,127.315810,1053.079600,138.365810Z" fill="rgb(255,255,255)" stroke="rgb(36,41,46)" stroke-width="2"/></g></g></g><g id="ejwnst3h8jsm54_ts" transform="translate(390.370913,250.612286) scale(1,1)"><g id="ejwnst3h8jsm54" transform="translate(-852.910922,-355.176110)" opacity="0"><path id="ejwnst3h8jsm55" d="M709.912720,284.301250L1004.127800,284.301250L1004.127800,426.050970L709.912720,426.050970Z" fill="rgb(255,255,255)" stroke="rgb(36,41,46)" stroke-width="4"/><text id="ejwnst3h8jsm56" dx="0" dy="0" font-family="sans-serif" font-size="24" font-weight="bold" transform="matrix(1 0 0 1 731.90949999999998 331.13987500000002)" fill="rgb(36,41,46)" stroke="none" stroke-width="1"><![CDATA[Install app?]]></text><path id="ejwnst3h8jsm57" d="M854.483270,370.913700L975.321570,370.913700L975.321570,400.417560L854.483270,400.417560Z" fill="rgb(36,41,46)" stroke="rgb(36,41,46)" stroke-width="2"/><text id="ejwnst3h8jsm58" dx="0" dy="0" font-family="sans-serif" font-size="18" font-weight="bold" transform="matrix(1 0 0 1 888.90241999999921 392.10243750000001)" fill="rgb(255,255,255)" stroke="none" stroke-width="1"><![CDATA[Install]]></text><path id="ejwnst3h8jsm59" d="M733.917180,370.983320L845.654760,370.983320L845.654760,400.487180L733.917180,400.487180Z" fill="rgb(255,255,255)" stroke="rgb(36,41,46)" stroke-width="2"/><text id="ejwnst3h8jsm60" dx="0" dy="0" font-family="sans-serif" font-size="18" font-weight="bold" transform="matrix(1 0 0 1 760.28597000000013 392.10243750000001)" fill="rgb(36,41,46)" stroke="none" stroke-width="1"><![CDATA[Cancel]]></text></g></g><path id="ejwnst3h8jsm61" d="M802.350640,340.365410L799.672070,337.686840L800.529220,336.883270L802.350640,338.704690L806.314930,334.740410L807.172070,335.597550Z" transform="matrix(1 0 0 1 -462.54000854999970 -104.56382369999990)" opacity="0" fill="rgb(0,0,0)" stroke="none" stroke-width="1"/><path id="ejwnst3h8jsm62" d="M879.604870,375.317750L876.926300,372.639180L877.783450,371.835610L879.604870,373.657030L883.569160,369.692750L884.426300,370.549890Z" transform="matrix(1 0 0 1 -462.54000854999970 -104.56382369999990)" opacity="0" fill="rgb(0,0,0)" stroke="none" stroke-width="1"/><path id="ejwnst3h8jsm63" d="M1001.841100,414.866250L999.162520,412.187680L1000.019600,411.384110L1001.841100,413.205530L1005.805300,409.241250L1006.662500,410.098390Z" transform="matrix(1 0 0 1 -462.54000854999970 -104.56382369999990)" opacity="0" fill="rgb(0,0,0)" stroke="none" stroke-width="1"/><g id="ejwnst3h8jsm64_to" transform="translate(575.502201,111.719062)"><circle id="ejwnst3h8jsm64" r="14.359447" transform="translate(36.859447,63.140553)" opacity="0" fill="rgb(198,198,198)" stroke="rgb(36,41,46)" stroke-width="4"/></g></svg>