<svg id="e56dxt3d2xne1" xmlns="http://www.w3.org/2000/svg" xmlns:xlink="http://www.w3.org/1999/xlink" viewBox="0 0 800 450" shape-rendering="geometricPrecision" text-rendering="geometricPrecision"><style><![CDATA[#e56dxt3d2xne33 {animation: e56dxt3d2xne33_c_o 10000ms linear infinite normal forwards}@keyframes e56dxt3d2xne33_c_o { 0% {opacity: 0} 5% {opacity: 0} 7% {opacity: 1} 62% {opacity: 1} 64% {opacity: 0} 100% {opacity: 0} }#e56dxt3d2xne35 {animation: e56dxt3d2xne35_c_o 10000ms linear infinite normal forwards}@keyframes e56dxt3d2xne35_c_o { 0% {opacity: 1} 7% {opacity: 1;animation-timing-function: step-end} 9% {opacity: 0;animation-timing-function: step-end} 11% {opacity: 1;animation-timing-function: step-end} 46% {opacity: 1;animation-timing-function: step-end} 48% {opacity: 0;animation-timing-function: step-end} 50% {opacity: 1;animation-timing-function: step-end} 52% {opacity: 0} 100% {opacity: 0} }#e56dxt3d2xne39 {animation: e56dxt3d2xne39_c_o 10000ms linear infinite normal forwards}@keyframes e56dxt3d2xne39_c_o { 0% {opacity: 0} 53% {opacity: 0} 54% {opacity: 1} 78% {opacity: 1} 80% {opacity: 0} 100% {opacity: 0} }]]></style><g id="e56dxt3d2xne2" transform="matrix(1 0 0 1 -22.54000854499975 -184.56382369999994)"><g id="e56dxt3d2xne3" transform="matrix(1 0 0 1 -457.45999999999998 -1.63419000000000)"><path id="e56dxt3d2xne4" d="M500,200L1260,200L1260,632.396000L500,632.396000Z" fill="rgb(255,255,255)" stroke="rgb(36,41,46)" stroke-width="4"/><path id="e56dxt3d2xne5" d="M499.999980,200L1260,200L1260,260L499.999980,260Z" fill="rgb(36,41,46)" stroke="rgb(36,41,46)" stroke-width="2" stroke-opacity="0"/><g id="e56dxt3d2xne6" transform="matrix(1 0 0 1 816.84400000000005 -2.70642000000000)"><path id="e56dxt3d2xne7" d="M298.501970,227.302740L298.501970,230.182950Q297.380880,229.681650,296.314470,229.426440Q295.248060,229.171230,294.300140,229.171230Q293.042330,229.171230,292.440760,229.517590Q291.839200,229.863940,291.839200,230.593110Q291.839200,231.139990,292.240240,231.449880Q292.650400,231.750670,293.716810,231.969420L295.211600,232.270200Q297.481140,232.725930,298.438170,233.655620Q299.395200,234.585310,299.395200,236.298850Q299.395200,238.550160,298.055360,239.653020Q296.724630,240.746780,293.981130,240.746780Q292.686860,240.746780,291.383470,240.500680Q290.080080,240.254590,288.776700,239.771510L288.776700,236.809270Q290.080080,237.501980,291.292320,237.857450Q292.513680,238.203800,293.643890,238.203800Q294.792330,238.203800,295.403010,237.820990Q296.013690,237.438180,296.013690,236.727240Q296.013690,236.089210,295.594420,235.742860Q295.184260,235.396510,293.944670,235.123070L292.586600,234.822290Q290.544930,234.384780,289.597010,233.427750Q288.658210,232.470720,288.658210,230.848320Q288.658210,228.815760,289.970710,227.722010Q291.283210,226.628260,293.744150,226.628260Q294.865250,226.628260,296.050150,226.801440Q297.235040,226.965500,298.501970,227.302740Z" fill="rgb(255,255,255)" stroke="none" stroke-width="1"/><path id="e56dxt3d2xne8" d="M306.905630,235.888690Q305.884800,235.888690,305.365270,236.235050Q304.854850,236.581400,304.854850,237.255880Q304.854850,237.875680,305.265010,238.231150Q305.684280,238.577500,306.422560,238.577500Q307.343130,238.577500,307.972040,237.921250Q308.600950,237.255880,308.600950,236.262390L308.600950,235.888690ZM311.891320,234.658220L311.891320,240.482450L308.600950,240.482450L308.600950,238.969430Q307.944700,239.899120,307.124380,240.327500Q306.304070,240.746780,305.128290,240.746780Q303.542350,240.746780,302.548860,239.826200Q301.564480,238.896510,301.564480,237.419950Q301.564480,235.624370,302.794950,234.785830Q304.034540,233.947280,306.677770,233.947280L308.600950,233.947280L308.600950,233.692070Q308.600950,232.917330,307.990270,232.561860Q307.379590,232.197280,306.085320,232.197280Q305.037140,232.197280,304.134800,232.406920Q303.232450,232.616550,302.457710,233.035820L302.457710,230.547540Q303.505890,230.292330,304.563180,230.164720Q305.620480,230.028010,306.677770,230.028010Q309.439490,230.028010,310.660850,231.121760Q311.891320,232.206400,311.891320,234.658220Z" fill="rgb(255,255,255)" stroke="none" stroke-width="1"/><path id="e56dxt3d2xne9" d="M322.901760,230.593110L322.901760,233.072280Q321.853580,232.634780,320.878320,232.416030Q319.903050,232.197280,319.037170,232.197280Q318.107480,232.197280,317.651750,232.434260Q317.205130,232.662130,317.205130,233.145200Q317.205130,233.537130,317.542370,233.746760Q317.888730,233.956400,318.772840,234.056660L319.347060,234.138660Q321.853580,234.457670,322.719470,235.186840Q323.585350,235.916010,323.585350,237.474600Q323.585350,239.106120,322.382230,239.926430Q321.179100,240.746750,318.791070,240.746750Q317.779350,240.746750,316.694720,240.582680Q315.619190,240.427730,314.479870,240.108720L314.479870,237.629550Q315.455130,238.103510,316.475970,238.340490Q317.505920,238.577470,318.563210,238.577470Q319.520240,238.577470,320.003320,238.313150Q320.486390,238.048820,320.486390,237.529290Q320.486390,237.091790,320.149150,236.882150Q319.821020,236.663400,318.827530,236.544910L318.253310,236.472010Q316.074920,236.198570,315.199920,235.460290Q314.324920,234.722000,314.324920,233.218100Q314.324920,231.595700,315.436900,230.811840Q316.548880,230.027990,318.845760,230.027990Q319.748110,230.027990,320.741600,230.164700Q321.735090,230.301420,322.901760,230.593090Z" fill="rgb(255,255,255)" stroke="none" stroke-width="1"/><path id="e56dxt3d2xne10" d="M336.190840,229.526700L336.190840,237.830100L337.448660,237.830100Q339.599700,237.830100,340.729910,236.763690Q341.869240,235.697290,341.869240,233.664730Q341.869240,231.641290,340.739030,230.584000Q339.608820,229.526700,337.448660,229.526700ZM332.681720,226.874350L336.382250,226.874350Q339.481210,226.874350,340.994240,227.320970Q342.516380,227.758470,343.601010,228.815760Q344.558050,229.736340,345.022890,230.939470Q345.487740,232.142590,345.487740,233.664730Q345.487740,235.205100,345.022890,236.417340Q344.558050,237.620470,343.601010,238.541040Q342.507260,239.598340,340.976010,240.044950Q339.444760,240.482450,336.382250,240.482450L332.681720,240.482450Z" fill="rgb(255,255,255)" stroke="none" stroke-width="1"/><path id="e56dxt3d2xne11" d="M348.367950,236.955100L351.649200,236.955100L351.649200,240.482450L348.367950,240.482450Z" fill="rgb(255,255,255)" stroke="none" stroke-width="1"/><path id="e56dxt3d2xne12" d="M361.766410,226.874350L371.236480,226.874350L371.236480,229.526700L365.275530,229.526700L365.275530,232.060560L370.881010,232.060560L370.881010,234.712910L365.275530,234.712910L365.275530,237.830100L371.437000,237.830100L371.437000,240.482450L361.766410,240.482450Z" fill="rgb(255,255,255)" stroke="none" stroke-width="1"/><path id="e56dxt3d2xne13" d="M383.832860,231.969420Q384.452650,231.021500,385.300310,230.529310Q386.157080,230.028010,387.177920,230.028010Q388.937030,230.028010,389.857610,231.112640Q390.778180,232.197280,390.778180,234.266290L390.778180,240.482450L387.496930,240.482450L387.496930,235.159530Q387.505930,235.041040,387.505930,234.913430Q387.514930,234.785830,387.514930,234.548850Q387.514930,233.464210,387.195910,232.981140Q386.876900,232.488950,386.165960,232.488950Q385.236280,232.488950,384.725860,233.254570Q384.224560,234.020200,384.206330,235.469420L384.206330,240.482450L380.925070,240.482450L380.925070,235.159530Q380.925070,233.464210,380.633400,232.981140Q380.341740,232.488950,379.594340,232.488950Q378.655530,232.488950,378.145120,233.263690Q377.634700,234.029320,377.634700,235.460310L377.634700,240.482450L374.353440,240.482450L374.353440,230.274100L377.634700,230.274100L377.634700,231.768890Q378.236260,230.903010,379.011000,230.465510Q379.794860,230.028010,380.733660,230.028010Q381.790960,230.028010,382.602160,230.538420Q383.413360,231.048840,383.832630,231.969420Z" fill="rgb(255,255,255)" stroke="none" stroke-width="1"/><path id="e56dxt3d2xne14" d="M398.680540,232.361340Q397.595900,232.361340,397.021680,233.145200Q396.456580,233.919940,396.456580,235.387390Q396.456580,236.854840,397.021680,237.638700Q397.595900,238.413440,398.680540,238.413440Q399.746950,238.413440,400.312050,237.638700Q400.877160,236.854840,400.877160,235.387390Q400.877160,233.919940,400.312050,233.145200Q399.746950,232.361340,398.680540,232.361340ZM398.680540,230.028010Q401.314660,230.028010,402.791220,231.449880Q404.276900,232.871760,404.276900,235.387390Q404.276900,237.903020,402.791220,239.324900Q401.314660,240.746780,398.680540,240.746780Q396.037300,240.746780,394.542510,239.324900Q393.056830,237.903020,393.056830,235.387390Q393.056830,232.871760,394.542510,231.449880Q396.037300,230.028010,398.680540,230.028010Z" fill="rgb(255,255,255)" stroke="none" stroke-width="1"/></g></g><g id="e56dxt3d2xne15" transform="matrix(1 0 0 1 -457.45999999999998 -1.63419000000000)"><path id="e56dxt3d2xne16" d="M1040,200L1260,200L1260,260L1040,260Z" fill="rgb(255,255,255)" fill-opacity="0" stroke="rgb(0,0,0)" stroke-width="2" stroke-opacity="0"/></g><g id="e56dxt3d2xne17" transform="matrix(1 0 0 1 -457.45999999999998 -1.63419000000000)"><path id="e56dxt3d2xne18" d="M1060,269.300000L1260,269.300000L1260,320L1060,320Z" fill="rgb(255,255,255)" fill-opacity="0" stroke="rgb(0,0,0)" stroke-width="2" stroke-opacity="0"/></g></g><g id="e56dxt3d2xne19" display="none" transform="matrix(1 0 0 1 -22.54000854499975 -184.56382369999994)"><g id="e56dxt3d2xne20" transform="matrix(1 0 0 1 -226.53299999999999 -13.92630000000000)"><path id="e56dxt3d2xne21" d="M308.755860,250.998050Q307.099610,251.857420,305.302730,252.294920Q303.505860,252.732420,301.552730,252.732420Q295.724610,252.732420,292.318360,249.482420Q288.912110,246.216800,288.912110,240.638670Q288.912110,235.044920,292.318360,231.794920Q295.724610,228.529300,301.552730,228.529300Q303.505860,228.529300,305.302730,228.966800Q307.099610,229.404300,308.755860,230.263670L308.755860,235.091800Q307.083980,233.951170,305.458980,233.419920Q303.833980,232.888670,302.037110,232.888670Q298.818360,232.888670,296.974610,234.951170Q295.130860,237.013670,295.130860,240.638670Q295.130860,244.248050,296.974610,246.310550Q298.818360,248.373050,302.037110,248.373050Q303.833980,248.373050,305.458980,247.841800Q307.083980,247.310550,308.755860,246.169920Z" fill="rgb(255,255,255)" stroke="none" stroke-width="1"/><path id="e56dxt3d2xne22" d="M326.490230,239.544920Q325.755860,239.201170,325.021480,239.044920Q324.302730,238.873050,323.568360,238.873050Q321.412110,238.873050,320.240230,240.263670Q319.083980,241.638670,319.083980,244.216800L319.083980,252.279300L313.490230,252.279300L313.490230,234.779300L319.083980,234.779300L319.083980,237.654300Q320.162110,235.935550,321.552730,235.154300Q322.958980,234.357420,324.912110,234.357420Q325.193360,234.357420,325.521480,234.388620Q325.849610,234.404220,326.474610,234.482320Z" fill="rgb(255,255,255)" stroke="none" stroke-width="1"/><path id="e56dxt3d2xne23" d="M346.740230,243.482420L346.740230,245.076170L333.662110,245.076170Q333.865230,247.044920,335.083980,248.029300Q336.302730,249.013670,338.490230,249.013670Q340.255860,249.013670,342.099610,248.498050Q343.958980,247.966800,345.912110,246.904300L345.912110,251.216800Q343.927730,251.966800,341.943360,252.341800Q339.958980,252.732420,337.974610,252.732420Q333.224610,252.732420,330.583980,250.326170Q327.958980,247.904300,327.958980,243.544920Q327.958980,239.263670,330.537110,236.810550Q333.130860,234.357420,337.662110,234.357420Q341.787110,234.357420,344.255860,236.841800Q346.740230,239.326170,346.740230,243.482420ZM340.990230,241.623050Q340.990230,240.029300,340.052730,239.060550Q339.130860,238.076170,337.630860,238.076170Q336.005860,238.076170,334.990230,238.998050Q333.974610,239.904300,333.724610,241.623050Z" fill="rgb(255,255,255)" stroke="none" stroke-width="1"/><path id="e56dxt3d2xne24" d="M358.818360,244.404300Q357.068360,244.404300,356.177730,244.998050Q355.302730,245.591800,355.302730,246.748050Q355.302730,247.810550,356.005860,248.419920Q356.724610,249.013670,357.990230,249.013670Q359.568360,249.013670,360.646480,247.888670Q361.724610,246.748050,361.724610,245.044920L361.724610,244.404300ZM367.365230,242.294920L367.365230,252.279300L361.724610,252.279300L361.724610,249.685550Q360.599610,251.279300,359.193360,252.013670Q357.787110,252.732420,355.771480,252.732420Q353.052730,252.732420,351.349610,251.154300Q349.662110,249.560550,349.662110,247.029300Q349.662110,243.951170,351.771480,242.513670Q353.896480,241.076170,358.427730,241.076170L361.724610,241.076170L361.724610,240.638670Q361.724610,239.310550,360.677730,238.701170Q359.630860,238.076170,357.412110,238.076170Q355.615230,238.076170,354.068360,238.435550Q352.521480,238.794920,351.193360,239.513670L351.193360,235.248050Q352.990230,234.810550,354.802730,234.591800Q356.615230,234.357420,358.427730,234.357420Q363.162110,234.357420,365.255860,236.232420Q367.365230,238.091800,367.365230,242.294920Z" fill="rgb(255,255,255)" stroke="none" stroke-width="1"/><path id="e56dxt3d2xne25" d="M378.677730,229.810550L378.677730,234.779300L384.443360,234.779300L384.443360,238.779300L378.677730,238.779300L378.677730,246.201170Q378.677730,247.419920,379.162110,247.857420Q379.646480,248.279300,381.083980,248.279300L383.958980,248.279300L383.958980,252.279300L379.162110,252.279300Q375.849610,252.279300,374.458980,250.904300Q373.083980,249.513670,373.083980,246.201170L373.083980,238.779300L370.302730,238.779300L370.302730,234.779300L373.083980,234.779300L373.083980,229.810550Z" fill="rgb(255,255,255)" stroke="none" stroke-width="1"/><path id="e56dxt3d2xne26" d="M405.333980,243.482420L405.333980,245.076170L392.255860,245.076170Q392.458980,247.044920,393.677730,248.029300Q394.896480,249.013670,397.083980,249.013670Q398.849610,249.013670,400.693360,248.498050Q402.552730,247.966800,404.505860,246.904300L404.505860,251.216800Q402.521480,251.966800,400.537110,252.341800Q398.552730,252.732420,396.568360,252.732420Q391.818360,252.732420,389.177730,250.326170Q386.552730,247.904300,386.552730,243.544920Q386.552730,239.263670,389.130860,236.810550Q391.724610,234.357420,396.255860,234.357420Q400.380860,234.357420,402.849610,236.841800Q405.333980,239.326170,405.333980,243.482420ZM399.583980,241.623050Q399.583980,240.029300,398.646480,239.060550Q397.724610,238.076170,396.224610,238.076170Q394.599610,238.076170,393.583980,238.998050Q392.568360,239.904300,392.318360,241.623050Z" fill="rgb(255,255,255)" stroke="none" stroke-width="1"/><path id="e56dxt3d2xne27" d="M437.193360,229.685550L437.193360,234.623050Q435.271480,233.763670,433.443360,233.326170Q431.615230,232.888670,429.990230,232.888670Q427.833980,232.888670,426.802730,233.482420Q425.771480,234.076170,425.771480,235.326170Q425.771480,236.263670,426.458980,236.794920Q427.162110,237.310550,428.990230,237.685550L431.552730,238.201170Q435.443360,238.982420,437.083980,240.576170Q438.724610,242.169920,438.724610,245.107420Q438.724610,248.966800,436.427730,250.857420Q434.146480,252.732420,429.443360,252.732420Q427.224610,252.732420,424.990230,252.310550Q422.755860,251.888670,420.521480,251.060550L420.521480,245.982420Q422.755860,247.169920,424.833980,247.779300Q426.927730,248.373050,428.865230,248.373050Q430.833980,248.373050,431.880860,247.716800Q432.927730,247.060550,432.927730,245.841800Q432.927730,244.748050,432.208980,244.154300Q431.505860,243.560550,429.380860,243.091800L427.052730,242.576170Q423.552730,241.826170,421.927730,240.185550Q420.318360,238.544920,420.318360,235.763670Q420.318360,232.279300,422.568360,230.404300Q424.818360,228.529300,429.037110,228.529300Q430.958980,228.529300,432.990230,228.826170Q435.021480,229.107420,437.193360,229.685550Z" fill="rgb(255,255,255)" stroke="none" stroke-width="1"/><path id="e56dxt3d2xne28" d="M458.162110,248.029300L448.755860,248.029300L447.271480,252.279300L441.224610,252.279300L449.865230,228.951170L457.037110,228.951170L465.677730,252.279300L459.630860,252.279300ZM450.255860,243.701170L456.646480,243.701170L453.458980,234.419920Z" fill="rgb(255,255,255)" stroke="none" stroke-width="1"/><path id="e56dxt3d2xne29" d="M485.005860,229.685550L485.005860,234.623050Q483.083980,233.763670,481.255860,233.326170Q479.427730,232.888670,477.802730,232.888670Q475.646480,232.888670,474.615230,233.482420Q473.583980,234.076170,473.583980,235.326170Q473.583980,236.263670,474.271480,236.794920Q474.974610,237.310550,476.802730,237.685550L479.365230,238.201170Q483.255860,238.982420,484.896480,240.576170Q486.537110,242.169920,486.537110,245.107420Q486.537110,248.966800,484.240230,250.857420Q481.958980,252.732420,477.255860,252.732420Q475.037110,252.732420,472.802730,252.310550Q470.568360,251.888670,468.333980,251.060550L468.333980,245.982420Q470.568360,247.169920,472.646480,247.779300Q474.740230,248.373050,476.677730,248.373050Q478.646480,248.373050,479.693360,247.716800Q480.740230,247.060550,480.740230,245.841800Q480.740230,244.748050,480.021480,244.154300Q479.318360,243.560550,477.193360,243.091800L474.865230,242.576170Q471.365230,241.826170,469.740230,240.185550Q468.130860,238.544920,468.130860,235.763670Q468.130860,232.279300,470.380860,230.404300Q472.630860,228.529300,476.849610,228.529300Q478.771480,228.529300,480.802730,228.826170Q482.833980,229.107420,485.005860,229.685550Z" fill="rgb(255,255,255)" stroke="none" stroke-width="1"/><path id="e56dxt3d2xne30" d="M517.115230,248.029300L507.708980,248.029300L506.224610,252.279300L500.177730,252.279300L508.818360,228.951170L515.990230,228.951170L524.630860,252.279300L518.583980,252.279300ZM509.208980,243.701170L515.599610,243.701170L512.412110,234.419920Z" fill="rgb(255,255,255)" stroke="none" stroke-width="1"/><path id="e56dxt3d2xne31" d="M533.068360,249.748050L533.068360,258.935550L527.474610,258.935550L527.474610,234.779300L533.068360,234.779300L533.068360,237.341800Q534.224610,235.810550,535.630860,235.091800Q537.037110,234.357420,538.865230,234.357420Q542.099610,234.357420,544.177730,236.935550Q546.255860,239.498050,546.255860,243.544920Q546.255860,247.591800,544.177730,250.169920Q542.099610,252.732420,538.865230,252.732420Q537.037110,252.732420,535.630860,252.013670Q534.224610,251.279300,533.068360,249.748050ZM536.787110,238.419920Q534.990230,238.419920,534.021480,239.748050Q533.068360,241.060550,533.068360,243.544920Q533.068360,246.029300,534.021480,247.357420Q534.990230,248.669920,536.787110,248.669920Q538.583980,248.669920,539.521480,247.357420Q540.474610,246.044920,540.474610,243.544920Q540.474610,241.044920,539.521480,239.732420Q538.583980,238.419920,536.787110,238.419920Z" fill="rgb(255,255,255)" stroke="none" stroke-width="1"/><path id="e56dxt3d2xne32" d="M555.974610,249.748050L555.974610,258.935550L550.380860,258.935550L550.380860,234.779300L555.974610,234.779300L555.974610,237.341800Q557.130860,235.810550,558.537110,235.091800Q559.943360,234.357420,561.771480,234.357420Q565.005860,234.357420,567.083980,236.935550Q569.162110,239.498050,569.162110,243.544920Q569.162110,247.591800,567.083980,250.169920Q565.005860,252.732420,561.771480,252.732420Q559.943360,252.732420,558.537110,252.013670Q557.130860,251.279300,555.974610,249.748050ZM559.693360,238.419920Q557.896480,238.419920,556.927730,239.748050Q555.974610,241.060550,555.974610,243.544920Q555.974610,246.029300,556.927730,247.357420Q557.896480,248.669920,559.693360,248.669920Q561.490230,248.669920,562.427730,247.357420Q563.380860,246.044920,563.380860,243.544920Q563.380860,241.044920,562.427730,239.732420Q561.490230,238.419920,559.693360,238.419920Z" fill="rgb(255,255,255)" stroke="none" stroke-width="1"/></g></g><g id="e56dxt3d2xne33" transform="matrix(1 0 0 1 -462.54000854499969 -104.56382369999994)" opacity="0"><rect id="e56dxt3d2xne34" width="296.113000" height="56.591700" rx="28.295862" ry="28.295862" transform="matrix(1 0 0 1 681.22199999999998 119.17800000000000)" fill="rgb(255,255,255)" stroke="rgb(36,41,46)" stroke-width="4.000010" stroke-linecap="round" stroke-linejoin="round"/><path id="e56dxt3d2xne35" d="M710.574490,150.547980C707.501765,145.891923,705.696520,140.514968,705.336990,134.947990L705.336990,134.847990C705.336990,134.516469,705.468686,134.198527,705.703106,133.964106C705.937527,133.729686,706.255469,133.597990,706.586990,133.597990L713.186990,133.597990L715.061990,138.310490L711.511990,141.897990L711.586990,142.497990C711.893451,144.326891,712.510696,146.089843,713.411990,147.710480L715.236990,145.885480C714.738705,144.890870,714.385130,143.830149,714.186990,142.735490L716.849490,140.047990C717.557020,139.339364,717.773444,138.276918,717.399490,137.347990L715.499490,132.672990C715.120422,131.721187,714.199000,131.096998,713.174490,131.097990L706.286990,131.097990C705.293550,131.174537,704.371416,131.643299,703.724137,132.400804C703.076858,133.158308,702.757656,134.142269,702.836990,135.135490C703.277870,141.301046,705.343736,147.239868,708.824490,152.347980ZM733.799490,150.922980L729.086990,149.035480C728.161915,148.646391,727.093833,148.848194,726.374490,149.547980L723.661990,152.235480C721.732711,151.902140,719.920970,151.080187,718.399490,149.847980L736.586990,131.610490L734.824490,129.847990L701.586990,163.085490L703.349490,164.847990L712.099490,156.097990C716.324490,160.072990,722.449490,163.122990,731.336990,163.597990L731.586990,163.597990C732.581552,163.597990,733.535379,163.202902,734.238641,162.499641C734.941902,161.796379,735.336990,160.842552,735.336990,159.847990L735.336990,153.247980C735.344172,152.232670,734.736570,151.313859,733.799490,150.922980ZM732.836990,159.847990L732.836990,159.922990C732.817685,160.254729,732.667083,160.565128,732.418460,160.785605C732.169837,161.006082,731.843657,161.118489,731.511990,161.097990C723.374490,160.635490,717.761990,157.922990,713.874490,154.322990L716.586990,151.647980C718.655199,153.436266,721.218884,154.552432,723.936990,154.847990L724.536990,154.922990L728.124490,151.360480L732.836990,153.247980Z" transform="matrix(1 0 0 1 4.91922800000003 0.12585999999998)" fill="rgb(36,41,46)" stroke="none" stroke-width="1"/><g id="e56dxt3d2xne36" transform="matrix(1 0 0 1 -182.74199999999999 -385.50599999999997)"><text id="e56dxt3d2xne37" dx="0" dy="0" font-family="sans-serif" font-size="16" font-weight="bold" transform="matrix(1 0 0 1 937.97134699999992 527.81837999999993)" fill="rgb(36,41,46)" stroke="none" stroke-width="1"><![CDATA[App is offline.]]></text><text id="e56dxt3d2xne38" dx="0" dy="0" font-family="sans-serif" font-size="16" font-weight="bold" transform="matrix(1 0 0 1 937.97134699999992 547.52932750000002)" fill="rgb(36,41,46)" stroke="none" stroke-width="1"><![CDATA[Changes saved locally.]]></text></g></g><g id="e56dxt3d2xne39" transform="matrix(1 0 0 1 -462.54000854499969 -104.56382369999994)" opacity="0"><rect id="e56dxt3d2xne40" width="296.113000" height="56.591700" rx="28.295862" ry="28.295862" transform="matrix(1 0 0 1 681.22199999999998 119.17800000000000)" fill="rgb(255,255,255)" stroke="rgb(36,41,46)" stroke-width="4.000010" stroke-linecap="round" stroke-linejoin="round"/><g id="e56dxt3d2xne41" transform="matrix(1 0 0 1 -182.74199999999999 -385.50599999999997)"><text id="e56dxt3d2xne42" dx="0" dy="0" font-family="sans-serif" font-size="16" font-weight="bold" transform="matrix(1 0 0 1 937.97134699999992 527.81837999999993)" fill="rgb(36,41,46)" stroke="none" stroke-width="1"><![CDATA[App is back online!]]></text><text id="e56dxt3d2xne43" dx="0" dy="0" font-family="sans-serif" font-size="16" font-weight="bold" transform="matrix(1 0 0 1 937.97134699999992 547.52932750000002)" fill="rgb(36,41,46)" stroke="none" stroke-width="1"><![CDATA[Server available.]]></text></g><path id="e56dxt3d2xne44" d="M735.171170,163.482870L734.959388,163.482870C710.479689,162.062572,707.003952,141.223098,706.518092,134.863164C706.439027,133.864457,706.757154,132.875063,707.402252,132.113376C708.047349,131.351690,708.966374,130.880339,709.956465,130.803370L716.820739,130.803370C717.841797,130.802371,718.760115,131.430008,719.137906,132.387070L721.031500,137.087889C721.404193,138.021947,721.188498,139.090260,720.483354,139.802800L717.829832,142.505148C718.678870,147.373071,722.450280,151.188178,727.272890,152.057616L729.976247,149.355268C730.693164,148.651620,731.757640,148.448702,732.679595,148.839937L737.376216,150.737867C738.310136,151.130904,738.915688,152.054789,738.908533,153.075705L738.908533,159.712162C738.908532,160.712217,738.514774,161.671312,737.813883,162.378457C737.112991,163.085602,736.162379,163.482871,735.171170,163.482870ZM710.255446,133.317172C709.567420,133.317176,709.009667,133.879911,709.009667,134.574077L709.009667,134.674627C709.582726,142.115502,713.257793,159.712162,735.096422,160.969068C735.426972,160.989681,735.752053,160.876653,735.999838,160.654958C736.247624,160.433263,736.397718,160.121149,736.416958,159.787577L736.416958,153.075705L731.720346,151.177784L728.144939,154.759954L727.546958,154.684577C716.708617,153.314559,715.238596,142.379491,715.238596,142.266369L715.163886,141.663060L718.701918,138.055745L716.833237,133.317209Z" transform="matrix(1 0 0 1 1.29881122999998 0.33073078999999)" fill="rgb(36,41,46)" stroke="rgb(36,41,46)" stroke-width="1" stroke-opacity="0"/></g><g id="e56dxt3d2xne45" transform="matrix(1 0 0 1 -462.54000854499969 -104.56382369999994)"><path id="e56dxt3d2xne46" d="M1072.539600,148.365810C1072.539600,170.465810,1054.639600,188.365810,1032.539600,188.365810C1010.439600,188.365810,992.539560,170.465810,992.539560,148.365810C992.539560,126.265810,1010.439600,108.365810,1032.539600,108.365810C1054.639600,108.365810,1072.539600,126.265810,1072.539600,148.365810Z" fill="rgb(255,255,255)" stroke="rgb(36,41,46)" stroke-width="4"/><path id="e56dxt3d2xne47" d="M1012.539600,162.165810L1031.539600,155.265810L1053.079600,162.165810L1042.539600,187.665810L1022.539600,187.665810Z" fill="rgb(255,255,255)" stroke="rgb(36,41,46)" stroke-width="2"/><path id="e56dxt3d2xne48" d="M1053.079600,138.365810C1053.079600,149.415810,1044.009600,158.365810,1032.809600,158.365810C1021.609600,158.365810,1012.539600,149.415810,1012.539600,138.365810C1012.539600,127.315810,1021.619600,118.365810,1032.809600,118.365810C1044.009600,118.365810,1053.079600,127.315810,1053.079600,138.365810Z" fill="rgb(255,255,255)" stroke="rgb(36,41,46)" stroke-width="2"/></g><path id="e56dxt3d2xne49" d="M802.350640,340.365410L799.672070,337.686840L800.529220,336.883270L802.350640,338.704690L806.314930,334.740410L807.172070,335.597550Z" transform="matrix(1 0 0 1 -462.54000854499969 -104.56382369999994)" opacity="0" fill="rgb(0,0,0)" stroke="none" stroke-width="1"/><path id="e56dxt3d2xne50" d="M879.604870,375.317750L876.926300,372.639180L877.783450,371.835610L879.604870,373.657030L883.569160,369.692750L884.426300,370.549890Z" transform="matrix(1 0 0 1 -462.54000854499969 -104.56382369999994)" opacity="0" fill="rgb(0,0,0)" stroke="none" stroke-width="1"/><path id="e56dxt3d2xne51" d="M1001.841100,414.866250L999.162520,412.187680L1000.019600,411.384110L1001.841100,413.205530L1005.805300,409.241250L1006.662500,410.098390Z" transform="matrix(1 0 0 1 -462.54000854499969 -104.56382369999994)" opacity="0" fill="rgb(0,0,0)" stroke="none" stroke-width="1"/><path id="e56dxt3d2xne52" display="none" d="M56.978447,66.380975L62.759363,79.520591L56.550742,82.050000L50.769826,68.910384L41.594863,81.151394L41.456894,39.382859L72.500000,68.497691Z" transform="matrix(1 0 0 1 558.37069645500151 175.08515680000042)" fill="rgb(36,41,46)" stroke="rgb(255,255,255)" stroke-width="3"/></svg>